<svg width="30" height="30" viewBox="0 0 30 30" fill="none" xmlns="http://www.w3.org/2000/svg">
<g clip-path="url(#clip0)">
<path d="M15 21.4613C14.1792 21.4628 13.3662 21.3021 12.6077 20.9885C11.8492 20.6749 11.1601 20.2145 10.58 19.6338L0.366251 9.41876C0.138553 9.18301 0.0125601 8.86726 0.0154081 8.53951C0.0182561 8.21177 0.149717 7.89825 0.381477 7.66649C0.613238 7.43473 0.926753 7.30327 1.2545 7.30042C1.58225 7.29757 1.898 7.42357 2.13375 7.65126L12.3475 17.8663C13.0516 18.5685 14.0055 18.9629 15 18.9629C15.9945 18.9629 16.9484 18.5685 17.6525 17.8663L27.8662 7.65126C27.9816 7.53188 28.1195 7.43665 28.272 7.37114C28.4245 7.30563 28.5885 7.27114 28.7545 7.2697C28.9205 7.26826 29.0851 7.29989 29.2387 7.36274C29.3923 7.42559 29.5319 7.5184 29.6492 7.63577C29.7666 7.75314 29.8594 7.8927 29.9223 8.04632C29.9851 8.19994 30.0168 8.36454 30.0153 8.53052C30.0139 8.69649 29.9794 8.86051 29.9139 9.01302C29.8484 9.16552 29.7531 9.30345 29.6337 9.41876L19.42 19.6338C18.8399 20.2145 18.1508 20.6749 17.3923 20.9885C16.6338 21.3021 15.8208 21.4628 15 21.4613Z" fill="#2861CF"/>
</g>
<defs>
<clipPath id="clip0">
<rect width="30" height="30" fill="white"/>
</clipPath>
</defs>
</svg>
