<svg width="50" height="50" viewBox="0 0 50 50" fill="none" xmlns="http://www.w3.org/2000/svg">
<g clip-path="url(#clip0)">
<path d="M15.2343 36.1331C14.6952 36.1331 14.2577 36.5706 14.2577 37.1096C14.2577 37.6487 14.6952 38.0862 15.2343 38.0862C15.7733 38.0862 16.2108 37.6487 16.2108 37.1096C16.2108 36.5706 15.7733 36.1331 15.2343 36.1331Z" fill="#89909F"/>
<path d="M43.9593 18.5548L49.714 12.8C49.9561 12.558 50.0537 12.2068 49.9714 11.8746C49.889 11.5422 49.6386 11.2774 49.3115 11.1764L35.2978 6.85122C34.0346 2.79058 30.2799 0.000244141 25.9764 0.000244141C21.9761 0.000244141 18.3983 2.43823 16.9176 6.11597L0.68574 11.1773C0.359471 11.2791 0.110057 11.5441 0.028319 11.876C-0.0534192 12.2079 0.044237 12.5584 0.285936 12.8001L6.19209 18.7063L2.46709 24.9148C2.31465 25.1688 2.28584 25.4783 2.38857 25.7561C2.49131 26.0339 2.71465 26.25 2.9957 26.3437L8.39833 28.1445V43.1642C8.39833 43.5712 8.65087 43.9356 9.03203 44.0786C12.3354 45.3172 24.6094 49.9206 24.6753 49.9439C24.869 50.0122 25.0873 50.0214 25.3001 49.9526C25.3029 49.9516 25.3058 49.951 25.3087 49.95L42.8868 44.0907C43.2855 43.9578 43.5546 43.5845 43.5546 43.1642V27.7423L49.3161 25.9318C49.6419 25.8294 49.8905 25.5644 49.9718 25.2328C50.0531 24.9011 49.9553 24.5511 49.7139 24.3096L43.9593 18.5548ZM35.7421 9.76587C35.7421 9.51772 35.7316 9.27017 35.713 9.02339L47.187 12.5649L42.3142 17.4375L34.3525 14.7839C35.2541 13.277 35.7421 11.5381 35.7421 9.76587ZM18.5865 7.22407C19.6706 4.07153 22.6404 1.95337 25.9764 1.95337C29.5703 1.95337 32.6873 4.38423 33.5563 7.8647C33.7107 8.48315 33.7889 9.1228 33.7889 9.76587C33.7889 11.5797 33.187 13.2798 32.0479 14.6831C30.556 16.5231 28.3431 17.5784 25.9764 17.5784C23.4182 17.5784 21.0187 16.3227 19.5572 14.2186C18.6458 12.9094 18.164 11.3696 18.164 9.76587C18.164 8.8937 18.306 8.03853 18.5865 7.22407ZM2.80898 12.5611L16.3148 8.34976C16.2471 8.81636 16.2108 9.28901 16.2108 9.76577C16.2108 11.3381 16.5833 12.8611 17.2933 14.2352L7.68554 17.4375L2.80898 12.5611ZM4.76826 24.8757L7.85615 19.7291L23.5361 24.9557L20.4483 30.1024C18.774 29.5443 6.55595 25.4715 4.76826 24.8757ZM24.0233 47.6145L10.3515 42.4875V28.7956C21.1083 32.3622 20.583 32.2533 20.8825 32.2533C21.2183 32.2533 21.5397 32.0795 21.7201 31.7791L24.0233 27.9401V47.6145ZM24.9999 23.3849L10.5101 18.555L18.4001 15.9251C20.2468 18.1954 23.0267 19.5315 25.9764 19.5315C28.7052 19.5315 31.2697 18.4085 33.1143 16.43L39.4897 18.5549L24.9999 23.3849ZM41.6014 42.4604L25.9764 47.6687V27.198L29.4385 31.5251C29.6903 31.8399 30.1096 31.9674 30.4938 31.8467L41.6014 28.3562V42.4604ZM30.546 29.7832L26.6374 24.8978L42.3142 19.6722L47.1935 24.5515L30.546 29.7832Z" fill="#89909F"/>
<path d="M21.4366 38.3006L19.2648 37.4861C18.7598 37.2968 18.1969 37.5526 18.0074 38.0576C17.8181 38.5627 18.0739 39.1256 18.5789 39.3149L20.7508 40.1294C21.2568 40.319 21.819 40.062 22.0081 39.5579C22.1975 39.0529 21.9416 38.4899 21.4366 38.3006Z" fill="#89909F"/>
<path d="M21.4365 42.4725L15.5772 40.2752C15.0722 40.0858 14.5093 40.3417 14.3198 40.8467C14.1304 41.3517 14.3863 41.9147 14.8913 42.104L20.7507 44.3013C20.8637 44.3437 20.9795 44.3638 21.0935 44.3638C21.4889 44.3638 21.8609 44.1219 22.008 43.7298C22.1975 43.2247 21.9416 42.6618 21.4365 42.4725Z" fill="#89909F"/>
<path d="M31.5499 6.14554C31.1686 5.7641 30.5502 5.7642 30.1688 6.14554L24.9999 11.3145L23.7373 10.0519C23.356 9.67054 22.7376 9.67054 22.3561 10.0519C21.9747 10.4332 21.9748 11.0516 22.3561 11.433L24.3094 13.3861C24.6907 13.7674 25.3091 13.7674 25.6905 13.3861L31.5499 7.5267C31.9313 7.14535 31.9313 6.52699 31.5499 6.14554Z" fill="#89909F"/>
</g>
<defs>
<clipPath id="clip0">
<rect width="50" height="50" fill="white"/>
</clipPath>
</defs>
</svg>
