<svg width="60" height="60" viewBox="0 0 60 60" fill="none" xmlns="http://www.w3.org/2000/svg">
<path d="M30 14.2918C30.4854 14.2918 30.8789 13.8983 30.8789 13.4129V12.1229C30.8789 11.6375 30.4854 11.244 30 11.244C29.5146 11.244 29.1211 11.6375 29.1211 12.1229V13.4129C29.1211 13.8983 29.5146 14.2918 30 14.2918Z" fill="white"/>
<path d="M43.2149 16.7574C42.8717 16.4141 42.3152 16.414 41.972 16.7574L41.0598 17.6694C40.7165 18.0127 40.7165 18.5692 41.0597 18.9124C41.2314 19.084 41.4563 19.1699 41.6813 19.1699C41.9062 19.1699 42.1312 19.0841 42.3027 18.9125L43.2149 18.0004C43.5581 17.6571 43.5581 17.1006 43.2149 16.7574Z" fill="white"/>
<path d="M46.4916 29.1212C46.0061 29.1212 45.6127 29.5147 45.6127 30.0001C45.6127 30.4855 46.0061 30.879 46.4916 30.879H47.7816C48.2671 30.879 48.6605 30.4856 48.6605 30.0001C48.6605 29.5146 48.2671 29.1212 47.7816 29.1212H46.4916Z" fill="white"/>
<path d="M42.235 41.0597C41.8916 40.7166 41.3352 40.7166 40.992 41.0597C40.6487 41.403 40.6487 41.9594 40.992 42.3027L41.9041 43.2148C42.0757 43.3863 42.3007 43.4721 42.5256 43.4721C42.7505 43.4721 42.9755 43.3863 43.1472 43.2148C43.4904 42.8714 43.4904 42.315 43.1472 41.9718L42.235 41.0597Z" fill="white"/>
<path d="M29.0254 46.4917V47.7817C29.0254 48.2672 29.4189 48.6606 29.9043 48.6606C30.3897 48.6606 30.7832 48.2672 30.7832 47.7817V46.4917C30.7832 46.0062 30.3898 45.6128 29.9043 45.6128C29.4188 45.6128 29.0254 46.0062 29.0254 46.4917Z" fill="white"/>
<path d="M17.6017 40.992L16.6895 41.904C16.3463 42.2473 16.3463 42.8038 16.6895 43.1469C16.8611 43.3186 17.0861 43.4044 17.3109 43.4044C17.5358 43.4044 17.7608 43.3186 17.9324 43.147L18.8446 42.235C19.1878 41.8917 19.1878 41.3352 18.8446 40.9921C18.5014 40.6488 17.9449 40.649 17.6017 40.992Z" fill="white"/>
<path d="M12.1228 29.0255C11.6374 29.0255 11.2439 29.419 11.2439 29.9044C11.2439 30.3899 11.6374 30.7833 12.1228 30.7833H13.4128C13.8982 30.7833 14.2917 30.3899 14.2917 29.9044C14.2917 29.419 13.8982 29.0255 13.4128 29.0255H12.1228Z" fill="white"/>
<path d="M18.9124 17.6018L18.0002 16.6896C17.6569 16.3464 17.1006 16.3465 16.7572 16.6896C16.414 17.0328 16.4141 17.5894 16.7572 17.9326L17.6694 18.8447C17.8411 19.0164 18.066 19.1021 18.2908 19.1021C18.5157 19.1021 18.7407 19.0164 18.9124 18.8447C19.2556 18.5014 19.2555 17.945 18.9124 17.6018Z" fill="white"/>
<path d="M32.3552 32.1994L38.6156 35.4185C39.0499 35.6419 39.5784 35.468 39.7992 35.0388C40.0212 34.6071 39.8511 34.0773 39.4195 33.8552L33.1612 30.6372C33.2027 30.431 33.2247 30.218 33.2247 29.9999C33.2247 28.5265 32.2311 27.2816 30.879 26.8979V17.9393C30.879 17.4539 30.4855 17.0604 30.0001 17.0604C29.5147 17.0604 29.1212 17.4539 29.1212 17.9393V26.8979C28.0487 27.2023 27.2025 28.0485 26.8981 29.121H22.5356C22.0502 29.121 21.6567 29.5145 21.6567 29.9999C21.6567 30.4853 22.0502 30.8788 22.5356 30.8788H26.8981C27.2818 32.2309 28.5267 33.2247 30.0001 33.2247C30.9287 33.2248 31.7663 32.8297 32.3552 32.1994ZM30 31.467C29.1911 31.467 28.533 30.8089 28.533 30C28.533 29.1912 29.191 28.533 30 28.533C30.8088 28.533 31.4668 29.1911 31.4668 30C31.4669 30.8089 30.8088 31.467 30 31.467Z" fill="white"/>
<path d="M52.6926 29.1195C53.1766 29.0824 53.5389 28.6601 53.5019 28.176C53.0496 22.2705 50.4044 16.7886 46.0532 12.7399C41.6793 8.67 35.9782 6.42856 30 6.42856C17.0028 6.42856 6.42859 17.0026 6.42859 30C6.42859 42.9974 17.0028 53.5714 30 53.5714C42.2925 53.5714 52.5614 44.102 53.5017 31.8243C53.5387 31.3403 53.1766 30.9179 52.6925 30.8808C52.2105 30.8446 51.7861 31.206 51.749 31.6901C50.881 43.0266 41.3992 51.8136 30 51.8136C17.9719 51.8136 8.1864 42.0281 8.1864 30C8.1864 17.9719 17.9719 8.18637 30 8.18637C35.5322 8.18637 40.8081 10.2606 44.8558 14.0269C48.8826 17.7738 51.3307 22.8464 51.749 28.3103C51.7861 28.794 52.2068 29.1573 52.6926 29.1195Z" fill="white"/>
<path d="M51.2133 8.78684C45.547 3.12047 38.0134 0 30 0C24.2411 0 18.6465 1.63641 13.821 4.7325C13.4125 4.99465 13.2938 5.53828 13.5559 5.94691C13.8181 6.35531 14.3616 6.47402 14.7703 6.21199C19.3119 3.29801 24.5783 1.75781 30 1.75781C37.5438 1.75781 44.636 4.69547 49.9703 10.0297C55.3046 15.364 58.2422 22.4562 58.2422 30C58.2422 45.6086 45.6108 58.2422 30 58.2422C27.2106 58.2422 24.4518 57.8348 21.8002 57.0318C21.3355 56.8909 20.8449 57.1534 20.7042 57.6182C20.5635 58.0827 20.826 58.5732 21.2905 58.7141C24.1076 59.5673 27.0379 60 30 60C46.5802 60 60 46.5824 60 30C60 21.9867 56.8794 14.4531 51.2133 8.78684Z" fill="white"/>
<path d="M18.6042 55.8467C8.37047 51.3279 1.75781 41.1824 1.75781 30C1.75781 21.5498 5.49738 13.6121 12.0176 8.22198C12.3916 7.91272 12.4443 7.35878 12.1349 6.9846C11.8257 6.61065 11.2718 6.55804 10.8975 6.86718C3.97207 12.5924 0 21.0239 0 30C0 41.8781 7.02387 52.6548 17.8941 57.4549C18.0095 57.5059 18.1301 57.53 18.2487 57.53C18.5862 57.53 18.908 57.3346 19.0532 57.0058C19.2492 56.5618 19.0482 56.0429 18.6042 55.8467Z" fill="white"/>
</svg>
