<svg width="20" height="20" viewBox="0 0 20 20" fill="none" xmlns="http://www.w3.org/2000/svg">
<g clip-path="url(#clip0)">
<path d="M10 14.3075C9.4528 14.3085 8.9108 14.2014 8.40512 13.9923C7.89944 13.7832 7.44005 13.4763 7.05333 13.0892L0.244167 6.27918C0.0923687 6.12201 0.00837337 5.91151 0.0102721 5.69301C0.0121707 5.47451 0.0998115 5.2655 0.254318 5.11099C0.408825 4.95649 0.617836 4.86885 0.836333 4.86695C1.05483 4.86505 1.26533 4.94904 1.4225 5.10084L8.23167 11.9108C8.7011 12.379 9.33702 12.6419 10 12.6419C10.663 12.6419 11.2989 12.379 11.7683 11.9108L18.5775 5.10084C18.6544 5.02125 18.7463 4.95777 18.848 4.91409C18.9497 4.87042 19.059 4.84743 19.1697 4.84647C19.2803 4.84551 19.39 4.86659 19.4925 4.90849C19.5949 4.95039 19.6879 5.01227 19.7662 5.09051C19.8444 5.16876 19.9063 5.2618 19.9482 5.36421C19.9901 5.46663 20.0112 5.57636 20.0102 5.68701C20.0092 5.79766 19.9863 5.90701 19.9426 6.00868C19.8989 6.11035 19.8354 6.2023 19.7558 6.27918L12.9467 13.0892C12.56 13.4763 12.1006 13.7832 11.5949 13.9923C11.0892 14.2014 10.5472 14.3085 10 14.3075Z" fill="#2861CF"/>
</g>
<defs>
<clipPath id="clip0">
<rect width="20" height="20" fill="white"/>
</clipPath>
</defs>
</svg>
