<svg width="29" height="36" viewBox="0 0 29 36" fill="none" xmlns="http://www.w3.org/2000/svg">
<path d="M14.2321 35.9439C11.5873 35.9439 9.02413 35.5703 6.54259 34.8229C4.0937 34.0756 2.15092 33.0846 0.714233 31.8498L2.91823 26.9272C4.32226 28.0319 6.03648 28.9418 8.0609 29.6566C10.118 30.3389 12.175 30.6801 14.2321 30.6801C16.7789 30.6801 18.6727 30.2739 19.9135 29.4616C21.1869 28.6493 21.8237 27.5771 21.8237 26.2448C21.8237 25.2701 21.4644 24.4739 20.7461 23.8566C20.0605 23.2067 19.1789 22.7032 18.1013 22.3457C17.0238 21.9882 15.5545 21.5822 13.6933 21.1272C11.0812 20.5099 8.95883 19.8925 7.32623 19.2751C5.7263 18.6578 4.33859 17.6992 3.16312 16.3995C2.0203 15.0673 1.4489 13.2802 1.4489 11.0382C1.4489 9.15369 1.95501 7.44782 2.96721 5.92062C4.01207 4.36096 5.56303 3.1262 7.6201 2.21644C9.70982 1.30669 12.2566 0.851746 15.2606 0.851746C17.3503 0.851746 19.4074 1.11173 21.4318 1.63157C23.4563 2.15141 25.2031 2.89879 26.6725 3.87357L24.6644 8.79623C23.1624 7.91892 21.5951 7.25286 19.9625 6.79792C18.3299 6.34298 16.7463 6.11557 15.2117 6.11557C12.6974 6.11557 10.82 6.53794 9.57921 7.38279C8.3711 8.22765 7.76703 9.34864 7.76703 10.7458C7.76703 11.7206 8.10988 12.5167 8.79557 13.134C9.5139 13.7513 10.4118 14.2387 11.4893 14.5962C12.5669 14.9536 14.0362 15.3597 15.8973 15.8147C18.4442 16.3995 20.5339 17.0169 22.1665 17.6667C23.7991 18.2841 25.1868 19.2427 26.3296 20.5424C27.5051 21.842 28.0928 23.5966 28.0928 25.8062C28.0928 27.6907 27.5704 29.3966 26.5255 30.9238C25.5134 32.451 23.9623 33.6695 21.8726 34.5792C19.783 35.489 17.2361 35.9439 14.2321 35.9439Z" fill="url(#paint0_linear)"/>
<defs>
<linearGradient id="paint0_linear" x1="14.4667" y1="-12" x2="14.4667" y2="47" gradientUnits="userSpaceOnUse">
<stop stop-color="#4F84EB"/>
<stop offset="1" stop-color="#2861CF"/>
</linearGradient>
</defs>
</svg>
