<svg width="116" height="59" viewBox="0 0 116 59" fill="none" xmlns="http://www.w3.org/2000/svg">
<path d="M15.2321 47.9437C12.5873 47.9437 10.0241 47.5701 7.54259 46.8227C5.0937 46.0754 3.15092 45.0844 1.71423 43.8497L3.91823 38.927C5.32226 40.0317 7.03648 40.9416 9.0609 41.6564C11.118 42.3387 13.175 42.6799 15.2321 42.6799C17.7789 42.6799 19.6727 42.2737 20.9135 41.4614C22.1869 40.6492 22.8237 39.5769 22.8237 38.2447C22.8237 37.2699 22.4644 36.4738 21.7461 35.8564C21.0605 35.2065 20.1789 34.703 19.1013 34.3455C18.0238 33.9881 16.5545 33.582 14.6933 33.127C12.0812 32.5097 9.95883 31.8923 8.32623 31.275C6.7263 30.6576 5.33859 29.699 4.16312 28.3994C3.0203 27.0671 2.4489 25.28 2.4489 23.038C2.4489 21.1535 2.95501 19.4476 3.96721 17.9204C5.01207 16.3608 6.56303 15.126 8.6201 14.2163C10.7098 13.3065 13.2566 12.8516 16.2606 12.8516C18.3503 12.8516 20.4074 13.1115 22.4318 13.6314C24.4563 14.1512 26.2031 14.8986 27.6725 15.8734L25.6644 20.796C24.1624 19.9187 22.5951 19.2527 20.9625 18.7977C19.3299 18.3428 17.7463 18.1154 16.2117 18.1154C13.6974 18.1154 11.82 18.5378 10.5792 19.3826C9.3711 20.2275 8.76703 21.3485 8.76703 22.7456C8.76703 23.7204 9.10988 24.5165 9.79557 25.1338C10.5139 25.7511 11.4118 26.2385 12.4893 26.596C13.5669 26.9535 15.0362 27.3595 16.8973 27.8145C19.4442 28.3994 21.5339 29.0167 23.1665 29.6666C24.7991 30.2839 26.1868 31.2425 27.3296 32.5422C28.5051 33.8418 29.0928 35.5965 29.0928 37.806C29.0928 39.6905 28.5704 41.3964 27.5255 42.9236C26.5134 44.4508 24.9623 45.6693 22.8726 46.5791C20.783 47.4888 18.2361 47.9437 15.2321 47.9437Z" fill="url(#paint0_linear)"/>
<path d="M40.0973 29.6849C37.932 29.6849 36.2461 29.0693 35.0397 27.838C33.8333 26.6067 33.2301 24.8367 33.2301 22.528V13.3394H35.5501V22.4356C35.5501 25.8987 37.0736 27.6302 40.1205 27.6302C41.6053 27.6302 42.7421 27.2069 43.5309 26.3604C44.3197 25.4985 44.7141 24.1902 44.7141 22.4356V13.3394H46.9645V22.528C46.9645 24.852 46.3613 26.6297 45.1549 27.8611C43.9485 29.077 42.2626 29.6849 40.0973 29.6849ZM58.0545 13.3394C60.158 13.3394 61.8129 13.8396 63.0193 14.84C64.2257 15.8404 64.8289 17.218 64.8289 18.9726C64.8289 20.7272 64.2257 22.1047 63.0193 23.1051C61.8129 24.1056 60.158 24.6058 58.0545 24.6058H54.0409V29.5002H51.7209V13.3394H58.0545ZM57.9849 22.5972C59.4542 22.5972 60.5756 22.2894 61.3489 21.6737C62.1222 21.0427 62.5089 20.1423 62.5089 18.9726C62.5089 17.8028 62.1222 16.9101 61.3489 16.2945C60.5756 15.6634 59.4542 15.3479 57.9849 15.3479H54.0409V22.5972H57.9849ZM80.0228 27.4917V29.5002H68.2372V13.3394H79.698V15.3479H70.5572V20.3116H78.7004V22.274H70.5572V27.4917H80.0228ZM94.637 29.5002L91.1338 24.5365C90.7007 24.5673 90.3605 24.5827 90.113 24.5827H86.0994V29.5002H83.7794V13.3394H90.113C92.2165 13.3394 93.8714 13.8396 95.0778 14.84C96.2842 15.8404 96.8874 17.218 96.8874 18.9726C96.8874 20.2193 96.5781 21.2813 95.9594 22.1586C95.3408 23.0359 94.4591 23.6746 93.3146 24.0748L97.1658 29.5002H94.637ZM90.0434 22.6203C91.5127 22.6203 92.6341 22.3048 93.4074 21.6737C94.1807 21.0427 94.5674 20.1423 94.5674 18.9726C94.5674 17.8028 94.1807 16.9101 93.4074 16.2945C92.6341 15.6634 91.5127 15.3479 90.0434 15.3479H86.0994V22.6203H90.0434ZM111.563 21.1197C112.506 21.3813 113.249 21.8584 113.79 22.5511C114.331 23.2283 114.602 24.0902 114.602 25.1368C114.602 26.5374 114.069 27.6148 113.001 28.369C111.95 29.1231 110.411 29.5002 108.385 29.5002H100.636V13.3394H107.921C109.777 13.3394 111.207 13.7087 112.213 14.4475C113.233 15.1863 113.744 16.2098 113.744 17.5181C113.744 18.3646 113.543 19.0957 113.141 19.7114C112.754 20.327 112.228 20.7964 111.563 21.1197ZM102.956 15.2094V20.3809H107.712C108.903 20.3809 109.815 20.1654 110.449 19.7344C111.099 19.2881 111.424 18.6417 111.424 17.7951C111.424 16.9486 111.099 16.3099 110.449 15.8789C109.815 15.4326 108.903 15.2094 107.712 15.2094H102.956ZM108.292 27.6302C109.606 27.6302 110.596 27.4147 111.261 26.9837C111.926 26.5528 112.259 25.8756 112.259 24.9521C112.259 23.1513 110.937 22.2509 108.292 22.2509H102.956V27.6302H108.292Z" fill="white"/>
<path d="M33.8462 36.6827H35.3929V46.1176H41.2547V47.4566H33.8462V36.6827ZM47.7207 47.5798C46.6277 47.5798 45.643 47.3438 44.7666 46.8718C43.8901 46.3895 43.1993 45.7277 42.694 44.8863C42.1991 44.0449 41.9516 43.106 41.9516 42.0697C41.9516 41.0333 42.1991 40.0944 42.694 39.2531C43.1993 38.4117 43.8901 37.755 44.7666 37.283C45.643 36.8007 46.6277 36.5596 47.7207 36.5596C48.8034 36.5596 49.7829 36.8007 50.6594 37.283C51.5358 37.755 52.2215 38.4117 52.7164 39.2531C53.2114 40.0842 53.4588 41.0231 53.4588 42.0697C53.4588 43.1163 53.2114 44.0603 52.7164 44.9017C52.2215 45.7328 51.5358 46.3895 50.6594 46.8718C49.7829 47.3438 48.8034 47.5798 47.7207 47.5798ZM47.7207 46.2099C48.5146 46.2099 49.2261 46.0304 49.8551 45.6712C50.4944 45.3121 50.9945 44.8196 51.3554 44.1937C51.7266 43.5575 51.9122 42.8495 51.9122 42.0697C51.9122 41.2898 51.7266 40.587 51.3554 39.9611C50.9945 39.3249 50.4944 38.8272 49.8551 38.4681C49.2261 38.109 48.5146 37.9294 47.7207 37.9294C46.9267 37.9294 46.205 38.109 45.5554 38.4681C44.9161 38.8272 44.4108 39.3249 44.0396 39.9611C43.6787 40.587 43.4983 41.2898 43.4983 42.0697C43.4983 42.8495 43.6787 43.5575 44.0396 44.1937C44.4108 44.8196 44.9161 45.3121 45.5554 45.6712C46.205 46.0304 46.9267 46.2099 47.7207 46.2099ZM63.3241 42.0081H64.8089V46.2099C64.2727 46.6511 63.6489 46.9898 62.9374 47.2258C62.226 47.4618 61.4836 47.5798 60.7102 47.5798C59.6173 47.5798 58.6326 47.3438 57.7561 46.8718C56.8797 46.3895 56.1888 45.7328 55.6836 44.9017C55.1886 44.0603 54.9412 43.1163 54.9412 42.0697C54.9412 41.0231 55.1886 40.0791 55.6836 39.2377C56.1888 38.3963 56.8797 37.7396 57.7561 37.2676C58.6429 36.7956 59.6379 36.5596 60.7412 36.5596C61.6073 36.5596 62.391 36.7032 63.0921 36.9905C63.8036 37.2676 64.4068 37.678 64.9017 38.2218L63.9428 39.1761C63.0766 38.345 62.0301 37.9294 60.803 37.9294C59.9782 37.9294 59.2358 38.109 58.5758 38.4681C57.9262 38.817 57.4158 39.3095 57.0446 39.9457C56.6734 40.5716 56.4878 41.2796 56.4878 42.0697C56.4878 42.8495 56.6734 43.5575 57.0446 44.1937C57.4158 44.8196 57.9262 45.3121 58.5758 45.6712C59.2358 46.0304 59.973 46.2099 60.7876 46.2099C61.7568 46.2099 62.6023 45.9791 63.3241 45.5173V42.0081ZM67.7701 36.6827H69.3168V47.4566H67.7701V36.6827ZM75.7134 47.5798C74.8988 47.5798 74.11 47.4566 73.347 47.2104C72.5943 46.9538 72.0014 46.6255 71.5684 46.2253L72.1406 45.0248C72.5531 45.3942 73.0789 45.6969 73.7182 45.9329C74.3678 46.1586 75.0329 46.2715 75.7134 46.2715C76.6105 46.2715 77.2807 46.1227 77.7241 45.8251C78.1675 45.5173 78.3892 45.112 78.3892 44.6092C78.3892 44.2398 78.2654 43.9423 78.018 43.7165C77.7808 43.4805 77.4818 43.301 77.1209 43.1778C76.7703 43.0547 76.2702 42.9162 75.6206 42.7623C74.806 42.5673 74.1461 42.3724 73.6409 42.1774C73.146 41.9824 72.718 41.6849 72.3572 41.2847C72.0066 40.8743 71.8313 40.3253 71.8313 39.6378C71.8313 39.0632 71.9808 38.545 72.2798 38.0833C72.5892 37.6216 73.0532 37.2522 73.6718 36.9751C74.2905 36.6981 75.0587 36.5596 75.9764 36.5596C76.6157 36.5596 77.2446 36.6417 77.8633 36.8058C78.482 36.97 79.013 37.206 79.4564 37.5138L78.946 38.7451C78.4923 38.4578 78.0076 38.2424 77.4921 38.0987C76.9765 37.9448 76.4713 37.8678 75.9764 37.8678C75.0999 37.8678 74.44 38.0269 73.9966 38.345C73.5636 38.6631 73.347 39.0735 73.347 39.5763C73.347 39.9457 73.4708 40.2484 73.7182 40.4844C73.9657 40.7101 74.2699 40.8897 74.6308 41.0231C75.002 41.1462 75.502 41.2796 76.131 41.4232C76.9456 41.6182 77.6004 41.8131 78.0953 42.0081C78.5902 42.2031 79.013 42.5006 79.3636 42.9008C79.7244 43.301 79.9049 43.8397 79.9049 44.5169C79.9049 45.0812 79.7502 45.5994 79.4409 46.0714C79.1316 46.5331 78.6624 46.9025 78.0334 47.1796C77.4044 47.4464 76.6311 47.5798 75.7134 47.5798ZM84.1632 38.0217H80.4513V36.6827H89.4065V38.0217H85.6944V47.4566H84.1632V38.0217ZM91.091 36.6827H92.6377V47.4566H91.091V36.6827ZM100.72 47.5798C99.6374 47.5798 98.6578 47.3438 97.7814 46.8718C96.9153 46.3895 96.2347 45.7328 95.7398 44.9017C95.2449 44.0603 94.9974 43.1163 94.9974 42.0697C94.9974 41.0231 95.2449 40.0842 95.7398 39.2531C96.2347 38.4117 96.9204 37.755 97.7969 37.283C98.6733 36.8007 99.6529 36.5596 100.736 36.5596C101.581 36.5596 102.354 36.7032 103.056 36.9905C103.757 37.2676 104.355 37.6831 104.85 38.2372L103.844 39.2069C103.03 38.3552 102.014 37.9294 100.797 37.9294C99.9931 37.9294 99.2662 38.109 98.6166 38.4681C97.967 38.8272 97.4566 39.3249 97.0854 39.9611C96.7245 40.587 96.5441 41.2898 96.5441 42.0697C96.5441 42.8495 96.7245 43.5575 97.0854 44.1937C97.4566 44.8196 97.967 45.3121 98.6166 45.6712C99.2662 46.0304 99.9931 46.2099 100.797 46.2099C102.004 46.2099 103.019 45.779 103.844 44.9171L104.85 45.8867C104.355 46.4408 103.752 46.8615 103.04 47.1488C102.339 47.4361 101.566 47.5798 100.72 47.5798ZM110.166 47.5798C109.351 47.5798 108.563 47.4566 107.8 47.2104C107.047 46.9538 106.454 46.6255 106.021 46.2253L106.593 45.0248C107.006 45.3942 107.531 45.6969 108.171 45.9329C108.82 46.1586 109.485 46.2715 110.166 46.2715C111.063 46.2715 111.733 46.1227 112.177 45.8251C112.62 45.5173 112.842 45.112 112.842 44.6092C112.842 44.2398 112.718 43.9423 112.47 43.7165C112.233 43.4805 111.934 43.301 111.573 43.1778C111.223 43.0547 110.723 42.9162 110.073 42.7623C109.259 42.5673 108.599 42.3724 108.093 42.1774C107.598 41.9824 107.171 41.6849 106.81 41.2847C106.459 40.8743 106.284 40.3253 106.284 39.6378C106.284 39.0632 106.433 38.545 106.732 38.0833C107.042 37.6216 107.506 37.2522 108.124 36.9751C108.743 36.6981 109.511 36.5596 110.429 36.5596C111.068 36.5596 111.697 36.6417 112.316 36.8058C112.934 36.97 113.465 37.206 113.909 37.5138L113.398 38.7451C112.945 38.4578 112.46 38.2424 111.945 38.0987C111.429 37.9448 110.924 37.8678 110.429 37.8678C109.552 37.8678 108.893 38.0269 108.449 38.345C108.016 38.6631 107.8 39.0735 107.8 39.5763C107.8 39.9457 107.923 40.2484 108.171 40.4844C108.418 40.7101 108.722 40.8897 109.083 41.0231C109.454 41.1462 109.955 41.2796 110.584 41.4232C111.398 41.6182 112.053 41.8131 112.548 42.0081C113.043 42.2031 113.465 42.5006 113.816 42.9008C114.177 43.301 114.357 43.8397 114.357 44.5169C114.357 45.0812 114.203 45.5994 113.893 46.0714C113.584 46.5331 113.115 46.9025 112.486 47.1796C111.857 47.4464 111.084 47.5798 110.166 47.5798Z" fill="white"/>
<defs>
<linearGradient id="paint0_linear" x1="15.4667" y1="-0.000181217" x2="15.4667" y2="58.9998" gradientUnits="userSpaceOnUse">
<stop stop-color="#FA9600"/>
<stop offset="1" stop-color="#F97700"/>
</linearGradient>
</defs>
</svg>
