<svg width="116" height="59" viewBox="0 0 116 59" fill="none" xmlns="http://www.w3.org/2000/svg">
<path d="M15.2321 47.9439C12.5873 47.9439 10.0241 47.5703 7.54259 46.8229C5.0937 46.0756 3.15092 45.0846 1.71423 43.8498L3.91823 38.9272C5.32226 40.0319 7.03648 40.9418 9.0609 41.6566C11.118 42.3389 13.175 42.6801 15.2321 42.6801C17.7789 42.6801 19.6727 42.2739 20.9135 41.4616C22.1869 40.6493 22.8237 39.5771 22.8237 38.2448C22.8237 37.2701 22.4644 36.4739 21.7461 35.8566C21.0605 35.2067 20.1789 34.7032 19.1013 34.3457C18.0238 33.9882 16.5545 33.5822 14.6933 33.1272C12.0812 32.5099 9.95883 31.8925 8.32623 31.2751C6.7263 30.6578 5.33859 29.6992 4.16312 28.3995C3.0203 27.0673 2.4489 25.2802 2.4489 23.0382C2.4489 21.1537 2.95501 19.4478 3.96721 17.9206C5.01207 16.361 6.56303 15.1262 8.6201 14.2164C10.7098 13.3067 13.2566 12.8517 16.2606 12.8517C18.3503 12.8517 20.4074 13.1117 22.4318 13.6316C24.4563 14.1514 26.2031 14.8988 27.6725 15.8736L25.6644 20.7962C24.1624 19.9189 22.5951 19.2529 20.9625 18.7979C19.3299 18.343 17.7463 18.1156 16.2117 18.1156C13.6974 18.1156 11.82 18.5379 10.5792 19.3828C9.3711 20.2276 8.76703 21.3486 8.76703 22.7458C8.76703 23.7206 9.10988 24.5167 9.79557 25.134C10.5139 25.7513 11.4118 26.2387 12.4893 26.5962C13.5669 26.9536 15.0362 27.3597 16.8973 27.8147C19.4442 28.3995 21.5339 29.0169 23.1665 29.6667C24.7991 30.2841 26.1868 31.2427 27.3296 32.5424C28.5051 33.842 29.0928 35.5966 29.0928 37.8062C29.0928 39.6907 28.5704 41.3966 27.5255 42.9238C26.5134 44.451 24.9623 45.6695 22.8726 46.5792C20.783 47.489 18.2361 47.9439 15.2321 47.9439Z" fill="url(#paint0_linear)"/>
<path d="M40.0973 29.6847C37.932 29.6847 36.2461 29.0691 35.0397 27.8378C33.8333 26.6064 33.2301 24.8364 33.2301 22.5277V13.3391H35.5501V22.4354C35.5501 25.8984 37.0736 27.63 40.1205 27.63C41.6053 27.63 42.7421 27.2067 43.5309 26.3602C44.3197 25.4983 44.7141 24.19 44.7141 22.4354V13.3391H46.9645V22.5277C46.9645 24.8518 46.3613 26.6295 45.1549 27.8608C43.9485 29.0768 42.2626 29.6847 40.0973 29.6847ZM58.0545 13.3391C60.158 13.3391 61.8129 13.8394 63.0193 14.8398C64.2257 15.8402 64.8289 17.2178 64.8289 18.9724C64.8289 20.727 64.2257 22.1045 63.0193 23.1049C61.8129 24.1054 60.158 24.6056 58.0545 24.6056H54.0409V29.5H51.7209V13.3391H58.0545ZM57.9849 22.597C59.4542 22.597 60.5756 22.2892 61.3489 21.6735C62.1222 21.0425 62.5089 20.1421 62.5089 18.9724C62.5089 17.8026 62.1222 16.9099 61.3489 16.2943C60.5756 15.6632 59.4542 15.3477 57.9849 15.3477H54.0409V22.597H57.9849ZM80.0228 27.4914V29.5H68.2372V13.3391H79.698V15.3477H70.5572V20.3114H78.7004V22.2738H70.5572V27.4914H80.0228ZM94.637 29.5L91.1338 24.5363C90.7007 24.5671 90.3605 24.5825 90.113 24.5825H86.0994V29.5H83.7794V13.3391H90.113C92.2165 13.3391 93.8714 13.8394 95.0778 14.8398C96.2842 15.8402 96.8874 17.2178 96.8874 18.9724C96.8874 20.2191 96.5781 21.2811 95.9594 22.1584C95.3408 23.0357 94.4591 23.6744 93.3146 24.0746L97.1658 29.5H94.637ZM90.0434 22.6201C91.5127 22.6201 92.6341 22.3046 93.4074 21.6735C94.1807 21.0425 94.5674 20.1421 94.5674 18.9724C94.5674 17.8026 94.1807 16.9099 93.4074 16.2943C92.6341 15.6632 91.5127 15.3477 90.0434 15.3477H86.0994V22.6201H90.0434ZM111.563 21.1194C112.506 21.3811 113.249 21.8582 113.79 22.5508C114.331 23.2281 114.602 24.09 114.602 25.1366C114.602 26.5372 114.069 27.6146 113.001 28.3688C111.95 29.1229 110.411 29.5 108.385 29.5H100.636V13.3391H107.921C109.777 13.3391 111.207 13.7085 112.213 14.4473C113.233 15.1861 113.744 16.2096 113.744 17.5179C113.744 18.3644 113.543 19.0955 113.141 19.7111C112.754 20.3268 112.228 20.7962 111.563 21.1194ZM102.956 15.2092V20.3807H107.712C108.903 20.3807 109.815 20.1652 110.449 19.7342C111.099 19.2879 111.424 18.6414 111.424 17.7949C111.424 16.9484 111.099 16.3097 110.449 15.8787C109.815 15.4324 108.903 15.2092 107.712 15.2092H102.956ZM108.292 27.63C109.606 27.63 110.596 27.4145 111.261 26.9835C111.926 26.5526 112.259 25.8754 112.259 24.9519C112.259 23.1511 110.937 22.2507 108.292 22.2507H102.956V27.63H108.292Z" fill="#22262D"/>
<path d="M33.8462 36.6826H35.3929V46.1175H41.2547V47.4565H33.8462V36.6826ZM47.7207 47.5797C46.6277 47.5797 45.643 47.3437 44.7666 46.8717C43.8901 46.3894 43.1993 45.7276 42.694 44.8862C42.1991 44.0448 41.9516 43.1059 41.9516 42.0696C41.9516 41.0332 42.1991 40.0944 42.694 39.253C43.1993 38.4116 43.8901 37.7549 44.7666 37.2829C45.643 36.8006 46.6277 36.5595 47.7207 36.5595C48.8034 36.5595 49.7829 36.8006 50.6594 37.2829C51.5358 37.7549 52.2215 38.4116 52.7164 39.253C53.2114 40.0841 53.4588 41.023 53.4588 42.0696C53.4588 43.1162 53.2114 44.0602 52.7164 44.9016C52.2215 45.7327 51.5358 46.3894 50.6594 46.8717C49.7829 47.3437 48.8034 47.5797 47.7207 47.5797ZM47.7207 46.2098C48.5146 46.2098 49.2261 46.0303 49.8551 45.6711C50.4944 45.312 50.9945 44.8195 51.3554 44.1936C51.7266 43.5574 51.9122 42.8494 51.9122 42.0696C51.9122 41.2897 51.7266 40.5869 51.3554 39.961C50.9945 39.3248 50.4944 38.8271 49.8551 38.468C49.2261 38.1089 48.5146 37.9293 47.7207 37.9293C46.9267 37.9293 46.205 38.1089 45.5554 38.468C44.9161 38.8271 44.4108 39.3248 44.0396 39.961C43.6787 40.5869 43.4983 41.2897 43.4983 42.0696C43.4983 42.8494 43.6787 43.5574 44.0396 44.1936C44.4108 44.8195 44.9161 45.312 45.5554 45.6711C46.205 46.0303 46.9267 46.2098 47.7207 46.2098ZM63.3241 42.008H64.8089V46.2098C64.2727 46.6511 63.6489 46.9897 62.9374 47.2257C62.226 47.4617 61.4836 47.5797 60.7102 47.5797C59.6173 47.5797 58.6326 47.3437 57.7561 46.8717C56.8797 46.3894 56.1888 45.7327 55.6836 44.9016C55.1886 44.0602 54.9412 43.1162 54.9412 42.0696C54.9412 41.023 55.1886 40.079 55.6836 39.2376C56.1888 38.3962 56.8797 37.7395 57.7561 37.2675C58.6429 36.7955 59.6379 36.5595 60.7412 36.5595C61.6073 36.5595 62.391 36.7031 63.0921 36.9904C63.8036 37.2675 64.4068 37.6779 64.9017 38.2217L63.9428 39.176C63.0766 38.3449 62.0301 37.9293 60.803 37.9293C59.9782 37.9293 59.2358 38.1089 58.5758 38.468C57.9262 38.8169 57.4158 39.3094 57.0446 39.9456C56.6734 40.5715 56.4878 41.2795 56.4878 42.0696C56.4878 42.8494 56.6734 43.5574 57.0446 44.1936C57.4158 44.8195 57.9262 45.312 58.5758 45.6711C59.2358 46.0303 59.973 46.2098 60.7876 46.2098C61.7568 46.2098 62.6023 45.979 63.3241 45.5172V42.008ZM67.7701 36.6826H69.3168V47.4565H67.7701V36.6826ZM75.7134 47.5797C74.8988 47.5797 74.11 47.4565 73.347 47.2103C72.5943 46.9537 72.0014 46.6254 71.5684 46.2252L72.1406 45.0247C72.5531 45.3941 73.0789 45.6968 73.7182 45.9328C74.3678 46.1585 75.0329 46.2714 75.7134 46.2714C76.6105 46.2714 77.2807 46.1226 77.7241 45.8251C78.1675 45.5172 78.3892 45.1119 78.3892 44.6091C78.3892 44.2397 78.2654 43.9422 78.018 43.7164C77.7808 43.4804 77.4818 43.3009 77.1209 43.1777C76.7703 43.0546 76.2702 42.9161 75.6206 42.7622C74.806 42.5672 74.1461 42.3723 73.6409 42.1773C73.146 41.9824 72.718 41.6848 72.3572 41.2846C72.0066 40.8742 71.8313 40.3252 71.8313 39.6377C71.8313 39.0631 71.9808 38.545 72.2798 38.0832C72.5892 37.6215 73.0532 37.2521 73.6718 36.975C74.2905 36.698 75.0587 36.5595 75.9764 36.5595C76.6157 36.5595 77.2446 36.6416 77.8633 36.8057C78.482 36.9699 79.013 37.2059 79.4564 37.5137L78.946 38.745C78.4923 38.4577 78.0076 38.2423 77.4921 38.0986C76.9765 37.9447 76.4713 37.8677 75.9764 37.8677C75.0999 37.8677 74.44 38.0268 73.9966 38.3449C73.5636 38.663 73.347 39.0734 73.347 39.5762C73.347 39.9456 73.4708 40.2483 73.7182 40.4843C73.9657 40.71 74.2699 40.8896 74.6308 41.023C75.002 41.1461 75.502 41.2795 76.131 41.4231C76.9456 41.6181 77.6004 41.813 78.0953 42.008C78.5902 42.203 79.013 42.5005 79.3636 42.9007C79.7244 43.3009 79.9049 43.8396 79.9049 44.5168C79.9049 45.0811 79.7502 45.5993 79.4409 46.0713C79.1316 46.533 78.6624 46.9024 78.0334 47.1795C77.4044 47.4463 76.6311 47.5797 75.7134 47.5797ZM84.1632 38.0217H80.4513V36.6826H89.4065V38.0217H85.6944V47.4565H84.1632V38.0217ZM91.091 36.6826H92.6377V47.4565H91.091V36.6826ZM100.72 47.5797C99.6374 47.5797 98.6578 47.3437 97.7814 46.8717C96.9153 46.3894 96.2347 45.7327 95.7398 44.9016C95.2449 44.0602 94.9974 43.1162 94.9974 42.0696C94.9974 41.023 95.2449 40.0841 95.7398 39.253C96.2347 38.4116 96.9204 37.7549 97.7969 37.2829C98.6733 36.8006 99.6529 36.5595 100.736 36.5595C101.581 36.5595 102.354 36.7031 103.056 36.9904C103.757 37.2675 104.355 37.683 104.85 38.2371L103.844 39.2068C103.03 38.3551 102.014 37.9293 100.797 37.9293C99.9931 37.9293 99.2662 38.1089 98.6166 38.468C97.967 38.8271 97.4566 39.3248 97.0854 39.961C96.7245 40.5869 96.5441 41.2897 96.5441 42.0696C96.5441 42.8494 96.7245 43.5574 97.0854 44.1936C97.4566 44.8195 97.967 45.312 98.6166 45.6711C99.2662 46.0303 99.9931 46.2098 100.797 46.2098C102.004 46.2098 103.019 45.7789 103.844 44.917L104.85 45.8866C104.355 46.4407 103.752 46.8614 103.04 47.1487C102.339 47.436 101.566 47.5797 100.72 47.5797ZM110.166 47.5797C109.351 47.5797 108.563 47.4565 107.8 47.2103C107.047 46.9537 106.454 46.6254 106.021 46.2252L106.593 45.0247C107.006 45.3941 107.531 45.6968 108.171 45.9328C108.82 46.1585 109.485 46.2714 110.166 46.2714C111.063 46.2714 111.733 46.1226 112.177 45.8251C112.62 45.5172 112.842 45.1119 112.842 44.6091C112.842 44.2397 112.718 43.9422 112.47 43.7164C112.233 43.4804 111.934 43.3009 111.573 43.1777C111.223 43.0546 110.723 42.9161 110.073 42.7622C109.259 42.5672 108.599 42.3723 108.093 42.1773C107.598 41.9824 107.171 41.6848 106.81 41.2846C106.459 40.8742 106.284 40.3252 106.284 39.6377C106.284 39.0631 106.433 38.545 106.732 38.0832C107.042 37.6215 107.506 37.2521 108.124 36.975C108.743 36.698 109.511 36.5595 110.429 36.5595C111.068 36.5595 111.697 36.6416 112.316 36.8057C112.934 36.9699 113.465 37.2059 113.909 37.5137L113.398 38.745C112.945 38.4577 112.46 38.2423 111.945 38.0986C111.429 37.9447 110.924 37.8677 110.429 37.8677C109.552 37.8677 108.893 38.0268 108.449 38.3449C108.016 38.663 107.8 39.0734 107.8 39.5762C107.8 39.9456 107.923 40.2483 108.171 40.4843C108.418 40.71 108.722 40.8896 109.083 41.023C109.454 41.1461 109.955 41.2795 110.584 41.4231C111.398 41.6181 112.053 41.813 112.548 42.008C113.043 42.203 113.465 42.5005 113.816 42.9007C114.177 43.3009 114.357 43.8396 114.357 44.5168C114.357 45.0811 114.203 45.5993 113.893 46.0713C113.584 46.533 113.115 46.9024 112.486 47.1795C111.857 47.4463 111.084 47.5797 110.166 47.5797Z" fill="#22262D"/>
<defs>
<linearGradient id="paint0_linear" x1="15.4667" y1="1.88826e-06" x2="15.4667" y2="59" gradientUnits="userSpaceOnUse">
<stop stop-color="#4F84EB"/>
<stop offset="1" stop-color="#2861CF"/>
</linearGradient>
</defs>
</svg>
