<svg width="40" height="40" viewBox="0 0 40 40" fill="none" xmlns="http://www.w3.org/2000/svg">
<g clip-path="url(#clip0)">
<path d="M37.9487 10H2.05133C0.923047 10 0 10.923 0 12.0512V34.6154C0 35.7435 0.923047 36.6667 2.05133 36.6667H37.9487C39.0769 36.6667 40.0001 35.7437 40.0001 34.6154V12.0512C40 10.923 39.077 10 37.9487 10ZM37.1789 11.5384L21.18 23.5385C20.8923 23.7574 20.4508 23.8944 19.9999 23.8923C19.5491 23.8944 19.1077 23.7574 18.8199 23.5385L2.82102 11.5384H37.1789ZM28.6328 24.3303L37.3508 35.0996C37.3595 35.1104 37.3702 35.1186 37.3795 35.1284H2.62047C2.62969 35.1181 2.64047 35.1104 2.64922 35.0996L11.3672 24.3303C11.6343 24.0001 11.5837 23.5159 11.2528 23.2482C10.9226 22.9811 10.4384 23.0317 10.1713 23.362L1.53844 34.0262V12.4999L17.8973 24.7691C18.5123 25.2271 19.2604 25.4287 19.9998 25.4307C20.7383 25.4291 21.487 25.2276 22.1023 24.7691L38.4612 12.4999V34.026L29.8287 23.362C29.5615 23.0318 29.0769 22.981 28.7471 23.2482C28.4163 23.5153 28.3655 24.0001 28.6328 24.3303Z" fill="#4F84EB"/>
</g>
<defs>
<clipPath id="clip0">
<rect width="40" height="40" fill="white"/>
</clipPath>
</defs>
</svg>
