<svg width="50" height="50" viewBox="0 0 50 50" fill="none" xmlns="http://www.w3.org/2000/svg">
<g clip-path="url(#clip0)">
<path d="M47.4358 8.33331H2.56416C1.15381 8.33331 0 9.48712 0 10.8974V39.1026C0 40.5127 1.15381 41.6667 2.56416 41.6667H47.4359C48.8461 41.6667 50.0001 40.5129 50.0001 39.1026V10.8974C50 9.48712 48.8462 8.33331 47.4358 8.33331ZM46.4736 10.2563L26.475 25.2565C26.1154 25.5301 25.5635 25.7013 24.9999 25.6987C24.4364 25.7013 23.8846 25.5301 23.5249 25.2565L3.52627 10.2563H46.4736ZM35.791 26.2462L46.6885 39.7078C46.6994 39.7213 46.7128 39.7316 46.7244 39.7438H3.27559C3.28711 39.731 3.30059 39.7213 3.31152 39.7078L14.209 26.2462C14.5429 25.8334 14.4796 25.2282 14.066 24.8936C13.6532 24.5597 13.048 24.623 12.7141 25.0359L1.92305 38.366V11.4582L22.3717 26.7947C23.1403 27.3672 24.0755 27.6192 24.9998 27.6217C25.9229 27.6197 26.8588 27.3678 27.6279 26.7947L48.0766 11.4582V38.3658L37.2858 25.0359C36.9519 24.6231 36.3461 24.5596 35.9339 24.8936C35.5204 25.2275 35.4569 25.8334 35.791 26.2462Z" fill="#4F84EB"/>
</g>
<defs>
<clipPath id="clip0">
<rect width="50" height="50" fill="white"/>
</clipPath>
</defs>
</svg>
