<svg id="Слой_2" data-name="Слой 2" xmlns="http://www.w3.org/2000/svg" viewBox="0 0 1501.34 1013.11"><defs><style>.cls-1{fill:#e5e5e5;}.cls-1,.cls-2{stroke:#89909f;stroke-miterlimit:10;}.cls-2{fill:none;}</style></defs><title>Карта</title><path class="cls-1" d="M917.23,188.65a19.72,19.72,0,0,1-10.55-4c-7.21-5.72-4.23-13.15-10.55-18.46-6.17-5.19-17-4.81-23.74-2.64-6.19,2-9.06,5.44-13.18,4s-3.85-5.63-7.92-6.6-8.46,2.35-10.55,4c-3.78,2.91-3.66,4.75-6.59,6.59-2.18,1.37-5.78,2.57-11.87,1.32A28.36,28.36,0,0,1,817,163.6c-1.73-5.12-.71-7.23-2.64-11.87-1-2.29-3.62-8.72-7.91-9.23-5.13-.61-7.29,7.89-14.5,7.91-2.67,0-4.28-1.14-6.6,0s-3.23,3.56-4,5.28a58.56,58.56,0,0,1-7.92,13.19c-1-2.42-2.5-6-4-10.55-1.94-6-2-7.84-4-9.23-3.16-2.25-8-1-11.87,0-5.3,1.37-5.52,2.9-7.91,2.63-6-.68-6.32-10.73-11.86-11.86-6.1-1.25-10,10-17.15,9.23-6.36-.7-9.69-10.23-11.86-9.23-1.5.68.33,5.1-1.32,10.54a19.17,19.17,0,0,1-6.6,9.23c-1.88-1.57-3.88-3.82-4-6.59-.1-3.63,3.18-5.27,2.63-7.91-.79-3.89-8.89-5.22-9.23-5.27-8.59-1.34-12.73,3.9-18.46,1.31-1.55-.69-2.79-2.22-5.27-5.27-7.53-9.24-6.44-13.1-10.55-15.82-5.82-3.86-9.93,2.6-19.78,0-9.58-2.53-9.66-9.68-18.46-10.55-6.9-.69-9.12,3.48-14.51,1.32s-5.42-7-10.54-7.92c-4.18-.73-5.38,2.3-9.24,1.32-4.46-1.13-4-5.46-9.23-7.91-3-1.41-3.76-.25-10.54-1.32-5.31-.83-6.48-1.8-10.55-2.64-6.57-1.35-10.05-.19-15.83,0-12,.41-14.41-4-26.37-5.27-8.9-.94-10.47,1.19-23.74,2.64-28.16,3.08-46-3.79-50.1,3.95-1.67,3.13.27,6.06-2.64,10.55-2.47,3.82-6.43,5.66-9.23,6.6-5.87,8.39-11,10.29-14.51,10.54-9.06.67-13.55-9.15-23.73-7.91-3.9.48-9.2,2.64-10.55,6.6-1.7,5,4.54,7.77,5.27,15.82.77,8.47-5.67,10.49-5.27,18.46.36,7.21,5.76,7.82,11.87,18.46,6.63,11.57,3.33,16.22,9.23,27.69A54.64,54.64,0,0,0,409.55,219c-10.53-.23-13.64,1.91-14.5,4-1.74,4.12,5.59,8,7.91,19.78.79,4,2,10.16-1.32,14.5-2.09,2.74-4.71,3.1-6.59,6.6a13.4,13.4,0,0,0-1.32,7.91A43,43,0,0,0,374,273.05c-9.69,3.1-12.28,8.13-27.69,22.41-15.57,14.43-17.79,13.8-31.65,27.7-5.81,5.83-3.47,4-15.82,17.14-20.63,22-23.92,23.66-25.06,30.33-1.82,10.67,5.42,13.34,2.64,26.37-1.81,8.48-5.72,11.3-4,17.14,1.71,5.65,6.35,6.41,9.23,13.19A23.84,23.84,0,0,1,283,440.51c-2.84-1.46-7-3.67-11.87-6.59-7.13-4.26-9.44-6.18-11.86-5.27-2.85,1.07-1.93,4.59-5.28,10.55-3.91,7-7.32,6-11.87,13.18-2.36,3.76-2,4.95-5.27,13.19a154.52,154.52,0,0,1-6.59,14.5,19,19,0,0,0-10.55,6.6c-2.29,3-2.84,5.93-4,11.86-.93,5-1.37,7.51,0,9.23,2.21,2.77,6,.2,9.23,2.64,4.61,3.44.75,11.2,5.28,17.14,1.61,2.13,4.59,4.4,10.55,5.28,1,6.6,3.3,14.53,9.23,17.14,5.66,2.5,10.46-1.69,14.5,1.32,5.74,4.28-.22,15.54,5.28,19.78,4.5,3.47,13.53-.24,18.46-4a24.56,24.56,0,0,0,7.91-10.55c6.06,9.58,14.3,19.66,22.41,18.47,3-.44,3.18-2,6.6-2.64,9.53-1.78,13.25,9.41,26.37,11.87,8.23,1.54,9.16-2.42,17.14,0s10.14,7.31,15.83,6.59c4.83-.62,4.8-4.36,10.55-6.59,7.49-2.92,18.5-.84,22.41,5.27,3.32,5.18-.22,10.53,4,14.51,2.09,2,3.82,1.46,7.91,2.63,11.83,3.41,13.39,12.44,19.78,11.87,3.67-.33,4.42-3.41,11.87-10.55a94.71,94.71,0,0,1,13.18-10.55c4.46-.52,11.32-1.17,19.78-1.32,11.12-.19,11.69.73,18.46,0,12.21-1.3,13.46-4.59,22.42-4,7.59.54,9.34,3.08,13.19,1.32,2.36-1.09,3.93-3.08,9.23-14.51,2.26-4.87,4-9,5.27-11.87,7.48-1,13.76-1.94,18.46-2.63,12.39-1.84,15.69-2.45,18.46-5.28,1.48-1.51,5-5.87,4-15.82,7.52,7.91,11.88,8.75,14.51,7.91,3.15-1,3.13-4.25,6.59-5.27,5.57-1.66,9.49,5.56,14.5,4,3.88-1.24,3.49-6.17,7.92-7.91,3.19-1.25,6.71,0,9.23,1.32a34.05,34.05,0,0,1,19.78-2.64,24.89,24.89,0,0,1,10.54,4c6.33,4.42,5,8.69,10.55,11.86,5.88,3.4,11,.67,13.19,4,1.57,2.41.29,6.12-1.32,9.23,3.12-1.55,7.12-3,9.23-1.32,1.83,1.46.88,4.17,2.64,5.28,3,1.89,8.82-4.08,10.55-2.64,1.5,1.25-2.56,6.06-1.32,10.55s7.15,6.71,11.87,7.91a18.54,18.54,0,0,1,7.91-7.91c7-3.43,15.67-1.52,21.1,2.64,5.11,3.91,7,9.58,8.43,14.55l.18.63c1.39,4.89,2.45,9,5.89,9.87s6.87-1.77,9.23-4A13.79,13.79,0,0,1,802.5,608c3,2.2,6,6.47,5.28,10.55-.95,5.08-7.35,7.17-6.59,9.23.64,1.75,5.33.43,6.59,2.64,1.08,1.89-1.62,4.14-4,9.23s-1.41,6.79-4,17.14c-1,4.05-2,7.26-2.64,9.23a26.93,26.93,0,0,0,4,4c4.32,3.49,7.77,4,10.54,5.27,9.6,4.49,11.72,19,13.19,18.46.94-.32-1.13-5.79,1.32-7.91,1.54-1.34,4.25-.82,6.59,0,3.15,2.71,3.86,5,4,6.59.25,4-3.29,5.14-4,10.55-.47,3.83,1.09,5,0,7.91a10.41,10.41,0,0,1-5.27,5.28c2,.08,5,.51,6.59,2.64,3.33,4.29-2.67,10.47,0,17.14,2.28,5.68,9.35,8,13.19,9.23a30,30,0,0,0,11.87,1.32,26.93,26.93,0,0,1,6.59,11.87c1,4.06.67,7.6,0,14.5-1.13,11.53-2.85,12.61-1.32,15.82,2.4,5,7.68,4.58,10.55,10.55a15.39,15.39,0,0,1,1.32,7.92,46.62,46.62,0,0,0-9.23,1.31c-6.88,1.69-10,4.11-11.87,2.64s.43-5-1.32-9.23c-1.44-3.46-4.86-5.42-7.91-6.59-4.39,12.42-7.37,14.64-9.23,14.5-2.69-.2-2.72-5.26-7.91-9.23-4.29-3.28-11.1-5.06-15.83-2.64-5.7,2.92-5.63,10.55-7.91,10.55-1.63,0-3.88-3.89-6.59-21.09a23,23,0,0,0-21.1,13.18,62.27,62.27,0,0,0-1.32,11.87c-.07,5.33-.11,8,1.32,10.55,3,5.35,8.79,4.74,9.23,7.91.6,4.37-10.2,6.76-10.55,13.19-.24,4.31,4.46,6.07,4,9.23-.43,2.72-4.63,5.89-21.1,7.91.73,4.42,1,10.56-2.64,14.5-2.63,2.86-5.2,2.28-10.55,5.28-2.84,1.6-10.16,5.71-11.86,11.87-2.43,8.75,7.92,16.38,5.27,19.78-2.09,2.67-8.67-1.82-18.46,0a29.11,29.11,0,0,0-11.87,5.27c5.45,16.73,14.7,23.87,18.46,26.37,1,.68,5.08,2.65,13.19,6.6,11.41,5.54,14.9,6.85,17.14,5.27,1.53-1.08,1.36-2.72,2.64-7.91a77.85,77.85,0,0,1,4-11.87c1.38,4.38,3.75,9.54,7.92,10.55,4.82,1.18,8.28-4.11,18.46-10.55,8.74-5.53,15.46-9.78,23.73-9.23,12.41.83,20.23,11.92,21.1,13.19a31.63,31.63,0,0,1,5.27,14.5,11.05,11.05,0,0,0,6.6-2.64c4.48-4.06,4.62-12.33,1.32-17.14-3.74-5.44-10.34-4.24-11.87-9.23-.77-2.51.75-3.31,1.32-7.91.79-6.46-1.66-9.4-2.64-15.82a35.9,35.9,0,0,1,1.32-15.83c-.92,8.12,3.23,15.18,9.23,17.15,4.84,1.58,9.34-.67,10.55-1.32-4.79-8.26-4.89-11-4-11.87,1.8-1.69,7.48,3.41,10.55,1.32,3.52-2.41-.27-11.67,2.64-13.19,2.68-1.4,7.76,5.5,10.55,4,2.33-1.29.6-7.11,2.64-7.91,1.79-.72,3.63,3.62,6.59,3.95,4.59.51,7.72-9.09,14.5-19.78,10.56-16.63,15.95-13.79,22.42-27.69,3-6.38,3.82-11.25,9.23-17.14,2.78-3,5-4.43,6.59-7.91,2.31-5.13,1.27-10.63,0-14.51,11-10.72,20.07-13.07,26.38-13.18,8.43-.16,12.36,3.66,23.73,2.63,9.23-.83,8.52-3.51,17.14-4,12-.62,16,4.46,23.74,1.32,5.63-2.28,5.6-5.77,10.55-6.6,6.31-1,11,3.85,15.82,6.6,6.29,3.54,16.89,5.72,35.61-1.32-1.79,8.19-5.14,18.08-11.87,19.78-5.1,1.28-10.07-2.65-11.87-4-8.51-6.17-25.59-11.07-63.29-5.27,4.62,7.13,8.77,9,11.86,9.23,4.8.37,6.57-3.2,11.87-2.64,4.57.48,5.69,3.38,11.87,6.59a38.13,38.13,0,0,0,13.18,4c-2.76,4.24-5.65,5.9-7.91,6.59-6.14,1.88-10.79-2.43-15.82,0-2.89,1.4-4.43,4.29-5.27,6.59,1.3,2,3.42,4.44,6.59,5.28,5.38,1.42,7.76-3.46,13.18-2.64s5.49,5.85,14.51,10.55c2.66,1.39,2.73,1,6.59,2.64,12.84,5.46,14.22,10.74,21.1,11.87,5.83.95,6.38-2.59,17.14-5.28,11.29-2.82,15.67-.17,25.06-1.32,6.77-.82,16.45-3.66,27.69-13.18,0,.5,1,10.44,9.23,14.5,7.23,3.57,16.91,1.05,22.42-6.59-2.61,13-.44,18.62,2.63,21.1,3.7,3,9.14,1.81,10.55,5.27s-2.45,7.71-2.64,7.91c-3.78,4.19-8.56,3.43-15.82,5.28-6.26,1.59-6.09,3-18.46,9.23-12.86,6.44-13.35,5-21.1,9.23-14,7.56-11.45,11.6-25,19.78s-23,8.33-25.06,15.82c-1,3.56.24,7,1.32,9.23,2.7,3,6.76,6.39,11.87,6.59,7.56.3,9.8-6.77,17.14-7.91,9.17-1.41,11.89,8.64,27.69,15.83,14.18,6.44,17.86,1,29,7.91.77.47,18,11.38,17.15,25-.48,7.9-6.47,8.46-7.92,18.46-1.47,10.18,4,14.45,1.32,21.1-1.45,3.58-5.28,7.84-15.82,10.55a64.69,64.69,0,0,0,33,19.78c6,1.4,18.4,4.29,31.64-1.32,13.64-5.77,21.07-17.56,22.42-19.78,5.35-8.79,4.72-14.29,11.87-21.1,2.57-2.45,6.14-4.3,13.18-7.91,16.21-8.3,24.49-12.41,33-10.55A25.24,25.24,0,0,1,1330,998.3c.2-6.16,2.15-9,4-10.55,2.3-1.91,4.19-1.41,6.6-4s1.62-4.52,4-6.59c2.88-2.55,5.3-.66,7.92-2.64,3.85-2.91.81-8.71,3.95-14.5a16.51,16.51,0,0,1,11.87-7.92c11.9-1.36,16.22,16.11,29,15.83,8.39-.19,10.38-7.79,19.78-6.59,5.56.7,7.86,3.74,13.18,2.63,3-.63,4.21-2,9.24-5.27a101.55,101.55,0,0,1,11.86-6.6c-2.65-1.72-7.13-5.31-7.91-10.54-1.26-8.45,7.4-19.13,22.42-22.42,1-1.77,2.13-4.29,1.32-6.59-.92-2.61-4.22-4.81-25.06-6.6-22.57-1.93-26,0-27.69,1.32-7,5.23-6.09,13.81-10.55,14.51-2.69.42-6.81-2.11-13.18-14.51-3.08,8.67-7.59,13.36-10.55,15.82-3.13,2.6-3.4,1.77-14.51,7.92-9.15,5.06-10.9,6.69-14.5,6.59-5.22-.14-9.33-3.74-11.87-6.59-9.85.88-13.91-1.67-15.82-4-5.51-6.57,2.78-15.59-2.64-27.69-.68-1.51-5.35-11.94-14.51-14.51-3.8-1.06-7.89-.63-11.86-3.95a14.86,14.86,0,0,1-4-5.28,20.92,20.92,0,0,0-22.42-1.31c.69-3.43.83-7.21-1.32-9.24-3.08-2.9-8.73-.14-10.55-2.63-.9-1.25-.83-3.78,2.64-9.23a14.49,14.49,0,0,0-11.87-4c-7.22,1.07-10.32,7.42-10.54,7.91a19,19,0,0,0-1.32-7.91,19.39,19.39,0,0,0-7.92-9.23c-2.32,6.09-4.79,7.61-6.59,7.91-4,.66-7.07-4.21-14.5-10.55a85.47,85.47,0,0,0-13.19-9.23c3.78-7.91,6.29-9.43,7.91-9.23,2.93.36,3.54,6.37,6.6,6.6s4.43-6,7.91-6.6c2.47-.39,6.18,2.08,11.86,13.19C1226,822.85,1233,816,1239,816.33c5,.29,10.24,5.75,10.55,13.18,3.57-2.09,5.49-1.92,6.59-1.32,2.64,1.45,1.56,6,4,11.87a24.29,24.29,0,0,0,5.28,7.91,10.07,10.07,0,0,0,6.59,1.32c4.69-.81,8.6-5.58,9.23-11.87a12.88,12.88,0,0,0,3.95,5.28,13.4,13.4,0,0,0,9.24,2.64c2.19-.44,5.31-1.43,6.59-4,2.55-5-4.77-11.19-2.64-17.14.73-2,2.79-4.71,9.23-6.6a25.72,25.72,0,0,0,10.55-6.59c5.38-5.7,5-11.15,9.23-13.19,2.35-1.13,6.55-1.41,14.51,4,4.32-5.23,10.57-12.58,18.46-21.1,19.75-21.34,25.63-24,30.33-25.05,4.42-1,14.08-2.23,27.69,5.27.44-1.77,3.72-13.91,15.82-19.78a30.3,30.3,0,0,1,30.33,2.64c.48-2.23,3.67-16,17.14-23.73a36.37,36.37,0,0,1,25.06-4c6.26-23.29,12.49-28.63,17.14-29,5.4-.44,8.28,5.87,15.82,5.27,7.23-.57,8.89-6.71,15.83-7.91,3.93-.68,9.94.17,18.46,7.91,4.15-3.12,8.44-7.39,7.91-11.86-.49-4.08-4.61-5.34-5.28-9.23-.53-3.12,1.19-7.74,10.55-14.51-7.39.46-9.74-1.14-10.55-2.64-1.81-3.37,3.69-7.08,4-15.82.13-4.24-1.12-4.81-1.32-10.55a41.2,41.2,0,0,1,1.32-11.87,25.4,25.4,0,0,1,11.87-6.59c6.37-1.41,9.2,1,14.5-1.32,6-2.58,8.85-8.41,9.23-9.23,3.37-7.21-.71-11.14,2.64-15.82,3.46-4.84,11-5.11,15.82-5.28a35,35,0,0,1,14.51,2.64c2.61-2.64,6.58-5.77,11.87-6.59,5.81-.91,9.61,1.52,14.5,2.63,5.55,1.26,13.71,1.1,25.06-5.27,2.27-7.17,1.35-11.67,0-14.51-1.24-2.58-3-4.1-2.64-6.59.43-3.07,3.45-3.28,5.27-6.59,2.48-4.52-.92-8.15,0-13.19.58-3.15,3-7.53,11.87-11.87a10.67,10.67,0,0,0-5.27-5.27c-4.72-1.87-9.47,1.51-10.55,0s3.63-4.27,4-9.23c.3-4.54-3.4-5.43-6.59-13.19-2.9-7.05-1.18-9.58-4-11.87-4.51-3.7-10.66,1.65-14.5-1.31-6.06-4.68-1.43-26.27,7.91-29,4.67-1.38,7.67,2.81,13.19,1.31s8.63-7.11,10.55-11.86a32.66,32.66,0,0,1-18.47,1.32c-10-2.34-19.62-10.07-18.46-14.51.83-3.16,6.32-1.46,13.19-6.59,5.53-4.13,5.52-7.88,11.87-15.83a67.16,67.16,0,0,1,10.55-10.55c.93-3,1.78-7.49,0-11.86-3.28-8-12.47-8.38-14.51-14.51-1.11-3.34-.26-8.89,9.23-18.46-2.88-1.26-7.28-2.62-11.87-1.32-7.15,2-7.57,8.54-14.5,10.55-6,1.73-13.36-.85-17.14-5.27-3.38-4-1.92-7.08-5.28-11.87s-8.27-6.83-11.86-7.91c-.12.31-2.37,6.23-6.6,6.59-3.55.3-6.52-3.49-7.91-5.27-2.43-3.12-2.37-5.23-5.27-7.92a15.31,15.31,0,0,0-4-2.63c-6.54,9.22-11.29,10.88-14.51,10.55-3.81-.4-4.27-3.49-11.86-6.6-5.34-2.18-7-1.43-10.55-4-4.16-2.95-3.48-5.08-6.6-6.6-5.22-2.54-8.5,2.8-14.5,1.32-7.14-1.76-7.6-10.58-14.51-11.87-3.6-.67-7,1.09-9.23,2.64-.58,16.75-3.08,20.65-5.27,21.1-3.74.77-6-8.62-17.14-14.5-6.33-3.35-7.75-1.45-14.51-5.28-4.44-2.52-12-6.78-13.18-14.5-.94-5.9,2.25-10.93,3.95-13.19a13.9,13.9,0,0,1-10.55-1.32c-6.41-3.8-6.59-11.45-6.59-11.87a21.51,21.51,0,0,0-13.19,1.32c-7.58,3.63-7.63,10.45-14.5,13.19s-9.73-3-17.14-1.32c-12.59,2.88-15.61,22.06-22.42,21.1-4.45-.63-4.28-9-10.55-10.55-5.33-1.33-8,4.07-13.19,2.64-4.73-1.32-4.86-6.57-10.55-11.87a27.69,27.69,0,0,0-13.18-6.6,31.4,31.4,0,0,0-17.14,5.28c-7.48,5.25-9.65,12.56-13.19,11.87-2.91-.57-2.15-5.65-6.59-11.87-5.35-7.5-11.21-6.78-14.51-11.87-2.5-3.86-3.44-10.94,4-25-1.86-1.5-12.5-10.37-13.19-25.06a33.31,33.31,0,0,1,4-17.14,26.94,26.94,0,0,0-10.55,0c-5.85,1.2-8.87,4-10.55,2.64-1.44-1.16-.15-3.93,0-9.23a35.48,35.48,0,0,0-1.32-10.55,29.41,29.41,0,0,0-15.82,0c-7.33,2.19-7.78,5.92-13.19,6.59-8.33,1-11.74-7.25-22.42-9.23-6.23-1.15-12.14.36-17.14,2.64,4.48-8.18,4.09-12.93,2.64-15.82-2-3.93-5.4-3.47-7.91-7.92-3.11-5.49.69-8.76-1.32-15.82-2.5-8.77-10.23-10.22-9.23-14.51,1.09-4.68,11.11-6.34,15.82-6.59a30.79,30.79,0,0,1,10.55,1.32,20.09,20.09,0,0,0-1.32-9.23c-3.59-8.78-12.42-10.53-18.46-15.82-5.2-4.56-10.11-13.31-9.23-31.65a39.31,39.31,0,0,1-22.42-25,26.33,26.33,0,0,0-11.86,4c-5.75,3.7-7,8-10.55,7.91-3.72-.11-4.09-4.88-9.23-7.91-5.65-3.32-13.39-2.4-18.46,0-10.15,4.79-11,16.13-17.15,15.82-3.61-.18-3.84-4.17-9.23-5.27-5-1-6.47,2.07-11.87,1.32-4.62-.65-5.43-3.18-10.54-5.28-3-1.22-7.69-2.38-14.51-1.31,3.73,16-1.9,30.7-11.87,35.6-.85.42-9.13,4.34-17.14,1.32-4.91-1.86-5.28-4.65-10.55-6.6-5.43-2-9.39-.65-15.82,0a72.26,72.26,0,0,1-22.42-1.31c-2.86,5.9-5.79,7.51-7.91,7.91-4,.76-6.59-2.58-13.19-4a26.47,26.47,0,0,0-10.55,0,27.24,27.24,0,0,1-2.63,11.87c-2.93,6-7.16,8.54-10.55,11.87-4.08,4-8.77,10.94-10.55,23.73a33.73,33.73,0,0,0-5.28,10.55c-4.65,16,4.72,30.23,6.6,33a8.93,8.93,0,0,1,0,6.59A9,9,0,0,1,917.23,188.65Z" transform="translate(-214.34 -43.07)"/><path class="cls-2" d="M915.64,188.46c-1.78,12.74.88,20.17,3.87,24.66,2.35,3.54,5.53,6.21,6.6,11.88.95,5.06-.75,7.33,1.32,10.55,2.63,4.09,7.37,3.51,7.91,6.6.5,2.78-3.16,4.49-2.63,7.91a6.51,6.51,0,0,0,2.63,4,58.06,58.06,0,0,0,25.07-2.64c9.36,6.76,11,11.42,10.55,14.51-.36,2.62-2.27,4.73-1.32,7.92.26.84.72,1.8,4,5.27,2.11,2.27,4,4.06,5.28,5.28a7.36,7.36,0,0,1,5.27-1.32c2.51.51,3.07,2.55,5.28,2.64s2.54-1.93,5.28-2.64c3.24-.83,4.59,1.53,7.91,1.32,2.57-.16,4-1.71,7.92-5.28,2.4-2.2,6-5.39,10.55-9.23,1.75,3.36,4.6,7.34,9.24,9.23,3.86,1.59,7.52,1.13,7.91,2.64.56,2.18-6.71,4.27-6.59,7.92.06,2,2.29,2.89,6.59,6.59a62.61,62.61,0,0,1,6.6,6.6c5.19,1.71,8.47,1,10.55,0,3.74-1.87,4.28-5.24,7.92-6.6,3.21-1.19,6.67,0,9.23,1.32l19.79,4a50,50,0,0,0,11.87-6.59,50.8,50.8,0,0,0,14.51-17.15c2.37-3.39,2.75-6.08,2.64-7.92-.19-3.47-2.18-5.42-2.64-10.55a23.28,23.28,0,0,1,0-4,6.91,6.91,0,0,0,5.28,0,7.25,7.25,0,0,0,4-5.28l-5.28-4a21.07,21.07,0,0,1,5.28-14.51,23.71,23.71,0,0,0,0-10.55,23.28,23.28,0,0,0-2.64-6.6,16.39,16.39,0,0,1-5.28,0,16,16,0,0,1-6.59-2.64,15.51,15.51,0,0,1-5.28-6.59,16.22,16.22,0,0,1,9.24-17.15,28.72,28.72,0,0,1-4-19.79c6.59-1.94,8.64-4.51,9.23-6.6.91-3.2-1.58-5.52-1.32-10.55a16.62,16.62,0,0,1,2.64-7.91l-7.91-18.47a22,22,0,0,1,1.32-13.2c4.88-11,17.49-13.05,18.46-13.19a12.63,12.63,0,0,1,2.64-10.55,12.16,12.16,0,0,1,7.92-4A34.37,34.37,0,0,1,1130.59,68c3.9-3.05,5-5.83,5.27-7.91.37-3.16-1.22-5.3,0-7.92a7.66,7.66,0,0,1,4.37-3.6" transform="translate(-214.34 -43.07)"/><path class="cls-2" d="M873.37,578.42a26.94,26.94,0,0,0-4.65-11.09,28.18,28.18,0,0,0-15.83-10.55c2.52-5.17,4.92-6.4,6.6-6.6,3.55-.42,5.55,3.51,9.23,2.64,1.4-.33,1.66-1,5.28-4,2.21-1.79,4.08-3.13,5.28-4a9.9,9.9,0,0,0-4-2.64,10.09,10.09,0,0,0-6.6,0,20.14,20.14,0,0,0,2.64-15.83c-2.48-9.34-11-12.84-11.87-13.19a7.72,7.72,0,0,0,1.32-2.64,7.62,7.62,0,0,0,0-4,6.6,6.6,0,0,0-7.92,0,8.59,8.59,0,0,1,0-9.23l-3.95-5.28v-6.6A18,18,0,0,1,839.7,479l4-2.64a6.79,6.79,0,0,1-6.6-7.92,20.85,20.85,0,0,0,7.92-5.27,21.11,21.11,0,0,0,5.27-10.56,38.1,38.1,0,0,0-2.63-6.59,41.57,41.57,0,0,0-17.15-17.15,9.31,9.31,0,0,0,5.27-4,9.12,9.12,0,0,0,1.32-5.28,5,5,0,0,0-1.32-4,4.79,4.79,0,0,0-2.64-1.32l5.28-5.27a12.16,12.16,0,0,0-6.59-6.6q1.31-4,2.63-7.91l-3.95-2.64a41.35,41.35,0,0,0-9.24,2.64,51.51,51.51,0,0,0-9.23,5.27c-3.93,2.38-10.8,3.71-23.75-1.32a4.45,4.45,0,0,0,2.64-2.63c.6-2.56-3.26-3.89-4-7.92-.54-3.11,1.54-3.58,1.32-7.92-.15-3-1.18-3.61-1.32-6.59a14.69,14.69,0,0,1,1.32-6.6c-1.25-3.87-3.18-4.94-4-5.27-4.33-1.86-11.81,2.42-17.15,11.87a25.12,25.12,0,0,1-9.23,0c-4.83-.93-5.69-2.65-9.24-2.64-4.65,0-5.15,3-10.55,4s-5.65-1.77-11.87-1.32c-6.88.49-8.47,4-13.19,2.64-2.92-.83-3.69-2.55-6.6-2.64a10.1,10.1,0,0,0-6.6,2.64l-9.23,6.59,4,7.92c-3.74,4.11-4.3,7.12-4,9.23.38,2.38,1.91,3.71,1.32,5.28-.71,1.87-3.83,2.46-6.6,2.64a85.23,85.23,0,0,1,13.19,42.21,12.49,12.49,0,0,1-11.87,5.28,13,13,0,0,1-9.23-6.6,11.75,11.75,0,0,1-6.6,6.6,11.54,11.54,0,0,1-7.91,0,9,9,0,0,1,0,6.6,9.43,9.43,0,0,1-6.6,5.27,129.18,129.18,0,0,1-4,47.49l6.6,7.92,2.64,11.87q.72,3.36,1.46,6.71" transform="translate(-214.34 -43.07)"/><path class="cls-1" d="M1119.72,276.16a10.27,10.27,0,0,0,11.53,3.58,7.45,7.45,0,0,1,1.32-2.63,7.74,7.74,0,0,1,4-2.64,7.66,7.66,0,0,1,5.28,2.64,7,7,0,0,1,1.32,2.63,20.44,20.44,0,0,0,14.51,0,21.07,21.07,0,0,0,14.51,5.28,18,18,0,0,0,6.6-2.64,18.41,18.41,0,0,0,5.28-5.27,11.48,11.48,0,0,1,7.91,0,11.78,11.78,0,0,1,6.6,6.59A17.15,17.15,0,0,1,1213,271.83a8.23,8.23,0,0,1,2.64,2.64c2.45,4,.23,8.75,0,9.23a35,35,0,0,1,10.55,13.19,3.3,3.3,0,0,0,0,5.28l11.87,13.19a10.86,10.86,0,0,0-3.95,4,10.42,10.42,0,0,0-1.32,4,8.82,8.82,0,0,0,5.27,1.32,8.69,8.69,0,0,0,4-1.32c3.64,3.43,8.39,3.51,10.56,1.32,1.77-1.8,1.4-4.7,1.31-5.28a8.66,8.66,0,0,0,9.24-2.64l7.91,2.64,10.56-6.6,6.59-6.59a5,5,0,0,1,4,1.32,4.74,4.74,0,0,1,1.32,2.64,30.54,30.54,0,0,0,2.64-4q.76-1.38,1.32-2.64a6.88,6.88,0,0,0,5.28-6.6l2.63,2.64a4.87,4.87,0,0,1,7.92-5.27,8.58,8.58,0,0,1,2.64,2.63,25,25,0,0,1,2.64-1.31,24.35,24.35,0,0,1,4-1.32l7.69-1.65" transform="translate(-214.34 -43.07)"/><path class="cls-1" d="M1272.14,318.66a12,12,0,0,0-1.06,5.94,12.19,12.19,0,0,0,2.64,6.59,18,18,0,0,0-4,1.32,18.46,18.46,0,0,0-6.59,5.28,10.75,10.75,0,0,1,4,4,10.9,10.9,0,0,1,1.32,6.59,31.62,31.62,0,0,0,7.91,2.64c3.8.72,4.77.16,6.6,1.32,3,1.92,3.25,5.28,5.27,5.28.76,0,.91-.47,2.64-1.32a16.15,16.15,0,0,1,4-1.32,14.07,14.07,0,0,1,1.32,6.6,13.78,13.78,0,0,1-1.32,5.27,20.28,20.28,0,0,0,6.6,7.92,20,20,0,0,0,5.27,2.64l9.24-2.64a6.67,6.67,0,0,1,1.32,4c-.06,2-1.19,2.45-1.32,3.95-.33,3.66,5.84,6.07,5.27,7.92-.19.62-1.18,1.33-5.27,1.32,1.63,1,7.24,4.47,6.59,6.59-.86,2.86-12.52,1.41-13.19,1.32,4.6,10.44.81,21.39-6.59,25.07-7.1,3.52-15-.86-15.84-1.32a4.48,4.48,0,0,0-2.63,2.64c-.51,2.07,1.78,3.58,1.32,5.27-.25.89-1.31,2-5.28,2.64a7.27,7.27,0,0,1,5.28,4,7,7,0,0,1,0,5.28,24.32,24.32,0,0,1,13.19,1.32c4.16,1.73,6.24,4.17,10.55,7.91a106.49,106.49,0,0,0,14.51,10.56,58,58,0,0,1,14.51,1.31,59,59,0,0,1,14.52,5.28,22.4,22.4,0,0,1,11.87-7.91,11.74,11.74,0,0,1,6.59,6.59,11.51,11.51,0,0,1,0,7.92,42.9,42.9,0,0,1,7.92,5.27,44.42,44.42,0,0,1,5.28,5.28,4.78,4.78,0,0,1,1.32,2.64,5.06,5.06,0,0,1-1.32,4l6.59,5.27,6.6,5.28a21.92,21.92,0,0,1,1.32,10.55h4a41.44,41.44,0,0,1,10.55-15.83,11.77,11.77,0,0,0,6.6,5.28,11.53,11.53,0,0,0,6.59,0,5.15,5.15,0,0,1,2.64-2.64,5.24,5.24,0,0,1,4,0q-1.38-5.79-2.64-11.87-.69-3.33-1.32-6.6a3.13,3.13,0,0,1,0-2.63,3,3,0,0,1,1.32-1.32,8.29,8.29,0,0,0,7.91,2.63,8.4,8.4,0,0,0,5.28-3.95c1.81-.62,4.36-1.14,6.6,0,2,1,2.68,2.79,4,2.64.83-.11,1.78-1,2.64-4a19.11,19.11,0,0,0,9.24-5.28c2.29-2.47,2.65-4.42,5.27-7.91a33.36,33.36,0,0,1,6.6-6.6,2.94,2.94,0,0,0,1.32-2.64,3,3,0,0,0-2.64-2.64l4-4v-3.95a9.24,9.24,0,0,1,4-5.28,9.11,9.11,0,0,1,5.27-1.32c-.06,4.31,3.08,7.7,6.6,7.92a7.31,7.31,0,0,0,6.6-4c1.73.83,3.81,2.15,4,4,.19,2.35-3.07,3.63-2.63,5.27.48,1.86,4.87,1.08,9.23,4a14.49,14.49,0,0,1,4,4,30.55,30.55,0,0,0,21.1-4,6.33,6.33,0,0,0,0-5.28,6,6,0,0,0-2.63-2.63c3.24-2.75,3.93-5,4-6.6,0-2-1-2.29-1.32-5.28-.35-3.2.67-4.25,0-6.59a8.3,8.3,0,0,0-2.63-4l-11.88-11.87a5.73,5.73,0,0,0,1.32-4,6.32,6.32,0,0,0-5.27-5.28,13,13,0,0,0,0-5.28c-.4-1.79-1.1-2.93-1.32-5.27a13.38,13.38,0,0,1,0-2.64,6.82,6.82,0,0,0,2.63-4,6.23,6.23,0,0,0,0-2.64,4.72,4.72,0,0,0,4-2.64,4.8,4.8,0,0,0,0-3.95l-1.32-4-1.32-4a25.32,25.32,0,0,1,1.32-4c1.28-3,2.14-3.31,2.64-5.27s.7-5.33-1.32-6.6c-1.44-.9-3.34-.24-4,0a17.58,17.58,0,0,1,1.32-4,17.15,17.15,0,0,1,4-5.27l-1.32-4a2.74,2.74,0,0,1,0-1.32c.37-1.39,1.94-2.43,4-2.64a5.1,5.1,0,0,1-2.64-2.64,5.34,5.34,0,0,1,1.47-5.75" transform="translate(-214.34 -43.07)"/><path class="cls-1" d="M1539.47,451a18,18,0,0,1,10-1.1,17.73,17.73,0,0,1,6.59,2.64,8.06,8.06,0,0,0,0,5.28c1.26,3.24,4.34,3.35,5.28,6.59.51,1.78-.28,2.2,0,5.28a18.07,18.07,0,0,0,1.32,5.28,44.79,44.79,0,0,0-1.32,7.91,45.26,45.26,0,0,0,0,6.6,9.08,9.08,0,0,1,2.64,5.28c.24,2.32-.75,3.65,0,5.27s2.5,2.27,4,2.64a6.6,6.6,0,0,0,1.32,5.28,6.7,6.7,0,0,0,7.91,1.32,17.56,17.56,0,0,0,2.64,5.27c2.14,2.93,4.18,3.76,4,5.28s-2.33,1.53-4,4a8.33,8.33,0,0,0-1.32,4,10.08,10.08,0,0,0,7.92,2.64,9.52,9.52,0,0,0,5.27-2.64,23.09,23.09,0,0,0,9.24,14.51,22.61,22.61,0,0,0,13.19,4,8.64,8.64,0,0,1,2.64,3.95c1.08,3.69-1.29,6.41,0,7.92,1,1.22,3.37.35,6.59,0a28.6,28.6,0,0,1,11.88,1.32,28.4,28.4,0,0,1,2.18,18.25" transform="translate(-214.34 -43.07)"/><path class="cls-1" d="M1433.35,501.37a18,18,0,0,0,6.59,9.24l1.32-2.64,1.32-2.64a6.33,6.33,0,0,1,5.28,0,6.08,6.08,0,0,1,2.64,2.64c-2.64,1.35-5.42,3.23-5.28,5.28.08,1.12,1,1.25,1.32,2.63.7,2.77-2.34,4.27-2.64,7.92-.17,2.16.82,2.52,1.32,5.28a15.78,15.78,0,0,1-1.32,9.23,11.63,11.63,0,0,1,7.92,2.64c.39.33,3.94,3.42,4,7.91,0,4.93-4.21,5.92-4,10.56.19,3.46,2.62,4.27,2.63,7.91a10.64,10.64,0,0,1-2.63,6.6c-3.45,1.17-5.43.68-6.6,0-1.81-1-1.7-2.56-4-4a10.38,10.38,0,0,0-5.27-1.32,10.51,10.51,0,0,0-6.6,1.32,8.9,8.9,0,0,0-2.64,2.64,22.68,22.68,0,0,0,7.92,17.15,10.34,10.34,0,0,0-9.24,5.28,9.18,9.18,0,0,1,5.28,11.87,10.64,10.64,0,0,1,6.6,2.64c1.87,1.76,1.34,2.9,4,6.59,2.08,3,3,3,4,5.28,1.28,2.93.2,3.67,1.32,5.28,2,2.91,5.84.91,9.23,4,2.51,2.25,2.16,4.89,4,5.27s3.72-1.77,5.28-3.95a68.28,68.28,0,0,1,9.23,7.91c2,2.08,3.11,3.5,5.28,4,2.49.52,4-.74,6.6,0a8.17,8.17,0,0,1,4,2.64,16.28,16.28,0,0,0-2.63,5.27c-1,3.44-.53,6.44-1.32,6.6s-1-1.92-2.64-2.64-3.71.28-5.28,1.32a19.47,19.47,0,0,1,0,5.28c-.38,2.76-.76,5.55-2.64,6.59s-5.25,0-7.91-2.64c-1.17.56-2.44,1.41-2.64,2.64-.32,2,2.37,3.11,2.64,5.28.19,1.53-.8,3.66-5.28,6.6a22.34,22.34,0,0,1,9.23,6.59c3.65,4.51,4,9,7.92,10.56a8.28,8.28,0,0,0,5.28,0,3.56,3.56,0,0,1,1.32,2.63c-.14,1.74-2.35,2.13-2.64,4s1.77,2.77,1.32,4c-.6,1.59-4.37.27-6.6,2.64a5.62,5.62,0,0,0-1.32,4c.1,3.57,3.42,5.5,3.64,5.62" transform="translate(-214.34 -43.07)"/><path class="cls-1" d="M1436,506.65" transform="translate(-214.34 -43.07)"/><path class="cls-1" d="M1425.43,595c-1.52,5.77-3.63,7.45-5.27,7.91-2.73.77-4.21-1.8-7.92-1.32-4.2.55-4.81,4.17-7.92,4-3.81-.26-5.4-5.9-7.91-5.28-1.64.41-1.57,3-4,4a5.69,5.69,0,0,1-4,0c-1.24-.62-2.66-1.55-2.63-2.64,0-1.61,3.2-1.77,4-4,1-3-3.43-7.42-4-7.92-2.17-2.08-4.11-2.73-4-4,.13-1.07,1.7-1.16,2.64-2.64s.56-3.69,0-5.27c-.92.59-2.29,1.49-4,2.64s-2.14,1.5-2.64,1.31c-1-.37-.63-2.55-1.32-5.27a14.17,14.17,0,0,0-2.64-5.28c-4.12,4.73-7.14,5.55-9.23,5.28-1.84-.24-2.72-1.31-5.28-2.64a24.51,24.51,0,0,0-9.23-2.64,42.91,42.91,0,0,0-5.28,2.64c-4.28,2.52-5.72,4.36-7.92,4-2-.37-1.75-2-4-2.64-3.13-.85-4.8,2.19-7.92,1.32-1.66-.47-1.6-1.45-4-2.64a12.54,12.54,0,0,0-5.27-1.32,30.46,30.46,0,0,1-10.56,2.64c-3.71.23-4-.47-6.59,0-6.4,1.15-8.36,6.06-11.88,5.28-1.1-.25-2.57-1.1-4-4a4.37,4.37,0,0,0-2.64,2.64c-.45,1.91,1.58,3.09,1.32,5.27s-2.48,2.39-2.64,4c-.37,3.63,11,6.74,10.55,9.24-.19,1-2,.9-5.27,2.63a22.29,22.29,0,0,0-5.28,4c8.7,4,10.69,7.07,10.55,9.24-.16,2.54-3.28,4.12-2.64,6.59.48,1.82,2.35,1.67,4,4,2,2.87,1.51,6.54,1.32,7.92-.61,4.41-3,5.56-2.64,9.23a9.36,9.36,0,0,0,1.32,4c-2.88,1.94-7.62,4.45-13.19,4-8.16-.72-10.54-7.23-17.15-6.59-6.82.65-7.82,7.93-14.51,7.91-5.81,0-8.83-5.51-11.87-4s-.92,7.49-4,9.23c-3.73,2.14-9.26-5.47-15.83-4-3.22.74-5.35,3.35-6.6,5.28a9.33,9.33,0,0,0,7.92,7.92,24.07,24.07,0,0,1,13.19,1.31,23.56,23.56,0,0,1,7.91,5.28,7.8,7.8,0,0,0,0,2.64c.62,3.41,3.35,4.51,4,7.92a7.26,7.26,0,0,1,0,2.63,5,5,0,0,0,4,1.32,4.75,4.75,0,0,0,2.64-1.32l4-4a3.82,3.82,0,0,1,4-1.32,4,4,0,0,1,2.64,2.64,23.87,23.87,0,0,1,1.32,5.27,24.44,24.44,0,0,1,0,6.6l-1.32,7.91a12.79,12.79,0,0,1,5.28,5.28c2.57,5.1-.25,9.6,2.64,14.51a11.75,11.75,0,0,0,4,4A6.68,6.68,0,0,0,1275,727a6,6,0,0,0,2.64-1.32,8.46,8.46,0,0,0,2.64,5.28c2,1.69,4,1.17,5.28,2.63.93,1.05,1.6,3.15,0,7.92a14.59,14.59,0,0,0-2.64,4c-1.71,3.79-.66,5.88-2.64,7.91-1.1,1.13-1.73.81-4,2.64a19.53,19.53,0,0,0-2.64,2.64c7.3,1.28,11.94,4.06,11.88,6.6,0,.42-.19,2.1-4,3.95.11,2.53.63,5.55,2.64,6.6,1.72.9,2.83-.55,5.27,0,3.56.81,3.37,4.39,7.92,6.6a16.09,16.09,0,0,0,5.28,1.31,27.84,27.84,0,0,0,7.91,0,59.29,59.29,0,0,1,5.94,28.82" transform="translate(-214.34 -43.07)"/><path class="cls-1" d="M1208,658.17a44,44,0,0,0-8.15.19c-7.2.85-9.56,3-13.2,2.64-3.09-.29-7.29-2.37-11.87-10.56-1.87.23-4.16.85-5.28,2.64-1,1.61-.24,2.84-1.31,4-1.48,1.54-3.8.14-6.6,1.32a8.15,8.15,0,0,0-4,4,12.3,12.3,0,0,0-5.28-6.6,12.46,12.46,0,0,0-9.23-1.32,6,6,0,0,0-9.23-4,61.25,61.25,0,0,1,3.95,11.88,60.33,60.33,0,0,1,1.32,9.23,5.14,5.14,0,0,0-2.64-2.64,5.22,5.22,0,0,0-4,0,10.36,10.36,0,0,0,5.27,9.24c.66,3.21,1.07,5.92,1.32,7.91,1,7.45.43,9.42,0,10.56a9.45,9.45,0,0,1-4,5.27c-2.53,1.41-3.79,0-6.59,1.32-1.72.84-2,1.73-5.28,5.28-1.64,1.76-3,3.12-4,4a42,42,0,0,0,7.92,6.59,41.2,41.2,0,0,0,7.91,4,5,5,0,0,1-1.31,4,5.21,5.21,0,0,1-6.6,0,5.14,5.14,0,0,0,0,4,5.08,5.08,0,0,0,2.64,2.63,15.17,15.17,0,0,1-4,4,16.35,16.35,0,0,1-10.55,2.64c3.12.66,5.27,2.37,5.27,4,0,1.93-3.14,3.14-5.27,4-1.76.67-7.77,3-10.56,0a5.57,5.57,0,0,1-1.32-4,15.87,15.87,0,0,0-7.91,0c-3.55,1-4.75,2.78-7.92,4-2.25.83-5.65,1.39-10.55,0a6.25,6.25,0,0,1-10.55,3.95c-2.33.51-5.07,1.57-6.6,4-1.77,2.78-.88,5.76-2.64,6.6-1.27.61-2.4-.64-5.28-1.32a14.91,14.91,0,0,0-6.59,0,6.61,6.61,0,0,0,2.64,11.87" transform="translate(-214.34 -43.07)"/><path class="cls-1" d="M1193.07,827.68a15.94,15.94,0,0,1-3.78,3.5c-1,.67-2.31,1.32-2.64,2.64a2.86,2.86,0,0,0,0,1.31" transform="translate(-214.34 -43.07)"/><path class="cls-1" d="M1133.89,650.44a12.77,12.77,0,0,1-4-2.63c-4-3.93-4-9.27-4-10.56a7.06,7.06,0,0,1,7.92-5.27,16.78,16.78,0,0,1-2.64-9.24,17,17,0,0,1,4-10.55,6.73,6.73,0,0,1-4-1.32,7.07,7.07,0,0,1-2.64-5.28q.69-1.85,1.32-4c.55-1.85,1-3.62,1.32-5.27-2.29-2.25-4.21-2.61-5.28-2.64-2.06-.07-4.48,1.71-9.23,5.27l-5.28,4c-3.6-3-5.51-3.13-6.6-2.64-2.18,1-.74,4.42-3.95,9.24-1.36,2-2.86,3.28-2.64,5.28a4.57,4.57,0,0,0,1.32,2.63c-3.13,8.15-7.69,10-9.24,10.56-2,.66-3.91.6-13.19-1.32-4.82-1-8.87-1.93-11.87-2.64a15.34,15.34,0,0,0-6.6,2.64,15.57,15.57,0,0,0-5.28,6.59l-10.55-6.59h-13.19c1.37-3,2.81-7.47,1.32-11.87-2.94-8.66-15.51-12-14.51-15.84.38-1.47,2.31-1.31,3.95-4a10.56,10.56,0,0,0,1.32-6.6,19.36,19.36,0,0,0-21.11,4v-6.6c-2,1.53-4.84,3.18-7.91,2.64-2.21-.39-3.08-1.66-5.28-2.64s-5.44-1.58-10.55,0a18.16,18.16,0,0,0-4-6.59,18.48,18.48,0,0,0-9.23-5.28,15.8,15.8,0,0,0-7.92,1.32,16.31,16.31,0,0,0-7.91,7.91l-1.32-3.95a8.77,8.77,0,0,1-5.28,2.63,6.46,6.46,0,0,1-1.32,0,12.82,12.82,0,0,0-6.6-2.63,13.82,13.82,0,0,0-10.55,3.95,17,17,0,0,0-4-1.32c-5-1-7.6,1-11.87,0a12.82,12.82,0,0,1-5.28-2.63c-2.3,1.43-4.85,3.59-5.27,6.59-.34,2.37.85,3.88,0,5.28-.67,1.1-2.55,2-7.92,1.32-.38,5.76,1.18,8.83,2.64,10.55,2.38,2.82,5.45,3.21,6.6,6.6.52,1.54.24,2.5,0,5.28a61.81,61.81,0,0,0,0,10.55A7.38,7.38,0,0,1,903,626.7c.89.72,2.19,2.25,2.64,10.55a85.19,85.19,0,0,1,0,9.24c3.92,4.44,7.08,5.3,9.24,5.27,3.94,0,5.2-3.12,9.23-2.64s5.67,3.7,7.92,2.64c1.33-.62,1.89-2.31,4-2.64a4.74,4.74,0,0,1,1.32,0c5.79,5.16,7.49,9.81,7.92,13.2.82,6.48-2.79,9.88-2.64,17.15A25.9,25.9,0,0,0,947.88,694a21.51,21.51,0,0,0,13.19,4,21,21,0,0,0,9.23-2.64c-4.39,5-4.6,7.7-3.95,9.23,1.34,3.21,6.78,2.3,11.87,6.6A18.34,18.34,0,0,1,983.5,719a22.1,22.1,0,0,0-4,6.6c-1.28,3.36-1,5.14-2.64,6.6s-3.61,1-6.6,1.31a23.56,23.56,0,0,0-10.55,4,24.55,24.55,0,0,0,5.28,7.92c1.89,1.87,3.49,2.78,5.27,5.27a19,19,0,0,1,2.64,5.28,29.21,29.21,0,0,1-2.12,22.69" transform="translate(-214.34 -43.07)"/><path class="cls-1" d="M508.77,503.49c.63-9.1-1.76-13.23-4.15-15.31s-3.8-1.15-9.23-4c-6.95-3.59-8.59-7.18-11.88-6.59-1.33.23-3.31,1.22-5.27,5.27a1.73,1.73,0,0,1-1.32,0c-2.51-1.18-.38-10.3,0-11.87L469,473.67a12.45,12.45,0,0,0,0-6.6c-.18-.62-1.75-5.92-5.28-6.59-2.28-.44-3.05,1.51-5.27,1.32-3.92-.34-9.11-7.05-6.6-11.88,1.33-2.55,4.5-4,7.92-3.95-5.6.78-10.44-1.58-11.88-5.28a8,8,0,0,1,0-5.28,11.11,11.11,0,0,0,2.64-6.59c.07-3.15-1.56-4.66-2.64-7.92-1.62-4.91,0-7.84,0-11.87s-1.66-9.95-9.23-17.15c-.89-.71-8.52-6.61-17.15-4a16.58,16.58,0,0,0-6.6,4c-1.91,2.17-4,5.38-4,9.23.05,2.55,1,2.74,1.31,5.28.79,6.73-5.4,10.37-3.95,14.51.41,1.19,1.59,2.78,5.27,4,.59,1.7,1.13,4,0,5.28-1.3,1.42-3.73.22-7.91,0-4.49-.24-5.24,1-14.51,2.63,0,0-4,.72-9.24,1.32a81.69,81.69,0,0,1-25.06-1.32c-4.44,1.62-6,3.7-6.6,5.28-.85,2.21.05,3.7-1.32,5.28s-3.12.92-5.27,2.64c-.79.62-1.36,1.35-2.64,3.95-2.62,5.31-3.92,8-4,10.56-.06,4.25,2.13,4.79,1.32,7.91s-3.22,3.56-4,6.6a9.22,9.22,0,0,0,1.32,6.59,35.42,35.42,0,0,1,5.28,5.28c2.27,2.82,3.08,4.76,5.27,5.28,1.9.45,2.64-.67,4,0,1.84.93,1,3.41,2.64,6.59s3.43,2.68,6.6,6.6c2.83,3.51,2.27,5,3.95,6.6,2,1.87,6.43,3,17.15-1.32a64.8,64.8,0,0,0-1.32,11.87c-.1,6,.74,7.3,1.32,7.92,3.29,3.46,11.27.25,11.88,0,3.83,3.27,7,6,9.23,7.91,6.39,5.5,7.21,6.26,7.92,7.92,2.48,5.82-2.35,8.84,0,14.51,2.19,5.27,7.61,5.6,7.91,10.55a8.5,8.5,0,0,1-1.32,5.28c-.88,1.26-1.64,1.42-2.64,2.64a9.45,9.45,0,0,0-2,5.61" transform="translate(-214.34 -43.07)"/><path class="cls-1" d="M335.35,480.81a15.52,15.52,0,0,1-10.14-.54c-3.86-1.76-3.69-4.14-7.92-6.6-5.63-3.28-8.86-.78-11.87-4s-1-7.29-4-9.23c-2.67-1.74-4.91,1.11-9.23,0-6.46-1.67-9.08-10-9.24-10.56A17.65,17.65,0,0,1,283,440" transform="translate(-214.34 -43.07)"/><path class="cls-1" d="M439.33,392.53a17.87,17.87,0,0,1,5.93-8.57c5.19-3.95,10.21-2.46,14.51-6.59a14.4,14.4,0,0,0,4-7.92,5.13,5.13,0,0,1,2.64-2.64c2.11-.75,3.85.86,5.28,0,.63-.37,1.34-1.31,1.32-3.95-.45-2.5-.6-5.79,1.32-7.92,2.26-2.51,5.69-1.52,11.87-2.64,2.69-.49,9.31-1.69,13.19-5.28,6.11-5.64,4.58-16.37,4-19.78-.42.12-9.1,2.59-14.51-2.64-.49-.47-3.72-3.6-4-7.92-.12-2.25.64-3.62,0-6.59-.55-2.55-1.3-2.45-1.32-4,0-3.68,4.45-5.31,4-7.92-.13-.71-.67-1.69-2.64-2.63-3.21,2-6.9.87-7.91-1.32-.71-1.54-.16-3.68,1.32-5.28-3.65-1.11-6.78-2-9.24-2.64-6.58-1.75-8.46-2-10.55-1.32a11,11,0,0,0-5.28,4c-1.16-1.57-2.94-3.9-5.28-6.6-5.95-6.89-8.07-7.64-9.23-7.91s-4-.66-7.92,1.32a11.66,11.66,0,0,1-1.32-9.24A11.47,11.47,0,0,1,434.7,260c-4.09-.19-5.81-1.45-6.59-2.64s-.36-2.2-1.32-4a8,8,0,0,0-5.28-4c-3.35-.58-4.74,2.34-7.92,2.64-2.25.21-5.62-.87-10.23-7.19" transform="translate(-214.34 -43.07)"/><path class="cls-1" d="M652.37,514.56c-2.79.36-6.16,1.3-7.91,4s-1,6-2.64,6.6c-1.4.49-2.31-1.88-5.28-2.64s-4.11,1.22-7.91,1.32c-4.82.13-5.44-3-9.24-2.64-4.92.52-7.11,6.17-9.23,5.28-1.63-.69-.33-4-2.64-6.6-2.67-3-8.34-3-9.24-1.32-.67,1.24,1.78,2.68,1.32,5.28-.33,1.91-2.14,3.87-4,4-3.23.15-5-5.69-6.6-5.28-2.43.61-.17,13.85-2.64,14.51-1.25.33-3.23-2.67-4-4-1.88-3.33-.91-4.95-2.63-6.59-2.23-2.12-6-1.43-6.6-1.32-2.71.49-3.37,1.87-5.28,2.64-5,2-11.52-3-14.51-5.28-8.19-6.25-9.14-12.12-13.19-11.87-3.74.22-4.39,5.3-7.92,5.27-5.24,0-8.27-11.29-11.87-10.55-2,.41-2.36,4.07-4,4s-1.47-3.85-4-5.28-7.26-.2-9.24,2.64c-2.28,3.28.6,6.51,1.32,15.83.26,3.3,1,12.88-2.64,14.51-2.18,1-3.58-2-7.91-2.64-8.83-1.37-17.85,8.54-18.47,9.24-4.05,4.55-5.27,8.84-9.24,9.23-2.37.24-4.29-1.06-5.27,0-1.19,1.28,1.12,3.66,0,6.6-.29.73-.74,1.39-4,4-2.24,1.78-3.36,2.67-5.28,4-4.14,2.77-8.09,9-9.23,14.51-1.83,8.79,4.27,12,2.64,21.11A22.46,22.46,0,0,1,440,613.51" transform="translate(-214.34 -43.07)"/><path class="cls-1" d="M779,599a20.3,20.3,0,0,0,7.91-5.27,20.73,20.73,0,0,0,5.28-11.88c.88,1,10.16,11.23,22.43,9.24a21.45,21.45,0,0,0,9.23-4c6.54,7,15.9,6.93,19.79,2.64,2.55-2.82,2.82-7.53,1.32-11.87,4.24-3,7.21-3.15,9.23-2.64,3.77,1,5.44,4.63,7.92,4,1.81-.5,1.7-2.69,4-4,2.1-1.18,4.65-.68,6.6,0,.65,4.82,2.42,6.91,4,7.91,2.67,1.76,5.38.76,11.87,1.32a52.38,52.38,0,0,1,7.92,1.32" transform="translate(-214.34 -43.07)"/><path class="cls-1" d="M478.24,289c3.47.32,6.68-1.33,7.91-4,1.66-3.56-.38-8.77-5.28-10.55a9,9,0,0,0,4-4,9.49,9.49,0,0,0,0-7.92c2.24-1.24,5.28-2.43,7.92-1.31,2.16.91,3.13,3,3.95,2.63,1.33-.54-1-5.92,1.32-7.91,1.59-1.38,4,.09,5.28-1.32,1.09-1.16.65-3.39,0-5.28a48.47,48.47,0,0,1,38.26,5.28,29.5,29.5,0,0,0,2.64-18.47c3.22-.64,7-2,9.23-5.28,3.87-5.68.23-13.19,4-15.83,1.09-.77,3-1.26,6.59,0,2.22-4.95.67-10.06-2.63-11.87-2.78-1.52-6-.25-6.6,0a10.93,10.93,0,0,1,0-4c1.12-5.93,7-8.8,7.92-9.23a31.84,31.84,0,0,0-2.64-4c-4-5.11-7.67-6.36-10.56-9.23-2.25-2.24-4.69-6.1-5.27-13.2H525.73a25,25,0,0,0,1.32-9.23c-.28-5.16-2.1-6.71-1.32-10.55.88-4.42,3.71-4.54,3.95-7.92.39-5.22-6.22-6.44-6.59-11.87-.3-4.39,3.66-8.6,9.23-14.51,3-3.14,4.46-4,5.28-6.6,1.25-3.89-.26-7.89-1.77-10.71" transform="translate(-214.34 -43.07)"/><path class="cls-1" d="M503.3,327.24l5.28-15.83c5.08,5.16,8.43,5.73,10.55,5.27s2.43-1.71,5.28-2.64c3.89-1.26,5.94.23,9.23,0,5.49-.38,7.39-5.06,11.88-7.91,3.78-2.41,10.34-4.11,22.42,0v9.23a10.05,10.05,0,0,0,6.6,0c4.36-1.67,4.86-6.24,9.23-7.91a10.05,10.05,0,0,1,6.6,0c11.19-10.73,18.61-18.67,23.74-25.07,2-2.49,6.37-8.12,11.88-7.91,2.59.1,2.78,1.39,5.27,1.32,5.36-.16,6.91-6.21,13.2-7.92a13.32,13.32,0,0,1,6.59,0,21.75,21.75,0,0,1,1.32-7.91c1.52-4.1,3.3-4.87,4-7.92.8-3.72-1.35-4.88-2.64-10.55s.27-7,0-15.83a75.38,75.38,0,0,0-1.32-11.88c6-3,9-6.58,10.56-9.23,3.24-5.36,2.19-9.1,6.59-13.19,2.63-2.45,5-3,5.28-5.28.28-2.71-3-4-2.64-6.6s4-2.12,5.28-5.27c.79-2-.31-3,0-6.6a17.21,17.21,0,0,1,1.32-5.28l5.27,5.28a11.25,11.25,0,0,1,2.64-9.23,10.77,10.77,0,0,1,6.8-3.29" transform="translate(-214.34 -43.07)"/><path class="cls-1" d="M642.66,268.54c6.54,4.51,13.6,10.48,12.35,15.16-.69,2.59-3.35,2.6-4,5.28-1.13,5,7.78,7,14.51,18.47,2.24,3.81,3.47,7.37,6.6,7.91,2.9.51,4.39-2.11,6.6-1.32,1,.36,2.37,1.49,4,13.2,1.28,9.4.68,10.87,0,11.87-2.07,3.08-5,2-7.91,5.28a13.19,13.19,0,0,0-2.64,10.55c.7,4,3.19,6.17,13.19,14.51,2.54,2.12,6.32,5.27,11,9.12" transform="translate(-214.34 -43.07)"/><path class="cls-1" d="M828.62,392.22c-2.13-3-4.7-7.68-3.43-12.22,1-3.63,3.89-5,13.19-11.87,12-8.89,13.21-11.09,13.19-13.19,0-4.39-5.44-5.52-5.27-10.55.12-3.81,3.24-4.28,4-9.24.34-2.33-.23-3.11-1.31-9.23-.9-5-.72-5.65-1.32-9.24C845.9,306.51,845,301,841,298.21c-5.16-3.63-12.59-.55-13.19-2.63-.52-1.81,5.2-3.73,5.27-7.92,0-2.37-1.75-3.07-1.31-5.28.53-2.7,3.45-2.8,4-5.27.54-2.65-2.59-3.62-2.64-6.6-.05-3.47,4.15-4,6.6-9.23,1.68-3.58,2.21-8.68,0-10.56-2.05-1.74-5.22.35-6.6-1.32s1.44-4.24,1.32-7.91c-.22-7.24-11.54-10.56-10.55-14.51.63-2.54,5.37-1.48,7.92-5.28,2.36-3.53,1.72-9.62-1.32-13.19-3.84-4.49-9.1-2.21-11.88-6.6-2.05-3.24-1.27-7.81,0-10.55,1.9-4.1,4.9-4.2,6.6-7.92,1.54-3.37.83-7.13-.3-10.21" transform="translate(-214.34 -43.07)"/><path class="cls-1" d="M571.58,525.61c-7.49-6.48-9.62-12.3-10.23-16.32-1.31-8.53,3.56-13.36,0-21.11-1.3-2.82-3.14-4.78-4-9.23a24.47,24.47,0,0,1,0-7.92c1.68-13.82,4.56-16,4-23.75-.41-5.23-1.81-5.35-1.32-9.23.77-6.17,4.5-7.41,5.27-13.19.45-3.37-.58-6.2-2.63-11.87-3.17-8.73-6-10.19-5.28-14.52.25-1.42,1.49-3.58,4-7.91,2.27-4,2.91-4.46,3.95-6.6a27.88,27.88,0,0,0,2.52-10.81c.08-7.49-3.87-8.65-6.47-20.85-1.06-4.93-.94-7.19,0-9.23,1.55-3.4,3.94-3.13,5.27-6.6,1.55-4.05-.8-6.77,1.32-9.23,1.56-1.81,3.93-1.65,4-2.64,0-1.41-4.68-1.7-5.28-4-.41-1.55,1.29-3.39,3.08-4.87" transform="translate(-214.34 -43.07)"/><path class="cls-1" d="M1104.86,463.12c5.67-2.53,12.33-4.28,17.15-1.32,5.71,3.5,6,11.91,9.24,11.87s3.76-8.81,9.23-10.55c3.26-1,6.81.89,9.24,2.63-2.3,6.45-.9,9.34,0,10.56,2,2.77,4.71,1.21,14.51,4,6.89,1.92,9.1,3.69,13.19,2.63,2.52-.65,3.4-1.76,5.28-1.32,3.2.77,3.31,4.66,6.59,6.6,1.58.94,4.32,1.68,9.24,0-2.09,5.53-4.65,7.31-6.6,7.92-3.32,1-5.66-1.11-10.55-1.32a20.25,20.25,0,0,0-10.56,2.64,9,9,0,0,0,1.32,6.59c1.4,1.86,3.33,2.31,9.24,4,2,.55,5.17,1.45,9.23,2.64a53,53,0,0,1-13.19,11.87c-9,5.65-13.57,4.62-15.83,9.23-2.61,5.33.36,13.08,4,22.43,2,5.15,2.81,5.71,2.64,7.92-.51,6.47-8.28,9.85-17.15,15.83a115.89,115.89,0,0,0-20.57,17.76" transform="translate(-214.34 -43.07)"/><path class="cls-1" d="M1286.61,443.19c-7.2-2.68-12.27-2.13-15.53-1.18-7.61,2.21-8.52,7.55-18.46,11.87-7.25,3.15-8.07.87-13.2,4-7.15,4.31-13.27,13.38-11.87,21.11.55,3,1.79,3.36,2.64,7.91.64,3.48,1.28,10.67-1.32,11.87-2.26,1-5.07-3.3-10.55-6.59-6.7-4-14-4.44-19.79-4" transform="translate(-214.34 -43.07)"/><path class="cls-1" d="M1105.9,473.49" transform="translate(-214.34 -43.07)"/><path class="cls-1" d="M878.4,544.06c3.69-5.29,6-6,7.47-5.75,2.42.43,2.86,3.73,5.28,4,2,.19,3-1.94,6.6-5.28s6.66-6.16,10.55-6.59c4.62-.52,6.74,2.7,9.23,1.31,2.28-1.26,1.6-4.57,2.64-9.23,1.59-7.08,6.73-15.4,13.19-17.15,2.82-.76,2.63.6,13.2,2.64,7.64,1.47,11.85,2.24,17.15,1.32s4.95-2.31,9.23-2.64c7.57-.59,9.22,3.7,14.51,2.64,5.7-1.14,10.55-7.46,11.88-13.19,1.23-5.33-.77-9.3,1.31-10.56,2.48-1.49,7.06,3.07,9.24,1.32,1.15-.93.17-2.45,1.32-4,1.9-2.49,7.82-2.51,11.87,0s3.83,6.21,6.6,6.6c3.35.47,4.56-4.78,9.23-5.28,4.46-.47,7.12,3.9,9.24,2.64,1.67-1,.31-3.9,1.32-7.91,1.4-5.63,6.61-10.11,11.87-11.88.93-.31,9.61-3.1,14.51,1.32,4.23,3.82,1.42,9.21,5.28,11.88,2.93,2,7.23.47,15.83-2.64,6.43-2.33,9.7-3.57,10.55-6.6.92-3.28-1.58-6.64-2.64-7.91,4.07-5.4,4.43-9.29,4-11.88-.85-4.75-4.54-5.53-5.28-10.55-.76-5.26,3-6.37,2.64-11.87s-4.41-6.8-6.59-13.2c-1.07-3.1-1.82-7.82,0-14.51a21.1,21.1,0,0,0-5.28-9.23c-4.5-4.47-8.34-3.72-10.55-7.92-2.12-4-.21-7.73-2.64-9.23-1.59-1-2.8.35-5.28,0-4.61-.66-9-6.49-9.23-11.87-.26-6.12,5-7.83,4-11.88-1.34-5.14-10.14-3.53-14.51-10.55-2.58-4.15-.63-6.52-2.64-11.87-1.47-3.95-4.85-8.87-13.19-13.2" transform="translate(-214.34 -43.07)"/><path class="cls-1" d="M849.5,455.49c7.69.83,11-1,12.63-2.93,2.87-3.49.71-8.13,4-10.55,2.47-1.84,4.53.21,9.24-1.32s4.68-4.42,7.91-5.28c7.47-2,14.65,11.41,19.79,9.24,3.17-1.35,1.24-6.77,5.28-9.24,4.55-2.78,10.26,2.09,14.51-1.32,1.88-1.5,1-2.65,2.64-3.95,5.53-4.48,19.12,6.16,22.43,2.63,1.51-1.61-.77-4.41,1.32-7.91,1.23-2.08,2.86-2.47,5.27-4,.76-.47,9.21-5.83,10.56-13.19.85-4.66-1.83-6.42,0-10.56,1.16-2.64,2.46-2.39,4-5.27s1.15-5.26,1.32-10.56c.22-6.6.32-9.9,1.32-11.87,3.07-6,12.47-7.94,18.47-7.91,10.75,0,13.63,6.24,19.79,3.95,7-2.61,9.84-13.15,10.55-15.83,2-7.67-.5-10.15,2.64-14.51s7.72-4.33,9.24-9.23c.88-2.87-.21-4.36,1.32-6.6,1.73-2.56,4.3-2.31,6.59-4s4.3-5.05,4-13.19" transform="translate(-214.34 -43.07)"/></svg>