<svg width="20" height="20" viewBox="0 0 20 20" fill="none" xmlns="http://www.w3.org/2000/svg">
<path d="M17.5 10.3533V9.16666C17.5 7.17753 16.7098 5.26988 15.3033 3.86336C13.8968 2.45683 11.9891 1.66666 10 1.66666C8.01088 1.66666 6.10322 2.45683 4.6967 3.86336C3.29018 5.26988 2.5 7.17753 2.5 9.16666V10.3533C1.62597 10.7382 0.910667 11.4116 0.473851 12.2609C0.0370351 13.1101 -0.094783 14.0837 0.100464 15.0185C0.295711 15.9534 0.806172 16.7928 1.54639 17.3962C2.28661 17.9996 3.21166 18.3305 4.16667 18.3333C4.60869 18.3333 5.03262 18.1577 5.34518 17.8452C5.65774 17.5326 5.83333 17.1087 5.83333 16.6667V11.6667C5.83333 11.2246 5.65774 10.8007 5.34518 10.4881C5.03262 10.1756 4.60869 9.99999 4.16667 9.99999V9.16666C4.16667 7.61956 4.78125 6.13583 5.87521 5.04187C6.96917 3.9479 8.4529 3.33332 10 3.33332C11.5471 3.33332 13.0308 3.9479 14.1248 5.04187C15.2188 6.13583 15.8333 7.61956 15.8333 9.16666V9.99999C15.3913 9.99999 14.9674 10.1756 14.6548 10.4881C14.3423 10.8007 14.1667 11.2246 14.1667 11.6667V16.6667H11.6667C11.4457 16.6667 11.2337 16.7545 11.0774 16.9107C10.9211 17.067 10.8333 17.279 10.8333 17.5C10.8333 17.721 10.9211 17.933 11.0774 18.0892C11.2337 18.2455 11.4457 18.3333 11.6667 18.3333H15.8333C16.7883 18.3305 17.7134 17.9996 18.4536 17.3962C19.1938 16.7928 19.7043 15.9534 19.8995 15.0185C20.0948 14.0837 19.963 13.1101 19.5261 12.2609C19.0893 11.4116 18.374 10.7382 17.5 10.3533ZM4.16667 16.6667C3.50362 16.6667 2.86774 16.4033 2.3989 15.9344C1.93006 15.4656 1.66667 14.8297 1.66667 14.1667C1.66667 13.5036 1.93006 12.8677 2.3989 12.3989C2.86774 11.93 3.50362 11.6667 4.16667 11.6667V16.6667ZM15.8333 16.6667V11.6667C16.4964 11.6667 17.1323 11.93 17.6011 12.3989C18.0699 12.8677 18.3333 13.5036 18.3333 14.1667C18.3333 14.8297 18.0699 15.4656 17.6011 15.9344C17.1323 16.4033 16.4964 16.6667 15.8333 16.6667Z" fill="#4F84EB"/>
</svg>
