<svg width="20" height="20" viewBox="0 0 20 20" fill="none" xmlns="http://www.w3.org/2000/svg">
<g clip-path="url(#clip0)">
<path d="M10 5C9.34074 5 8.69627 5.1955 8.14811 5.56177C7.59994 5.92804 7.1727 6.44863 6.92041 7.05772C6.66812 7.66681 6.6021 8.33703 6.73072 8.98363C6.85934 9.63024 7.17681 10.2242 7.64298 10.6904C8.10916 11.1565 8.7031 11.474 9.34971 11.6026C9.99631 11.7312 10.6665 11.6652 11.2756 11.4129C11.8847 11.1606 12.4053 10.7334 12.7716 10.1852C13.1378 9.63707 13.3333 8.9926 13.3333 8.33333C13.3333 7.44928 12.9822 6.60143 12.357 5.97631C11.7319 5.35119 10.8841 5 10 5ZM10 10C9.67037 10 9.34814 9.90225 9.07406 9.71912C8.79997 9.53598 8.58635 9.27568 8.46021 8.97114C8.33406 8.6666 8.30106 8.33149 8.36536 8.00818C8.42967 7.68488 8.58841 7.38791 8.8215 7.15482C9.05458 6.92174 9.35155 6.763 9.67486 6.69869C9.99816 6.63438 10.3333 6.66739 10.6378 6.79353C10.9424 6.91968 11.2027 7.1333 11.3858 7.40738C11.5689 7.68147 11.6667 8.0037 11.6667 8.33333C11.6667 8.77536 11.4911 9.19928 11.1785 9.51184C10.866 9.82441 10.442 10 10 10Z" fill="#4F84EB"/>
<path d="M10.3792 20.0017C9.67745 20.0053 8.98509 19.8407 8.36005 19.5217C7.73502 19.2027 7.1955 18.7387 6.78667 18.1683C3.61083 13.7875 2 10.4942 2 8.37917C2 6.15687 2.8828 4.0256 4.4542 2.4542C6.0256 0.882803 8.15687 0 10.3792 0C12.6015 0 14.7327 0.882803 16.3041 2.4542C17.8755 4.0256 18.7583 6.15687 18.7583 8.37917C18.7583 10.4942 17.1475 13.7875 13.9717 18.1683C13.5628 18.7387 13.0233 19.2027 12.3983 19.5217C11.7732 19.8407 11.0809 20.0053 10.3792 20.0017ZM10.3792 1.81917C8.63951 1.82115 6.97168 2.51311 5.74156 3.74323C4.51144 4.97335 3.81948 6.64118 3.8175 8.38083C3.8175 10.0558 5.395 13.1533 8.25833 17.1025C8.50141 17.4373 8.82031 17.7098 9.18893 17.8977C9.55755 18.0856 9.96542 18.1836 10.3792 18.1836C10.7929 18.1836 11.2008 18.0856 11.5694 17.8977C11.938 17.7098 12.2569 17.4373 12.5 17.1025C15.3633 13.1533 16.9408 10.0558 16.9408 8.38083C16.9388 6.64118 16.2469 4.97335 15.0168 3.74323C13.7867 2.51311 12.1188 1.82115 10.3792 1.81917Z" fill="#4F84EB"/>
</g>
<defs>
<clipPath id="clip0">
<rect width="20" height="20" fill="white"/>
</clipPath>
</defs>
</svg>
