<svg width="20" height="20" viewBox="0 0 20 20" fill="none" xmlns="http://www.w3.org/2000/svg">
<g clip-path="url(#clip0)">
<path d="M15 20H5C3.89534 19.9987 2.8363 19.5593 2.05518 18.7782C1.27407 17.997 0.834655 16.938 0.833332 15.8333V4.16667C0.834655 3.062 1.27407 2.00296 2.05518 1.22185C2.8363 0.440735 3.89534 0.00132321 5 0L15 0C16.1047 0.00132321 17.1637 0.440735 17.9448 1.22185C18.7259 2.00296 19.1653 3.062 19.1667 4.16667V15.8333C19.1653 16.938 18.7259 17.997 17.9448 18.7782C17.1637 19.5593 16.1047 19.9987 15 20ZM5 1.66667C4.33696 1.66667 3.70107 1.93006 3.23223 2.3989C2.76339 2.86774 2.5 3.50363 2.5 4.16667V15.8333C2.5 16.4964 2.76339 17.1323 3.23223 17.6011C3.70107 18.0699 4.33696 18.3333 5 18.3333H15C15.663 18.3333 16.2989 18.0699 16.7678 17.6011C17.2366 17.1323 17.5 16.4964 17.5 15.8333V4.16667C17.5 3.50363 17.2366 2.86774 16.7678 2.3989C16.2989 1.93006 15.663 1.66667 15 1.66667H5ZM13.3333 8.33333H6.66667C6.00362 8.33333 5.36774 8.06994 4.8989 7.6011C4.43006 7.13226 4.16667 6.49637 4.16667 5.83333C4.16667 5.17029 4.43006 4.53441 4.8989 4.06557C5.36774 3.59673 6.00362 3.33333 6.66667 3.33333H13.3333C13.9964 3.33333 14.6323 3.59673 15.1011 4.06557C15.5699 4.53441 15.8333 5.17029 15.8333 5.83333C15.8333 6.49637 15.5699 7.13226 15.1011 7.6011C14.6323 8.06994 13.9964 8.33333 13.3333 8.33333ZM6.66667 5C6.44565 5 6.23369 5.0878 6.07741 5.24408C5.92113 5.40036 5.83333 5.61232 5.83333 5.83333C5.83333 6.05435 5.92113 6.26631 6.07741 6.42259C6.23369 6.57887 6.44565 6.66667 6.66667 6.66667H13.3333C13.5543 6.66667 13.7663 6.57887 13.9226 6.42259C14.0789 6.26631 14.1667 6.05435 14.1667 5.83333C14.1667 5.61232 14.0789 5.40036 13.9226 5.24408C13.7663 5.0878 13.5543 5 13.3333 5H6.66667ZM5 10.8333C4.83518 10.8333 4.67406 10.8822 4.53702 10.9738C4.39998 11.0653 4.29317 11.1955 4.2301 11.3478C4.16703 11.5 4.15052 11.6676 4.18268 11.8292C4.21483 11.9909 4.2942 12.1394 4.41074 12.2559C4.52729 12.3725 4.67577 12.4518 4.83742 12.484C4.99907 12.5161 5.16663 12.4996 5.3189 12.4366C5.47117 12.3735 5.60132 12.2667 5.69289 12.1296C5.78446 11.9926 5.83333 11.8315 5.83333 11.6667C5.83333 11.4457 5.74553 11.2337 5.58925 11.0774C5.43297 10.9211 5.22101 10.8333 5 10.8333ZM8.33333 10.8333C8.16851 10.8333 8.0074 10.8822 7.87036 10.9738C7.73331 11.0653 7.6265 11.1955 7.56343 11.3478C7.50036 11.5 7.48386 11.6676 7.51601 11.8292C7.54816 11.9909 7.62753 12.1394 7.74408 12.2559C7.86062 12.3725 8.00911 12.4518 8.17076 12.484C8.33241 12.5161 8.49996 12.4996 8.65223 12.4366C8.80451 12.3735 8.93466 12.2667 9.02622 12.1296C9.11779 11.9926 9.16666 11.8315 9.16666 11.6667C9.16666 11.4457 9.07887 11.2337 8.92259 11.0774C8.76631 10.9211 8.55435 10.8333 8.33333 10.8333ZM11.6667 10.8333C11.5018 10.8333 11.3407 10.8822 11.2037 10.9738C11.0666 11.0653 10.9598 11.1955 10.8968 11.3478C10.8337 11.5 10.8172 11.6676 10.8493 11.8292C10.8815 11.9909 10.9609 12.1394 11.0774 12.2559C11.194 12.3725 11.3424 12.4518 11.5041 12.484C11.6657 12.5161 11.8333 12.4996 11.9856 12.4366C12.1378 12.3735 12.268 12.2667 12.3596 12.1296C12.4511 11.9926 12.5 11.8315 12.5 11.6667C12.5 11.4457 12.4122 11.2337 12.2559 11.0774C12.0996 10.9211 11.8877 10.8333 11.6667 10.8333ZM5 14.1667C4.83518 14.1667 4.67406 14.2155 4.53702 14.3071C4.39998 14.3987 4.29317 14.5288 4.2301 14.6811C4.16703 14.8334 4.15052 15.0009 4.18268 15.1626C4.21483 15.3242 4.2942 15.4727 4.41074 15.5893C4.52729 15.7058 4.67577 15.7852 4.83742 15.8173C4.99907 15.8495 5.16663 15.833 5.3189 15.7699C5.47117 15.7068 5.60132 15.6 5.69289 15.463C5.78446 15.3259 5.83333 15.1648 5.83333 15C5.83333 14.779 5.74553 14.567 5.58925 14.4107C5.43297 14.2545 5.22101 14.1667 5 14.1667ZM8.33333 14.1667C8.16851 14.1667 8.0074 14.2155 7.87036 14.3071C7.73331 14.3987 7.6265 14.5288 7.56343 14.6811C7.50036 14.8334 7.48386 15.0009 7.51601 15.1626C7.54816 15.3242 7.62753 15.4727 7.74408 15.5893C7.86062 15.7058 8.00911 15.7852 8.17076 15.8173C8.33241 15.8495 8.49996 15.833 8.65223 15.7699C8.80451 15.7068 8.93466 15.6 9.02622 15.463C9.11779 15.3259 9.16666 15.1648 9.16666 15C9.16666 14.779 9.07887 14.567 8.92259 14.4107C8.76631 14.2545 8.55435 14.1667 8.33333 14.1667ZM15 10.8333C14.8352 10.8333 14.6741 10.8822 14.537 10.9738C14.4 11.0653 14.2932 11.1955 14.2301 11.3478C14.167 11.5 14.1505 11.6676 14.1827 11.8292C14.2148 11.9909 14.2942 12.1394 14.4107 12.2559C14.5273 12.3725 14.6758 12.4518 14.8374 12.484C14.9991 12.5161 15.1666 12.4996 15.3189 12.4366C15.4712 12.3735 15.6013 12.2667 15.6929 12.1296C15.7845 11.9926 15.8333 11.8315 15.8333 11.6667C15.8333 11.4457 15.7455 11.2337 15.5893 11.0774C15.433 10.9211 15.221 10.8333 15 10.8333ZM15.8333 15C15.8333 14.779 15.7455 14.567 15.5893 14.4107C15.433 14.2545 15.221 14.1667 15 14.1667H11.6667C11.4457 14.1667 11.2337 14.2545 11.0774 14.4107C10.9211 14.567 10.8333 14.779 10.8333 15C10.8333 15.221 10.9211 15.433 11.0774 15.5893C11.2337 15.7455 11.4457 15.8333 11.6667 15.8333H15C15.221 15.8333 15.433 15.7455 15.5893 15.5893C15.7455 15.433 15.8333 15.221 15.8333 15Z" fill="#4F84EB"/>
</g>
<defs>
<clipPath id="clip0">
<rect width="20" height="20" fill="white"/>
</clipPath>
</defs>
</svg>
