<svg width="20" height="20" viewBox="0 0 20 20" fill="none" xmlns="http://www.w3.org/2000/svg">
<g clip-path="url(#clip0)">
<path d="M10 0C8.02219 0 6.08879 0.58649 4.4443 1.6853C2.79981 2.78412 1.51809 4.3459 0.761209 6.17316C0.00433286 8.00043 -0.193701 10.0111 0.192152 11.9509C0.578004 13.8907 1.53041 15.6725 2.92894 17.0711C4.32746 18.4696 6.10929 19.422 8.0491 19.8078C9.98891 20.1937 11.9996 19.9957 13.8268 19.2388C15.6541 18.4819 17.2159 17.2002 18.3147 15.5557C19.4135 13.9112 20 11.9778 20 10C19.9971 7.34871 18.9426 4.80684 17.0679 2.9321C15.1932 1.05736 12.6513 0.00286757 10 0V0ZM10 18.3333C8.35183 18.3333 6.74066 17.8446 5.37025 16.9289C3.99984 16.0132 2.93174 14.7117 2.30101 13.189C1.67028 11.6663 1.50525 9.99076 1.82679 8.37425C2.14834 6.75774 2.94201 5.27288 4.10745 4.10744C5.27289 2.94201 6.75774 2.14833 8.37425 1.82679C9.99076 1.50525 11.6663 1.67027 13.189 2.301C14.7118 2.93173 16.0132 3.99984 16.9289 5.37025C17.8446 6.74066 18.3333 8.35182 18.3333 10C18.3309 12.2094 17.4522 14.3276 15.8899 15.8899C14.3276 17.4522 12.2094 18.3309 10 18.3333Z" fill="#4F84EB"/>
<path d="M10.5975 4.21918C10.1169 4.13162 9.62301 4.15075 9.15067 4.27521C8.67832 4.39968 8.2391 4.62643 7.86408 4.93943C7.48907 5.25243 7.18743 5.64403 6.98051 6.08651C6.7736 6.52899 6.66645 7.01154 6.66667 7.50001C6.66667 7.72103 6.75447 7.93299 6.91075 8.08927C7.06703 8.24555 7.27899 8.33335 7.50001 8.33335C7.72102 8.33335 7.93298 8.24555 8.08926 8.08927C8.24554 7.93299 8.33334 7.72103 8.33334 7.50001C8.33313 7.25483 8.38702 7.01261 8.49117 6.79064C8.59531 6.56868 8.74715 6.37242 8.93585 6.21587C9.12456 6.05932 9.34548 5.94633 9.58286 5.88497C9.82024 5.8236 10.0682 5.81536 10.3092 5.86085C10.6384 5.92475 10.9411 6.08533 11.1785 6.32209C11.416 6.55884 11.5776 6.86102 11.6425 7.19001C11.7081 7.53535 11.6628 7.89258 11.5131 8.21063C11.3635 8.52868 11.1171 8.79127 10.8092 8.96085C10.2993 9.25623 9.87799 9.68294 9.58911 10.1965C9.30023 10.7101 9.15435 11.2917 9.16667 11.8808V12.5C9.16667 12.721 9.25447 12.933 9.41075 13.0893C9.56703 13.2456 9.77899 13.3333 10 13.3333C10.221 13.3333 10.433 13.2456 10.5893 13.0893C10.7455 12.933 10.8333 12.721 10.8333 12.5V11.8808C10.8229 11.5909 10.889 11.3032 11.0251 11.0469C11.1611 10.7906 11.3623 10.5747 11.6083 10.4208C12.2121 10.0892 12.6983 9.57873 13.0001 8.95952C13.3019 8.34031 13.4044 7.64281 13.2936 6.96295C13.1828 6.28309 12.864 5.65426 12.3813 5.16293C11.8985 4.67159 11.2753 4.3419 10.5975 4.21918Z" fill="#4F84EB"/>
<path d="M10.8333 15C10.8333 14.5398 10.4602 14.1667 10 14.1667C9.53977 14.1667 9.16667 14.5398 9.16667 15C9.16667 15.4602 9.53977 15.8333 10 15.8333C10.4602 15.8333 10.8333 15.4602 10.8333 15Z" fill="#4F84EB"/>
</g>
<defs>
<clipPath id="clip0">
<rect width="20" height="20" fill="white"/>
</clipPath>
</defs>
</svg>
