<svg width="40" height="40" viewBox="0 0 40 40" fill="none" xmlns="http://www.w3.org/2000/svg">
<g clip-path="url(#clip0)">
<path d="M31.6126 24.7784C30.7937 23.9257 29.806 23.4698 28.7591 23.4698C27.7207 23.4698 26.7245 23.9173 25.8719 24.7699L23.2041 27.4292C22.9846 27.311 22.7651 27.2013 22.554 27.0916C22.2501 26.9396 21.9631 26.7961 21.7183 26.6441C19.2193 25.057 16.9484 22.9886 14.7703 20.3124C13.715 18.9785 13.0058 17.8557 12.4909 16.716C13.1831 16.0828 13.8247 15.4243 14.4495 14.7912C14.6858 14.5548 14.9222 14.3099 15.1586 14.0736C16.9315 12.3007 16.9315 10.0044 15.1586 8.23151L12.8539 5.92677C12.5922 5.66506 12.322 5.39491 12.0687 5.12475C11.5622 4.60133 11.0303 4.06103 10.4816 3.55449C9.66269 2.74403 8.68339 2.31348 7.65343 2.31348C6.62347 2.31348 5.62729 2.74403 4.78306 3.55449C4.77462 3.56293 4.77462 3.56293 4.76617 3.57138L1.8958 6.46708C0.81519 7.54769 0.198904 8.86468 0.0638277 10.3927C-0.138787 12.8579 0.587249 15.1542 1.14444 16.6569C2.51209 20.3462 4.55512 23.7653 7.60278 27.4292C11.3005 31.8445 15.7496 35.3312 20.8318 37.7879C22.7735 38.7081 25.3653 39.7972 28.261 39.9829C28.4383 39.9913 28.624 39.9998 28.7929 39.9998C30.7431 39.9998 32.3809 39.2991 33.6641 37.9061C33.6725 37.8892 33.6894 37.8808 33.6978 37.8639C34.1368 37.332 34.6434 36.8508 35.1752 36.3358C35.5383 35.9897 35.9097 35.6267 36.2727 35.2468C37.1085 34.3772 37.5475 33.3642 37.5475 32.3258C37.5475 31.2789 37.1001 30.2743 36.2474 29.4301L31.6126 24.7784ZM34.6349 33.6681C34.6265 33.6681 34.6265 33.6765 34.6349 33.6681C34.3057 34.0227 33.968 34.3435 33.605 34.698C33.0562 35.2215 32.499 35.7702 31.9756 36.3865C31.123 37.2983 30.1183 37.7288 28.8013 37.7288C28.6747 37.7288 28.5396 37.7288 28.413 37.7204C25.9056 37.56 23.5756 36.5807 21.828 35.7449C17.0497 33.4317 12.8539 30.1477 9.36721 25.9856C6.4884 22.5158 4.56356 19.3078 3.28878 15.8633C2.50364 13.7612 2.21661 12.1234 2.34324 10.5785C2.42766 9.59072 2.80757 8.77182 3.50828 8.07111L6.38709 5.19229C6.80076 4.80395 7.23976 4.59289 7.67032 4.59289C8.20218 4.59289 8.63274 4.9137 8.90289 5.18385C8.91133 5.19229 8.91977 5.20073 8.92822 5.20918C9.44319 5.69039 9.93285 6.18848 10.4478 6.72034C10.7095 6.9905 10.9797 7.26065 11.2498 7.53924L13.5546 9.84399C14.4495 10.7389 14.4495 11.5662 13.5546 12.4611C13.3098 12.7059 13.0734 12.9507 12.8285 13.1871C12.1194 13.9132 11.444 14.5885 10.7095 15.247C10.6927 15.2639 10.6758 15.2724 10.6673 15.2893C9.94129 16.0153 10.0764 16.7244 10.2283 17.2056C10.2368 17.231 10.2452 17.2563 10.2537 17.2816C10.8531 18.7337 11.6973 20.1013 12.9805 21.7307L12.9889 21.7391C15.319 24.6095 17.7757 26.8467 20.4857 28.5605C20.8318 28.78 21.1864 28.9573 21.5241 29.1261C21.828 29.2781 22.115 29.4216 22.3599 29.5736C22.3936 29.5905 22.4274 29.6158 22.4612 29.6327C22.7482 29.7762 23.0184 29.8437 23.297 29.8437C23.9977 29.8437 24.4367 29.4047 24.5802 29.2612L27.4674 26.374C27.7545 26.0869 28.2104 25.7408 28.7422 25.7408C29.2657 25.7408 29.6962 26.07 29.9579 26.3571C29.9664 26.3655 29.9664 26.3655 29.9748 26.374L34.6265 31.0257C35.496 31.8868 35.496 32.7732 34.6349 33.6681Z" fill="#4F84EB"/>
<path d="M21.617 9.51481C23.8288 9.88627 25.8381 10.9331 27.4421 12.5371C29.0462 14.1412 30.0845 16.1504 30.4644 18.3623C30.5573 18.9195 31.0385 19.3078 31.5873 19.3078C31.6548 19.3078 31.7139 19.2994 31.7814 19.291C32.4062 19.1897 32.8198 18.5987 32.7185 17.974C32.2627 15.2978 30.9963 12.8579 29.063 10.9247C27.1298 8.99139 24.6899 7.72505 22.0137 7.26916C21.389 7.16786 20.8065 7.58153 20.6967 8.19781C20.587 8.8141 20.9922 9.4135 21.617 9.51481Z" fill="#4F84EB"/>
<path d="M39.9536 17.6448C39.2022 13.238 37.1254 9.2279 33.9342 6.03672C30.7431 2.84554 26.733 0.768738 22.3261 0.0173754C21.7098 -0.0923741 21.1273 0.32974 21.0176 0.946026C20.9162 1.57075 21.3299 2.15327 21.9546 2.26302C25.8887 2.92996 29.4767 4.7957 32.3302 7.64075C35.1837 10.4942 37.041 14.0822 37.7079 18.0163C37.8008 18.5735 38.282 18.9618 38.8307 18.9618C38.8983 18.9618 38.9574 18.9534 39.0249 18.945C39.6412 18.8521 40.0633 18.2611 39.9536 17.6448Z" fill="#4F84EB"/>
</g>
<defs>
<clipPath id="clip0">
<rect width="40" height="40" fill="white"/>
</clipPath>
</defs>
</svg>
