<svg xmlns="http://www.w3.org/2000/svg" xmlns:xlink="http://www.w3.org/1999/xlink" viewBox="0 0 3710 3710"><defs><style>.cls-1{fill:none;}.cls-2{isolation:isolate;}.cls-3,.cls-49,.cls-6{fill:#fff;}.cls-4{fill:#f4f7fa;}.cls-5{fill:url(#linear-gradient);}.cls-6{opacity:0.16;mix-blend-mode:screen;}.cls-7{fill:url(#linear-gradient-2);}.cls-8{fill:url(#linear-gradient-3);}.cls-9{fill:#d8dee8;}.cls-10{clip-path:url(#clip-path);}.cls-11{fill:url(#linear-gradient-4);}.cls-12{fill:url(#linear-gradient-5);}.cls-13{clip-path:url(#clip-path-2);}.cls-14{fill:url(#linear-gradient-6);}.cls-15{fill:#97a6b7;}.cls-16{clip-path:url(#clip-path-3);}.cls-17,.cls-18,.cls-19{opacity:0.53;}.cls-17{fill:url(#linear-gradient-7);}.cls-18{fill:url(#linear-gradient-8);}.cls-19{fill:url(#linear-gradient-9);}.cls-20{fill:url(#linear-gradient-10);}.cls-21{fill:url(#linear-gradient-11);}.cls-22{fill:url(#linear-gradient-12);}.cls-23{fill:url(#linear-gradient-13);}.cls-24,.cls-45,.cls-49{opacity:0.3;}.cls-24,.cls-45,.cls-47,.cls-53{mix-blend-mode:multiply;}.cls-25{fill:url(#linear-gradient-14);}.cls-26{fill:url(#linear-gradient-15);}.cls-27{fill:url(#linear-gradient-16);}.cls-28{fill:url(#linear-gradient-17);}.cls-29{fill:url(#linear-gradient-18);}.cls-30{fill:url(#linear-gradient-19);}.cls-31{fill:url(#linear-gradient-20);}.cls-32{fill:url(#linear-gradient-21);}.cls-33{fill:url(#linear-gradient-22);}.cls-34{fill:url(#linear-gradient-23);}.cls-35{fill:url(#linear-gradient-24);}.cls-36{fill:url(#linear-gradient-25);}.cls-37{fill:url(#linear-gradient-26);}.cls-38{fill:url(#linear-gradient-27);}.cls-39{fill:url(#linear-gradient-28);}.cls-40{fill:url(#linear-gradient-29);}.cls-41{fill:url(#linear-gradient-30);}.cls-42{fill:url(#linear-gradient-31);}.cls-43{fill:url(#linear-gradient-32);}.cls-44{fill:url(#linear-gradient-33);}.cls-45{fill:url(#linear-gradient-34);}.cls-46{fill:url(#linear-gradient-35);}.cls-47,.cls-53{opacity:0.6;}.cls-47{fill:url(#linear-gradient-36);}.cls-48{fill:url(#linear-gradient-37);}.cls-49{mix-blend-mode:overlay;}.cls-50{fill:url(#linear-gradient-38);}.cls-51{fill:url(#linear-gradient-39);}.cls-52{fill:url(#linear-gradient-40);}.cls-53{fill:url(#linear-gradient-41);}.cls-54{fill:url(#linear-gradient-42);}</style><linearGradient id="linear-gradient" x1="981.43" y1="1346.57" x2="1987.79" y2="1346.57" gradientTransform="matrix(-0.98, 0.21, 0.21, 0.98, 3750.48, -185.72)" gradientUnits="userSpaceOnUse"><stop offset="0" stop-color="#e38ddd"/><stop offset="1" stop-color="#9571f6"/></linearGradient><linearGradient id="linear-gradient-2" x1="1247.93" y1="1096.38" x2="2254.29" y2="1096.38" gradientTransform="matrix(-1, 0.03, 0.03, 1, 4473.32, 751.9)" gradientUnits="userSpaceOnUse"><stop offset="0" stop-color="#ff9085"/><stop offset="1" stop-color="#fb6fbb"/></linearGradient><linearGradient id="linear-gradient-3" x1="682.77" y1="1827.99" x2="1411.52" y2="1827.99" gradientTransform="matrix(1, 0, 0, 1, 0, 0)" xlink:href="#linear-gradient-2"/><clipPath id="clip-path"><polygon class="cls-1" points="739.1 2762.97 739.1 891.65 1411.52 846.45 1411.52 2809.52 739.1 2762.97"/></clipPath><linearGradient id="linear-gradient-4" x1="2198.67" y1="626.85" x2="2778.24" y2="1924.8" gradientUnits="userSpaceOnUse"><stop offset="0" stop-color="#fcb148"/><stop offset="0.05" stop-color="#fdba46"/><stop offset="0.14" stop-color="#ffc244"/><stop offset="0.32" stop-color="#ffc444"/><stop offset="0.48" stop-color="#fdb946"/><stop offset="0.78" stop-color="#f99c4d"/><stop offset="0.87" stop-color="#f8924f"/><stop offset="1" stop-color="#f8924f"/></linearGradient><linearGradient id="linear-gradient-5" x1="2140.39" y1="1331.92" x2="2984.83" y2="3506.98" gradientTransform="translate(4667.07 3658.82) rotate(-180)" xlink:href="#linear-gradient-2"/><clipPath id="clip-path-2"><rect class="cls-1" x="1425.4" y="1438.23" width="1747.36" height="781.02" transform="translate(4127.82 -470.34) rotate(90)"/></clipPath><linearGradient id="linear-gradient-6" x1="1207.83" y1="1826.75" x2="2130.58" y2="1832.34" gradientTransform="matrix(1, 0, 0, 1, 0, 0)" xlink:href="#linear-gradient-2"/><clipPath id="clip-path-3"><polygon class="cls-1" points="1411.52 2809.52 1411.52 846.45 1908.57 955.06 1908.57 2702.56 1411.52 2809.52"/></clipPath><linearGradient id="linear-gradient-7" x1="2292.44" y1="1872.63" x2="2305.71" y2="1872.63" gradientUnits="userSpaceOnUse"><stop offset="0" stop-color="#311944"/><stop offset="1" stop-color="#a03976"/></linearGradient><linearGradient id="linear-gradient-8" x1="1068.67" y1="1829.63" x2="1081.94" y2="1829.63" xlink:href="#linear-gradient-7"/><linearGradient id="linear-gradient-9" x1="738.54" y1="1503.48" x2="2689.59" y2="1503.48" xlink:href="#linear-gradient-7"/><linearGradient id="linear-gradient-10" x1="871.04" y1="1884.26" x2="2387.34" y2="1884.26" gradientUnits="userSpaceOnUse"><stop offset="0" stop-color="#aa80f9"/><stop offset="1" stop-color="#6165d7"/></linearGradient><linearGradient id="linear-gradient-11" x1="871.36" y1="1736.35" x2="2377.75" y2="1736.35" xlink:href="#linear-gradient-10"/><linearGradient id="linear-gradient-12" x1="870.76" y1="1809.54" x2="2387.28" y2="1809.54" xlink:href="#linear-gradient-10"/><linearGradient id="linear-gradient-13" x1="868.1" y1="814.66" x2="1312.18" y2="1958.51" xlink:href="#linear-gradient-10"/><linearGradient id="linear-gradient-14" x1="709.09" y1="876.39" x2="1153.17" y2="2020.24" xlink:href="#linear-gradient-10"/><linearGradient id="linear-gradient-15" x1="1040.57" y1="1692.09" x2="752.15" y2="2129.87" xlink:href="#linear-gradient-10"/><linearGradient id="linear-gradient-16" x1="2345.97" y1="1308.84" x2="2548.05" y2="1829.35" gradientTransform="matrix(1, 0, 0, 1, 0, 0)" xlink:href="#linear-gradient-2"/><linearGradient id="linear-gradient-17" x1="2273.61" y1="1336.93" x2="2475.69" y2="1857.45" gradientTransform="matrix(1, 0, 0, 1, 0, 0)" xlink:href="#linear-gradient-2"/><linearGradient id="linear-gradient-18" x1="2424.45" y1="1708.12" x2="2293.2" y2="1907.33" gradientTransform="translate(619.89 -610.61) rotate(16.85)" xlink:href="#linear-gradient-2"/><linearGradient id="linear-gradient-19" x1="4286.5" y1="2975.89" x2="4627.6" y2="2975.89" gradientTransform="matrix(-1, 0, 0, 1, 6349, 0)" gradientUnits="userSpaceOnUse"><stop offset="0" stop-color="#444b8c"/><stop offset="1" stop-color="#26264f"/></linearGradient><linearGradient id="linear-gradient-20" x1="3931.44" y1="2899.7" x2="4114.64" y2="2899.7" gradientTransform="matrix(-1, 0, 0, 1, 6349, 0)" gradientUnits="userSpaceOnUse"><stop offset="0" stop-color="#311944"/><stop offset="1" stop-color="#6b3976"/></linearGradient><linearGradient id="linear-gradient-21" x1="3892.86" y1="2899.7" x2="4076.05" y2="2899.7" xlink:href="#linear-gradient-20"/><linearGradient id="linear-gradient-22" x1="4805.89" y1="3021" x2="5030.32" y2="3021" xlink:href="#linear-gradient-20"/><linearGradient id="linear-gradient-23" x1="4758.61" y1="3021" x2="4983.05" y2="3021" xlink:href="#linear-gradient-20"/><linearGradient id="linear-gradient-24" x1="4380.91" y1="3096.62" x2="4601.85" y2="3096.62" xlink:href="#linear-gradient-20"/><linearGradient id="linear-gradient-25" x1="4334.37" y1="3096.62" x2="4555.31" y2="3096.62" xlink:href="#linear-gradient-20"/><linearGradient id="linear-gradient-26" x1="4513.79" y1="3088.51" x2="4412.62" y2="3099.44" gradientTransform="matrix(-1, 0, 0, 1, 6349, 0)" gradientUnits="userSpaceOnUse"><stop offset="0.01" stop-color="#d8dee8"/><stop offset="1" stop-color="#f4f7fa"/></linearGradient><linearGradient id="linear-gradient-27" x1="3389.66" y1="2880.06" x2="3870.89" y2="2880.06" xlink:href="#linear-gradient-19"/><linearGradient id="linear-gradient-28" x1="3570.13" y1="2868.34" x2="4142.5" y2="2868.34" xlink:href="#linear-gradient-19"/><linearGradient id="linear-gradient-29" x1="3503.9" y1="2960.12" x2="3687.09" y2="2960.12" xlink:href="#linear-gradient-20"/><linearGradient id="linear-gradient-30" x1="3465.31" y1="2960.12" x2="3648.51" y2="2960.12" xlink:href="#linear-gradient-20"/><linearGradient id="linear-gradient-31" x1="3643.2" y1="2972.42" x2="3501.02" y2="2953.28" xlink:href="#linear-gradient-26"/><linearGradient id="linear-gradient-32" x1="3223.79" y1="2450.91" x2="3993.02" y2="2450.91" gradientTransform="matrix(-1, 0, 0, 1, 6349, 0)" gradientUnits="userSpaceOnUse"><stop offset="0" stop-color="#ffc444"/><stop offset="1" stop-color="#f36f56"/></linearGradient><linearGradient id="linear-gradient-33" x1="3993.02" y1="2450.91" x2="4579.98" y2="2450.91" xlink:href="#linear-gradient-32"/><linearGradient id="linear-gradient-34" x1="3223.79" y1="2459.3" x2="3921.95" y2="2459.3" xlink:href="#linear-gradient-32"/><linearGradient id="linear-gradient-35" x1="4067.6" y1="2721.81" x2="5110.42" y2="2721.81" xlink:href="#linear-gradient-26"/><linearGradient id="linear-gradient-36" x1="4582.25" y1="2740.45" x2="4101.03" y2="3502.39" xlink:href="#linear-gradient-26"/><linearGradient id="linear-gradient-37" x1="4346.12" y1="2537.51" x2="4909.09" y2="2537.51" xlink:href="#linear-gradient-19"/><linearGradient id="linear-gradient-38" x1="4927.72" y1="2781.44" x2="4922.26" y2="3102.26" xlink:href="#linear-gradient-19"/><linearGradient id="linear-gradient-39" x1="4630.65" y1="2765.73" x2="4792.88" y2="3051.91" gradientTransform="matrix(-1, 0, 0, 1, 6349, 0)" xlink:href="#linear-gradient-4"/><linearGradient id="linear-gradient-40" x1="4524.35" y1="3004.51" x2="5110.42" y2="3004.51" xlink:href="#linear-gradient-19"/><linearGradient id="linear-gradient-41" x1="4678.2" y1="3031.55" x2="5110.42" y2="3031.55" xlink:href="#linear-gradient-19"/><linearGradient id="linear-gradient-42" x1="4133.43" y1="2561.31" x2="4398" y2="2561.31" xlink:href="#linear-gradient-19"/></defs><title>Truck</title><g class="cls-2"><g id="Background"><rect class="cls-3" width="3710" height="3710"/></g><g id="Illustration"><path class="cls-4" d="M3211.56,1649.07c-75.76-495.93-386.41-1105.22-1000.12-1169,0,0-466-56.68-925.29,29.22-272.61,51-511.66,202.74-662.91,420.86s-201.78,484.08-140.47,737.64c39.83,164.7,66.74,335.15,59.36,504.38-12.86,294.53-5.46,569.45,280.37,745.1,255.22,156.83,576.41,295.15,882.84,319.38,208.24,16.47,441.77-10.18,642.48-64.39C3370.67,2896,3287.33,2145,3211.56,1649.07Z"/><path class="cls-5" d="M2419.77,2145.2c-41-5.07-110.1-13.6-168.26-65.71-105.75-94.73-106.8-272-65.28-392.12,35.67-103.18,121.36-181.11,292.73-337,161.4-146.79,221.05-170.84,224.28-243.85,4.6-104.09-112-160.53-88.39-281.16,2.82-14.47,12.54-64.19,52.06-89.15,67.65-42.75,175.14,17,229,65.54,52,46.81,115.11,138.06,94.72,224.3-14.76,62.49-60.82,69.26-61.19,124.42-.37,55.51,46.14,65.39,81.73,150.41,14.22,34,42.76,102.14,22.15,168.69-26.65,86.06-111.35,91.5-115,159.83-2.65,49.37,40.71,62.67,49.43,117.78,11.48,72.55-49.68,137.89-101.3,191.59C2805.7,2002,2641.72,2172.62,2419.77,2145.2Z"/><path class="cls-6" d="M2700.18,762.08c-33.76,35.48,105.12,134.08,106,301.66,1,180.3-158.35,330.46-232,399.85-125.63,118.4-190.74,112.14-262.78,231.27-28.51,47.16-87.9,145.39-55.85,258.19,3,10.49,37.92,126.84,140.84,164.16,116.74,42.34,232.18-49.19,331.65-128,60.1-47.65,180.16-142.85,155.2-215.24-15.25-44.25-81.19-69.8-131.31-70.81-71.54-1.44-120.65,46.89-129.26,36.28-7.76-9.56,24.62-58,74.22-99.1,99.2-82.25,165.85-51.26,237.23-123.49,8.65-8.76,76.2-79.13,60.76-162.13-8.9-47.86-45.63-101.18-86.16-103-45.83-2.06-76.72,62.65-88.76,55.37-11.51-7,9.74-70.34,39.89-129.91,44.31-87.54,70.91-93.92,83.26-146.12,18.84-79.64-22.88-150.22-29-160.28C2856.58,776.46,2729,731.75,2700.18,762.08Z"/><path class="cls-7" d="M2468.29,2560.07c-39.43-12.43-105.8-33.36-153.54-95.16-86.8-112.35-55.66-286.86,7-397.46,53.8-95,152.21-156.07,349-278.24,185.36-115.06,248.39-127.88,264.81-199.1,23.42-101.52-81-178.18-35.9-292.52,5.41-13.73,24-60.85,67.39-78.23,74.28-29.76,169.14,48.53,213.34,106,42.63,55.46,88.14,156.65,52.44,237.76-25.87,58.77-72.39,57.07-82.76,111.25-10.44,54.51,33.5,72.68,53.07,162.74,7.82,36,23.52,108.2-8.83,169.91-41.83,79.79-126.11,69.77-142.11,136.31-11.56,48.07,28.66,69,27.23,124.79-1.88,73.42-73.88,126.58-134.38,170C2873.8,2489.32,2681.58,2627.31,2468.29,2560.07Z"/><path class="cls-6" d="M2995.07,1250.81c-39.63,28.76,79,150.93,49.53,315.89-31.76,177.49-215.69,296.24-300.7,351.11-145,93.63-207.92,75.66-300.38,179.74-36.6,41.2-112.84,127-101.79,243.77,1,10.84,14.27,131.61,108.71,187,107.12,62.82,237.25-6.23,349.37-65.73,67.76-36,203.1-107.78,191.7-183.5-7-46.29-67.18-83.37-116.28-93.46-70.09-14.41-127.16,24.21-133.7,12.21-5.89-10.81,34.74-52.54,91-84,112.48-62.88,172.4-20.31,255.7-78.39,10.1-7,89.29-64,89.18-148.4-.07-48.69-26.52-107.78-66-116.92-44.69-10.34-86.82,47.68-97.33,38.34-10.06-8.93,22.34-67.4,62.8-120.52,59.46-78,86.78-79.48,108.4-128.57,33-74.9,4.76-151.88.54-162.89C3146.27,1293.34,3029,1226.22,2995.07,1250.81Z"/><polygon class="cls-8" points="1411.52 2908.04 682.77 2852.6 682.77 801.9 1411.52 747.93 1411.52 2908.04"/><polygon class="cls-9" points="753.36 1549.69 753.36 2421.19 739.1 2421.19 739.1 2644.24 1411.52 2644.24 1411.52 1549.69 753.36 1549.69"/><g class="cls-10"><path class="cls-3" d="M1629.64,598.47s.71,471.76,106.5,688.32,145.59,427.39,66,550.84-390.6-64.92-390.6-64.92-146.74,103.53-213.08,325.07S700.9,2503.91,608,2441.47,555,707.12,555,707.12Z"/><path class="cls-3" d="M588.12,2568.59s261.29,121.85,459,9.26,364.38-314.93,364.38-314.93,201.09,123.23,309.11,116.34,187.94-353.47,187.94-353.47,178.81-88.87,258.42-269.17,324-376.66,457.73-417.79S2837,1374.48,2837,1374.48l-33.17,1571.58L739.09,3054.19Z"/><path class="cls-11" d="M1764.84,657.14s-70.45,323.25,0,408.93S1889,1397,1908.57,1463.43s172.18,211.91,251.78,79.47,199-229,258.72-273.6,437.84-90.36,457.74-123.86S2910,731.82,2910,731.82Z"/></g><rect class="cls-12" x="1908.57" y="868.61" width="849.93" height="1921.59" transform="translate(4667.07 3658.82) rotate(180)"/><polygon class="cls-9" points="2689.59 2702.42 2689.59 955.06 1908.57 955.06 1674.2 1614.89 1908.57 2702.42 2689.59 2702.42"/><g class="cls-13"><path class="cls-3" d="M1629.64,598.47s.71,471.76,106.5,688.32,145.59,427.39,66,550.84-390.6-64.92-390.6-64.92-146.74,103.53-213.08,325.07S700.9,2503.91,608,2441.47,555,707.12,555,707.12Z"/><path class="cls-3" d="M588.12,2568.59s261.29,121.85,459,9.26,364.38-314.93,364.38-314.93,201.09,123.23,309.11,116.34,187.94-353.47,187.94-353.47,178.81-88.87,258.42-269.17,324-376.66,457.73-417.79S2837,1374.48,2837,1374.48l-33.17,1571.58L739.09,3054.19Z"/><path class="cls-3" d="M1764.84,657.14s-70.45,323.25,0,408.93S1889,1397,1908.57,1463.43s172.18,211.91,251.78,79.47,199-229,258.72-273.6,437.84-90.36,457.74-123.86S2910,731.82,2910,731.82Z"/></g><polygon class="cls-14" points="1908.57 2790.2 1411.52 2908.04 1411.52 747.93 1908.57 868.61 1908.57 955.06 1815.53 1139.75 1787.1 2665.89 1908.57 2702.42 1908.57 2790.2"/><polygon class="cls-15" points="1908.57 2409.7 1908.57 977.51 1733.55 917.59 1646.74 898.42 1631.76 896.66 1631.76 1770.44 1411.52 1770.44 1411.52 2409.7 1908.57 2409.7"/><g class="cls-16"><path class="cls-9" d="M1629.64,598.47s.71,471.76,106.5,688.32,145.59,427.39,66,550.84-390.6-64.92-390.6-64.92-146.74,103.53-213.08,325.07S700.9,2503.91,608,2441.47,555,707.12,555,707.12Z"/><path class="cls-9" d="M588.12,2568.59s261.29,121.85,459,9.26,364.38-314.93,364.38-314.93,201.09,123.23,309.11,116.34,187.94-353.47,187.94-353.47,178.81-88.87,258.42-269.17,324-376.66,457.73-417.79S2837,1374.48,2837,1374.48l-33.17,1571.58L739.09,3054.19Z"/><path class="cls-9" d="M1764.84,657.14s-70.45,323.25,0,408.93S1889,1397,1908.57,1463.43s172.18,211.91,251.78,79.47,199-229,258.72-273.6,437.84-90.36,457.74-123.86S2910,731.82,2910,731.82Z"/></g><rect class="cls-17" x="2292.44" y="955.06" width="13.27" height="1835.14"/><rect class="cls-18" x="1068.67" y="869.05" width="13.27" height="1921.15"/><polygon class="cls-19" points="2689.59 1569.21 1907.79 1569.21 1907.04 1569.03 1411.02 1451.14 739.65 1507.84 738.54 1494.62 1412.02 1437.74 1413.05 1437.99 1909.35 1555.94 2689.59 1555.94 2689.59 1569.21"/><path class="cls-20" d="M886.48,1905.85a15.42,15.42,0,0,1-9.2-27.81s6-4.42,16.33-12.25a15.42,15.42,0,0,1,18.58,24.62c-10.53,8-16.54,12.41-16.54,12.41A15.39,15.39,0,0,1,886.48,1905.85Z"/><path class="cls-21" d="M2207,1966c-9.15,0-19.63-1.31-32.05-4a15.42,15.42,0,1,1,6.53-30.14c14.88,3.22,26.74,4.08,33.83,2.55a15.42,15.42,0,0,1,7.21,30l-.48.11A70.45,70.45,0,0,1,2207,1966Zm50.39-14.34a15.42,15.42,0,0,1-6.63-29.35,172.58,172.58,0,0,0,31.84-19.74,15.42,15.42,0,1,1,19,24.33,202.69,202.69,0,0,1-37.55,23.26A15.28,15.28,0,0,1,2257.35,1951.64Zm-118.55-.53a15.23,15.23,0,0,1-4.94-.82c-12-4-25.17-9-39.22-14.58a15.42,15.42,0,0,1,11.48-28.62c13.52,5.42,26.17,10.12,37.61,14a15.43,15.43,0,0,1-4.93,30Zm-76.19-30.23a15.49,15.49,0,0,1-6.22-1.32c-11.93-5.28-24.59-11.06-37.61-17.19a15.42,15.42,0,0,1,13.14-27.91c12.8,6,25.23,11.71,36.94,16.88a15.43,15.43,0,0,1-6.25,29.54Zm259-18.86a15.43,15.43,0,0,1-11.6-25.59,239.47,239.47,0,0,0,22.84-30.87,15.42,15.42,0,0,1,26.15,16.35,270.34,270.34,0,0,1-25.78,34.84A15.37,15.37,0,0,1,2321.65,1902Zm-333.21-16a15.41,15.41,0,0,1-6.82-1.59c-11.87-5.87-24.25-12.1-36.81-18.52a15.43,15.43,0,0,1,14.06-27.46c12.42,6.36,24.67,12.53,36.4,18.32a15.42,15.42,0,0,1-6.83,29.25Zm-1053-17.29a15.42,15.42,0,0,1-9.41-27.65c9.71-7.47,20.56-15.87,32.26-25a15.42,15.42,0,1,1,19,24.29c-11.77,9.21-22.69,17.66-32.46,25.18A15.39,15.39,0,0,1,935.44,1868.73Zm980-20a15.32,15.32,0,0,1-7.18-1.78q-18.13-9.56-36.29-19.38a15.42,15.42,0,0,1,14.67-27.13q18,9.72,36,19.23a15.42,15.42,0,0,1-7.2,29.06ZM1000,1818.27a15.42,15.42,0,0,1-9.61-27.49c10.28-8.18,20.94-16.72,31.82-25.54a15.42,15.42,0,0,1,19.42,24c-11,8.88-21.69,17.48-32,25.72A15.41,15.41,0,0,1,1000,1818.27Zm843.43-8.52a15.29,15.29,0,0,1-7.44-1.93q-18.12-10-35.9-20a15.43,15.43,0,0,1,15.14-26.88q17.64,9.94,35.68,19.91a15.42,15.42,0,0,1-7.48,28.92ZM1772,1769.54a15.32,15.32,0,0,1-7.66-2q-18.19-10.44-35.57-20.57a15.42,15.42,0,0,1,15.53-26.65c11.49,6.71,23.32,13.55,35.39,20.47a15.43,15.43,0,0,1-7.69,28.8Zm-708.41-2.83a15.43,15.43,0,0,1-9.84-27.31c10.71-8.86,21.23-17.66,31.24-26.15a15.42,15.42,0,1,1,20,23.52c-10.11,8.57-20.72,17.45-31.53,26.4A15.36,15.36,0,0,1,1063.56,1766.71Zm637.59-38.46a15.4,15.4,0,0,1-7.85-2.16c-12.32-7.31-24.12-14.37-35.29-21.1a15.42,15.42,0,0,1,15.93-26.41c11.1,6.7,22.83,13.71,35.09,21a15.42,15.42,0,0,1-7.88,28.69ZM1126,1713.74a15.42,15.42,0,0,1-10.15-27c10.64-9.29,20.86-18.38,30.39-27a15.42,15.42,0,0,1,20.71,22.86c-9.67,8.76-20,18-30.81,27.38A15.4,15.4,0,0,1,1126,1713.74Zm505-27.86a15.27,15.27,0,0,1-8.07-2.29c-12.8-7.87-24.57-15.22-35-21.82a15.42,15.42,0,0,1,16.52-26c10.29,6.53,21.93,13.79,34.61,21.6a15.42,15.42,0,0,1-8.09,28.55Zm-444.37-27.19a15.42,15.42,0,0,1-10.64-26.58c10.41-9.92,20.09-19.46,28.77-28.34a15.42,15.42,0,1,1,22.06,21.55c-8.93,9.15-18.88,19-29.56,29.12A15.4,15.4,0,0,1,1186.59,1658.69Zm375.28-17a15.33,15.33,0,0,1-8.64-2.66c-6.56-4.44-13.26-9-20.07-13.71q-6.81-4.66-13.75-9.42a15.42,15.42,0,1,1,17.38-25.48l13.82,9.47c6.76,4.64,13.4,9.2,19.92,13.61a15.42,15.42,0,0,1-8.66,28.19Zm-318.33-41.8a15.42,15.42,0,0,1-11.65-25.51c4.42-5.12,8.51-10.06,12.13-14.69a168.59,168.59,0,0,1,15.5-17.29A15.42,15.42,0,1,1,1281,1564.6a137.87,137.87,0,0,0-12.64,14.12c-3.93,5-8.34,10.36-13.1,15.86A15.38,15.38,0,0,1,1243.54,1599.91Zm250.48-4a15.34,15.34,0,0,1-8.33-2.45c-12.47-8-23.66-14.83-34.21-20.79a15.42,15.42,0,1,1,15.17-26.85c11.07,6.25,22.75,13.35,35.73,21.7a15.42,15.42,0,0,1-8.36,28.39Zm-71.44-39.74a15.45,15.45,0,0,1-6.22-1.31,233,233,0,0,0-36.11-12.78,15.42,15.42,0,0,1,7.62-29.89,263.86,263.86,0,0,1,40.94,14.45,15.42,15.42,0,0,1-6.23,29.53Zm-118.7-10.1a15.42,15.42,0,0,1-6.13-29.57,121.39,121.39,0,0,1,45.47-9.79,15.42,15.42,0,0,1,.77,30.84,89.42,89.42,0,0,0-34,7.25A15.23,15.23,0,0,1,1303.88,1546.08Z"/><path class="cls-22" d="M2364.37,1834.53a15.44,15.44,0,0,1-14.09-21.68,186.53,186.53,0,0,0,6.85-17.45,15.42,15.42,0,0,1,29.46,9.12,206,206,0,0,1-8.12,20.84A15.42,15.42,0,0,1,2364.37,1834.53Z"/><path class="cls-23" d="M1366,974.75C1366,1163.18,1102,1507,982.5,1653a74.34,74.34,0,0,1-115,0C748,1507,484,1163.18,484,974.75c0-243.53,197.43-441,441-441S1366,731.22,1366,974.75Z"/><circle class="cls-3" cx="924.99" cy="974.75" r="245.93" transform="translate(-418.33 939.56) rotate(-45)"/><g class="cls-24"><path class="cls-25" d="M923,1471.93c28-184.24,149.64-243.21,128.76-417.18-24.09-200.63-201.73-254.06-206-432.63a283.37,283.37,0,0,1,10.6-83C645.43,572.07,484,754.55,484,974.75,484,1163.18,748,1507,867.47,1653a74.13,74.13,0,0,0,68.82,26.37C914.91,1598.66,914.26,1529.75,923,1471.93Z"/></g><circle class="cls-26" cx="924.99" cy="1867.52" r="90.13"/><path class="cls-27" d="M2572.52,1381.69c0,85.75-120.13,242.22-174.49,308.64a33.84,33.84,0,0,1-52.35,0c-54.36-66.42-174.49-222.89-174.49-308.64,0-110.82,89.84-200.66,200.66-200.66S2572.52,1270.87,2572.52,1381.69Z"/><circle class="cls-3" cx="2371.85" cy="1381.69" r="111.91" transform="translate(674.54 3538.98) rotate(-82.03)"/><g class="cls-24"><path class="cls-28" d="M2371,1607.94c12.73-83.84,68.09-110.68,58.59-189.84-11-91.3-91.8-115.62-93.75-196.88a129.32,129.32,0,0,1,4.82-37.77c-96,15-169.44,98-169.44,198.24,0,85.75,120.13,242.22,174.49,308.64a33.76,33.76,0,0,0,31.31,12C2367.27,1665.6,2367,1634.25,2371,1607.94Z"/></g><circle class="cls-29" cx="2371.85" cy="1787.95" r="41.01" transform="translate(-416.35 764.04) rotate(-16.85)"/><polygon class="cls-30" points="2033.33 3083.43 1721.39 3070.67 1807.76 2868.34 2008.72 2880.2 2062.5 2968.14 2033.33 3083.43"/><path class="cls-31" d="M2326,2761.8c2.08,0,4.13.15,6.17.35l32.42-.35-.19,12.71c31.4,21.86,53.2,69.68,53.2,125.19,0,57.7-23.55,107.09-57,127.66l-.16,10.23H2326c-50.59,0-91.6-61.73-91.6-137.89S2275.37,2761.8,2326,2761.8Z"/><ellipse class="cls-32" cx="2364.55" cy="2899.7" rx="91.6" ry="137.89"/><path class="cls-33" d="M1430.89,2866.52c2.55,0,5.06.15,7.57.38l39.71-.38-.24,14.23c38.48,24.5,65.18,78.06,65.18,140.25,0,64.64-28.85,120-69.78,143l-.19,11.47h-42.25c-62,0-112.21-69.17-112.21-154.49S1368.92,2866.52,1430.89,2866.52Z"/><ellipse class="cls-34" cx="1478.17" cy="3021" rx="112.22" ry="154.49"/><path class="cls-35" d="M1857.62,2938.25c2.51,0,5,.16,7.45.4l39.09-.4-.23,14.59c37.87,25.11,64.16,80,64.16,143.79,0,66.26-28.4,123-68.69,146.62l-.19,11.75h-41.59c-61,0-110.47-70.91-110.47-158.37S1796.61,2938.25,1857.62,2938.25Z"/><ellipse class="cls-36" cx="1904.16" cy="3096.62" rx="110.47" ry="158.38"/><ellipse class="cls-9" cx="1919.68" cy="3096.62" rx="62.06" ry="88.98"/><ellipse class="cls-37" cx="1910.29" cy="3096.62" rx="52.67" ry="82.61"/><path class="cls-38" d="M2959.33,2761.8v164.86a71.65,71.65,0,0,1-80.38,71.11l-400.85-49.23V2761.8Z"/><path class="cls-39" d="M2778.87,2738.92l-110,171a97.58,97.58,0,0,1-70.41,44.08l-364,43.74-27.86-184.11Z"/><path class="cls-40" d="M2753.5,2822.23c2.08,0,4.13.14,6.17.34l32.42-.34-.19,12.7c31.4,21.87,53.2,69.68,53.2,125.19,0,57.7-23.55,107.1-57,127.66L2788,3098H2753.5c-50.59,0-91.6-61.74-91.6-137.9S2702.91,2822.23,2753.5,2822.23Z"/><ellipse class="cls-41" cx="2792.09" cy="2960.12" rx="91.6" ry="137.89"/><ellipse class="cls-9" cx="2804.96" cy="2960.12" rx="51.46" ry="77.47"/><ellipse class="cls-42" cx="2797.17" cy="2960.12" rx="43.67" ry="71.92"/><path class="cls-43" d="M2356,2868.34l747.77-103.56a24.89,24.89,0,0,0,21.47-24.65V2081.3a24.89,24.89,0,0,0-24.11-24.87L2356,2033.48Z"/><path class="cls-44" d="M1769,2822.23,2356,2868.34V2033.48l-557.8,29.45a30.78,30.78,0,0,0-29.15,30.73Z"/><path class="cls-45" d="M2625.75,2353.12c108.7-137,324.77-35.91,433.84-189.58a422.43,422.43,0,0,0,53.59-103.43,24.79,24.79,0,0,1,12,21.19v658.83a24.89,24.89,0,0,1-21.47,24.65L2427,2858.5c42.73-46.69,85.63-106.35,116.69-180.92C2611.92,2513.86,2554.78,2442.58,2625.75,2353.12Z"/><path class="cls-46" d="M2242.52,2378.94c20.25,90.9,67.49,353.1,14.77,634.89a50.58,50.58,0,0,1-41.82,40.52l-182.14,29.08S2031.51,2911,1944,2899.7s-169.52,70.72-175,212.9c0,0-189.57,25.52-475.76-40.1,0,0-38.28-8.21-54.68-51.5l12.92-198.31a60.87,60.87,0,0,1,21-42.11L1440.91,2635S1594,2418.1,1645.07,2376.17c0,0,27.34-43.74,247.9-49.21,151.9-3.77,256.5,6.3,306.9,12.93A50.39,50.39,0,0,1,2242.52,2378.94Z"/><path class="cls-47" d="M1261.19,2793.56l8.38,9.16c-3.65,102.07-25.77,138.16,161.32,157.4s181.37-137.89,181.37-137.89l245.36-107,204.88-322.64c40.66-32.76,111.72-41.71,159.9-43.79a50.3,50.3,0,0,1,20.12,30.15c20.25,90.9,67.49,353.1,14.78,634.89a50.6,50.6,0,0,1-41.84,40.52l-182.13,29.08S2031.51,2911,1944,2899.7s-169.52,70.72-175,212.9c0,0-189.57,25.52-475.76-40.1,0,0-38.28-8.21-54.68-51.5l12.92-198.31A61,61,0,0,1,1261.19,2793.56Z"/><path class="cls-48" d="M1860.13,2668.15a32.48,32.48,0,0,1-31.71,15.35l-388.51-47.62,1-.86s127.07-180,188.28-243.75l358.25,21.55a16.4,16.4,0,0,1,13,24.9Z"/><path class="cls-49" d="M1628.79,2547.17c105.78-41.59,193.68,7.7,266.43-50.45,28-22.38,44.66-53.44,54.5-86.17l37.72,2.27a16.4,16.4,0,0,1,13,24.9l-140.33,230.43a32.48,32.48,0,0,1-31.71,15.35L1506,2644C1548.38,2589,1592,2561.65,1628.79,2547.17Z"/><path class="cls-50" d="M1285.44,2819.86a6.91,6.91,0,0,1,6.93-6.18c96.81.85,218.54,21.21,258.85,28.45a13.5,13.5,0,0,1,10.84,16.29c-7.88,33.63-21,56.38-30.58,69.58a37.87,37.87,0,0,1-27.68,15.5c-30.46,2.4-98,6.46-130.79-1.34-29.14-6.93-57-20.76-72-29a32.08,32.08,0,0,1-16.42-23.09C1280.9,2866.34,1283.91,2833.41,1285.44,2819.86Z"/><path class="cls-51" d="M1759.16,2829.2a10.36,10.36,0,0,0-5.67-14.32c-8.55-3.16-20.27-6.81-27.08-6-8.92,1.05-84.4,20.65-118.92,29.69a23.06,23.06,0,0,0-17.3,23.67c1.54,23.5,10.42,60.72,50.78,64.9C1697,2932.92,1732.39,2883.52,1759.16,2829.2Z"/><path class="cls-52" d="M1396.25,2968.14c146.86,20.51,176.65-29.89,176.65-29.89,34.76,5.17,84.16-1.64,112.15-6.52,10.68-1.86,21,3.21,27,12.25,4.46,6.76,12.59,13.6,27.35,16.14,24.1,4.16,65.14-5,85.24-10.18-29.25,40.15-49.73,92.19-52.43,162.44,0,0-192.76,25.74-478.95-39.88,0,0-38.28-8.21-54.68-51.5l8.43-129.33C1262,2914.62,1301.23,2954.87,1396.25,2968.14Z"/><path class="cls-53" d="M1635.1,2993.65a27.17,27.17,0,0,1,29.75,27.76c-.76,34.89,2.8,71.4,6,96.06-83.15.19-214.66-7.63-377.54-45,0,0-38.28-8.21-54.68-51.5l4.91-75.37C1360.82,3012.15,1558.35,3001.09,1635.1,2993.65Z"/><path class="cls-54" d="M2179.88,2431.66l-52.77,12.77a71.84,71.84,0,0,0-42.37,29.21l-130.63,190.54c-8.91,13,2.6,30.23,18,27l226.33-47.88a20.37,20.37,0,0,0,16.18-19.05c1.42-32.65,2.93-110-9.86-176.41A20.49,20.49,0,0,0,2179.88,2431.66Z"/></g></g></svg>