<svg width="60" height="60" viewBox="0 0 60 60" fill="none" xmlns="http://www.w3.org/2000/svg">
<path d="M49.7963 55.7834H7.21313C3.23583 55.7834 0 52.5476 0 48.5703V18.9414C0 14.9641 3.23583 11.7283 7.21313 11.7283H19.3593L39.6024 4.27139C39.8298 4.18775 40.0808 4.19995 40.2986 4.30473C40.5165 4.4098 40.6826 4.59881 40.7588 4.8286L41.6203 7.43043L46.9308 5.74628C47.1644 5.67246 47.4183 5.69747 47.6326 5.81593C47.8472 5.9344 48.0035 6.13591 48.0651 6.37315L49.4543 11.728H49.7963C53.7736 11.728 57.0094 14.9638 57.0094 18.9411V26.3605C58.7326 26.8431 60 28.4275 60 30.3027V37.2096C60 39.0845 58.7326 40.6692 57.0094 41.1517V48.5706C57.0094 52.5476 53.7736 55.7834 49.7963 55.7834ZM7.21313 13.5145C4.22048 13.5145 1.78594 15.9491 1.78594 18.9417V48.5706C1.78594 51.5632 4.22048 53.9977 7.21313 53.9977H49.7963C52.789 53.9977 55.2235 51.5632 55.2235 48.5706V41.3024H39.2851C37.1438 41.3024 35.4016 39.5602 35.4016 37.4188V30.0938C35.4016 27.9524 37.1438 26.2102 39.2851 26.2102H55.2235V18.9417C55.2235 15.9491 52.789 13.5145 49.7963 13.5145H48.7825C48.7694 13.5148 48.7563 13.5148 48.7432 13.5145H42.4192C42.4055 13.5148 42.3918 13.5148 42.3778 13.5145H19.5397C19.5257 13.5148 19.5117 13.5148 19.498 13.5145H7.21313ZM37.1875 37.2093C37.1875 38.4812 38.2225 39.5161 39.4944 39.5161H55.9075C57.1794 39.5161 58.2144 38.4812 58.2144 37.2093V30.3024C58.2144 29.0305 57.1794 27.9956 55.9075 27.9956H39.4944C38.2225 27.9956 37.1875 29.0305 37.1875 30.3024V37.2093ZM43.0433 11.7286H47.6091L46.5727 7.73374L42.1816 9.12618L43.0433 11.7286ZM24.5261 11.7286H41.1622L40.2064 8.84162C40.2037 8.83388 40.201 8.82614 40.1986 8.8184C40.1986 8.81811 40.1983 8.81751 40.1983 8.81692L39.3539 6.26659L24.5261 11.7286ZM42.3983 37.1363C40.5344 37.1363 39.0181 35.6198 39.0181 33.7561C39.0181 31.8922 40.5344 30.3759 42.3983 30.3759C44.2623 30.3759 45.7785 31.8922 45.7785 33.7561C45.7788 35.6198 44.2623 37.1363 42.3983 37.1363ZM42.3983 32.1616C41.519 32.1616 40.8041 32.8769 40.8041 33.7558C40.8041 34.6348 41.5193 35.3501 42.3983 35.3501C43.2773 35.3501 43.9926 34.6348 43.9926 33.7558C43.9926 32.8769 43.2776 32.1616 42.3983 32.1616Z" fill="white"/>
</svg>
