<svg width="50" height="50" viewBox="0 0 50 50" fill="none" xmlns="http://www.w3.org/2000/svg">
<path d="M12.963 10.5527C5.81504 10.5527 0 16.3678 0 23.5157C0 26.9242 1.59326 31.9001 4.0582 36.192C6.8667 41.0815 10.112 43.886 12.963 43.886C15.814 43.886 19.0593 41.0815 21.8678 36.192C24.3327 31.9001 25.9259 26.9241 25.9259 23.5157C25.926 16.3678 20.1108 10.5527 12.963 10.5527ZM12.963 42.0343C8.94014 42.0343 1.85186 31.3287 1.85186 23.5157C1.85186 17.3892 6.83594 12.4046 12.963 12.4046C19.09 12.4046 24.0741 17.3892 24.0741 23.5157C24.074 31.3286 16.9858 42.0343 12.963 42.0343Z" fill="#4F84EB"/>
<path d="M12.963 17.0342C9.38945 17.0342 6.48154 19.9418 6.48154 23.5157C6.48154 27.0896 9.38954 29.9971 12.963 29.9971C16.5364 29.9971 19.4444 27.0896 19.4444 23.5157C19.4444 19.9418 16.5364 17.0342 12.963 17.0342ZM12.963 28.1453C10.4103 28.1453 8.33339 26.0682 8.33339 23.5157C8.33339 20.963 10.4104 18.8861 12.963 18.8861C15.5156 18.8861 17.5926 20.963 17.5926 23.5157C17.5926 26.0683 15.5156 28.1453 12.963 28.1453Z" fill="#4F84EB"/>
<path d="M40.7407 1.29346C35.6354 1.29346 31.4814 5.44697 31.4814 10.5527C31.4814 15.2145 37.1084 24.4416 40.7407 24.4416C44.373 24.4416 50 15.2145 50 10.5527C50 5.44707 45.846 1.29346 40.7407 1.29346ZM40.7407 22.5897C38.7967 22.5897 33.3333 14.9911 33.3333 10.5527C33.3333 6.46836 36.6563 3.14531 40.7407 3.14531C44.8251 3.14531 48.1481 6.46836 48.1481 10.5527C48.1481 14.9911 42.6849 22.5897 40.7407 22.5897Z" fill="#4F84EB"/>
<path d="M40.7407 5.92316C38.1881 5.92316 36.1111 8.00011 36.1111 10.5527C36.1111 13.1054 38.1882 15.1823 40.7407 15.1823C43.2934 15.1823 45.3703 13.1053 45.3703 10.5527C45.3704 8.00011 43.2934 5.92316 40.7407 5.92316ZM40.7407 13.3306C39.209 13.3306 37.963 12.0846 37.963 10.5528C37.963 9.02111 39.209 7.77511 40.7407 7.77511C42.2725 7.77511 43.5185 9.02111 43.5185 10.5528C43.5185 12.0845 42.2725 13.3306 40.7407 13.3306Z" fill="#4F84EB"/>
<path d="M33.9265 35.7675C32.8106 34.8384 32.2971 33.8587 32.354 32.7722C32.4806 30.3499 35.4808 27.8298 36.6256 27.0635C37.0497 26.7791 37.1644 26.2045 36.8806 25.7795C36.5967 25.354 36.0206 25.2388 35.5975 25.5231C35.3976 25.656 30.7101 28.824 30.5049 32.6706C30.4144 34.3579 31.1668 35.8788 32.7401 37.1899C36.1735 40.0513 38.0777 42.9475 37.5904 44.5688C37.1745 45.951 34.9898 46.474 33.2311 46.6698C25.2622 47.5564 18.9462 44.9134 18.882 44.8867C18.4109 44.6846 17.8684 44.9044 17.6677 45.3741C17.4669 45.8443 17.684 46.3878 18.1541 46.5889C18.3874 46.6893 23.1834 48.7066 29.8611 48.7066C31.0014 48.7066 32.1985 48.6478 33.4355 48.5099C36.8019 48.136 38.7958 46.9894 39.3637 45.1019C40.3683 41.7597 36.3878 37.8191 33.9265 35.7675Z" fill="#4F84EB"/>
</svg>
