<svg width="60" height="60" viewBox="0 0 60 60" fill="none" xmlns="http://www.w3.org/2000/svg">
<g clip-path="url(#clip0)">
<path d="M54.6556 10.3606C46.4003 8.09869 38.0965 4.57663 30.6419 0.175311C30.2459 -0.0584777 29.7546 -0.0584777 29.3587 0.175311C21.689 4.70308 13.834 8.03459 5.34433 10.3606C4.7959 10.5108 4.41574 11.0093 4.41574 11.578V24.474C4.41574 37.754 10.5422 46.5444 15.6818 51.5801C21.2149 57.0018 27.6602 60 30.0003 60C32.3402 60 38.7855 57.0018 44.3186 51.5801C49.4581 46.5446 55.5842 37.7541 55.5842 24.474V11.5779C55.5842 11.0093 55.204 10.5108 54.6556 10.3606ZM53.0599 24.4739C53.0599 36.8773 47.3458 45.0798 42.5519 49.7769C37.1108 55.1084 31.2932 57.4756 30.0003 57.4756C28.7074 57.4756 22.8895 55.1084 17.4483 49.7769C12.6545 45.0797 6.94007 36.8773 6.94007 24.4739V12.536C15.0586 10.2309 22.6193 7.01401 30.0005 2.7246C37.1975 6.90022 45.1354 10.2771 53.0599 12.5355V24.4739Z" fill="white"/>
<path d="M18.813 12.3948C18.5576 11.7462 17.8248 11.4275 17.1761 11.6831C14.9214 12.5715 12.6072 13.3892 10.2977 14.1137C9.77145 14.2789 9.41333 14.7664 9.41333 15.3179V20.1918C9.41333 20.8889 9.97852 21.4539 10.6754 21.4539C11.3724 21.4539 11.9375 20.8889 11.9375 20.1918V16.2403C14.0093 15.57 16.0788 14.8285 18.1014 14.0315C18.75 13.7762 19.0686 13.0434 18.813 12.3948Z" fill="white"/>
<path d="M21.2105 12.6342C21.3799 12.6342 21.5518 12.6001 21.7167 12.5281L21.7399 12.5181C22.3784 12.2382 22.666 11.4949 22.3862 10.8566C22.1061 10.218 21.3586 9.92916 20.7207 10.2088L20.7003 10.2176C20.0614 10.4966 19.7729 11.2393 20.0519 11.878C20.259 12.3521 20.7236 12.6342 21.2105 12.6342Z" fill="white"/>
<path d="M45.0377 40.6971C44.4544 40.3159 43.6723 40.4799 43.2906 41.0633C42.2506 42.6552 41.0304 44.1796 39.6636 45.5937C38.5395 46.7564 37.3215 47.8402 36.0433 48.8146C35.4891 49.2372 35.3825 50.0291 35.8049 50.5835C36.0535 50.9092 36.4293 51.0805 36.8095 51.0805C37.0764 51.0805 37.3454 50.9963 37.5739 50.8219C38.9526 49.7706 40.2663 48.6019 41.4782 47.3482C42.9561 45.8196 44.2768 44.1696 45.4039 42.444C45.7853 41.8605 45.6211 41.0783 45.0377 40.6971Z" fill="white"/>
<path d="M33.1122 50.794L33.0398 50.8367C32.4366 51.186 32.2305 51.958 32.5797 52.5612C32.8137 52.9655 33.2374 53.1912 33.6732 53.1912C33.8876 53.1912 34.1054 53.1365 34.3042 53.021L34.3878 52.9719C34.9893 52.6197 35.1913 51.8466 34.8391 51.2451C34.4866 50.6438 33.7134 50.4421 33.1122 50.794Z" fill="white"/>
<path d="M21.3971 27.424C20.6222 26.649 19.5915 26.2224 18.4953 26.2224C17.3992 26.2224 16.3684 26.6491 15.5931 27.424C13.9931 29.0244 13.9931 31.6283 15.5931 33.2284L23.0457 40.6809C23.8208 41.4557 24.8514 41.8824 25.9477 41.8824C27.044 41.8824 28.0747 41.4557 28.8499 40.6806L44.4078 25.1226C46.0076 23.5219 46.0076 20.9184 44.4075 19.3187C43.6325 18.5436 42.6018 18.117 41.5054 18.117C40.4091 18.117 39.3785 18.5437 38.6033 19.3187L25.9476 31.9743L21.3971 27.424ZM40.3883 21.1037C40.6865 20.8054 41.0834 20.6412 41.5055 20.6412C41.9279 20.6412 42.3244 20.8054 42.6229 21.1037C43.2387 21.7195 43.2387 22.7219 42.6227 23.338L27.065 38.8957C26.7668 39.194 26.3698 39.3582 25.9477 39.3582C25.5256 39.3582 25.1287 39.194 24.8304 38.8957L17.3779 31.4436C16.7619 30.8275 16.7619 29.8251 17.3777 29.2093C17.6761 28.911 18.073 28.7466 18.4952 28.7466C18.9174 28.7466 19.3141 28.9108 19.6124 29.209L25.0551 34.6519C25.292 34.8885 25.6128 35.0215 25.9476 35.0215C26.2824 35.0215 26.6033 34.8886 26.8399 34.6519L40.3883 21.1037Z" fill="white"/>
</g>
<defs>
<clipPath id="clip0">
<rect width="60" height="60" fill="white"/>
</clipPath>
</defs>
</svg>
