<svg display="none" xmlns="http://www.w3.org/2000/svg">
    <symbol id="mail_about_us" viewBox="0 0 50 50">
        <g>
            <path d="M47.4358 8.33331H2.56416C1.15381 8.33331 0 9.48712 0 10.8974V39.1026C0 40.5127 1.15381 41.6667 2.56416 41.6667H47.4359C48.8461 41.6667 50.0001 40.5129 50.0001 39.1026V10.8974C50 9.48712 48.8462 8.33331 47.4358 8.33331ZM46.4736 10.2563L26.475 25.2565C26.1154 25.5301 25.5635 25.7013 24.9999 25.6987C24.4364 25.7013 23.8846 25.5301 23.5249 25.2565L3.52627 10.2563H46.4736ZM35.791 26.2462L46.6885 39.7078C46.6994 39.7213 46.7128 39.7316 46.7244 39.7438H3.27559C3.28711 39.731 3.30059 39.7213 3.31152 39.7078L14.209 26.2462C14.5429 25.8334 14.4796 25.2282 14.066 24.8936C13.6532 24.5597 13.048 24.623 12.7141 25.0359L1.92305 38.366V11.4582L22.3717 26.7947C23.1403 27.3672 24.0755 27.6192 24.9998 27.6217C25.9229 27.6197 26.8588 27.3678 27.6279 26.7947L48.0766 11.4582V38.3658L37.2858 25.0359C36.9519 24.6231 36.3461 24.5596 35.9339 24.8936C35.5204 25.2275 35.4569 25.8334 35.791 26.2462Z"/>
        </g>
    </symbol>

    <symbol id="routes_about_us" viewBox="0 0 50 50">
        <g>
            <path d="M12.963 10.5527C5.81504 10.5527 0 16.3678 0 23.5157C0 26.9242 1.59326 31.9001 4.0582 36.192C6.8667 41.0815 10.112 43.886 12.963 43.886C15.814 43.886 19.0593 41.0815 21.8678 36.192C24.3327 31.9001 25.9259 26.9241 25.9259 23.5157C25.926 16.3678 20.1108 10.5527 12.963 10.5527ZM12.963 42.0343C8.94014 42.0343 1.85186 31.3287 1.85186 23.5157C1.85186 17.3892 6.83594 12.4046 12.963 12.4046C19.09 12.4046 24.0741 17.3892 24.0741 23.5157C24.074 31.3286 16.9858 42.0343 12.963 42.0343Z" />
            <path d="M12.963 17.0342C9.38945 17.0342 6.48154 19.9418 6.48154 23.5157C6.48154 27.0896 9.38954 29.9971 12.963 29.9971C16.5364 29.9971 19.4444 27.0896 19.4444 23.5157C19.4444 19.9418 16.5364 17.0342 12.963 17.0342ZM12.963 28.1453C10.4103 28.1453 8.33339 26.0682 8.33339 23.5157C8.33339 20.963 10.4104 18.8861 12.963 18.8861C15.5156 18.8861 17.5926 20.963 17.5926 23.5157C17.5926 26.0683 15.5156 28.1453 12.963 28.1453Z" />
            <path d="M40.7407 1.29346C35.6354 1.29346 31.4814 5.44697 31.4814 10.5527C31.4814 15.2145 37.1084 24.4416 40.7407 24.4416C44.373 24.4416 50 15.2145 50 10.5527C50 5.44707 45.846 1.29346 40.7407 1.29346ZM40.7407 22.5897C38.7967 22.5897 33.3333 14.9911 33.3333 10.5527C33.3333 6.46836 36.6563 3.14531 40.7407 3.14531C44.8251 3.14531 48.1481 6.46836 48.1481 10.5527C48.1481 14.9911 42.6849 22.5897 40.7407 22.5897Z" />
            <path d="M40.7407 5.92316C38.1881 5.92316 36.1111 8.00011 36.1111 10.5527C36.1111 13.1054 38.1882 15.1823 40.7407 15.1823C43.2934 15.1823 45.3703 13.1053 45.3703 10.5527C45.3704 8.00011 43.2934 5.92316 40.7407 5.92316ZM40.7407 13.3306C39.209 13.3306 37.963 12.0846 37.963 10.5528C37.963 9.02111 39.209 7.77511 40.7407 7.77511C42.2725 7.77511 43.5185 9.02111 43.5185 10.5528C43.5185 12.0845 42.2725 13.3306 40.7407 13.3306Z"/>
            <path d="M33.9265 35.7675C32.8106 34.8384 32.2971 33.8587 32.354 32.7722C32.4806 30.3499 35.4808 27.8298 36.6256 27.0635C37.0497 26.7791 37.1644 26.2045 36.8806 25.7795C36.5967 25.354 36.0206 25.2388 35.5975 25.5231C35.3976 25.656 30.7101 28.824 30.5049 32.6706C30.4144 34.3579 31.1668 35.8788 32.7401 37.1899C36.1735 40.0513 38.0777 42.9475 37.5904 44.5688C37.1745 45.951 34.9898 46.474 33.2311 46.6698C25.2622 47.5564 18.9462 44.9134 18.882 44.8867C18.4109 44.6846 17.8684 44.9044 17.6677 45.3741C17.4669 45.8443 17.684 46.3878 18.1541 46.5889C18.3874 46.6893 23.1834 48.7066 29.8611 48.7066C31.0014 48.7066 32.1985 48.6478 33.4355 48.5099C36.8019 48.136 38.7958 46.9894 39.3637 45.1019C40.3683 41.7597 36.3878 37.8191 33.9265 35.7675Z"/>
        </g>
    </symbol>

    <symbol id="truck_about_us" viewBox="0 0 50 50">
        <g>
            <path d="M10.1562 36.7188C9.6927 36.7187 9.23956 36.8562 8.85413 37.1137C8.46871 37.3713 8.1683 37.7373 7.99091 38.1656C7.81352 38.5939 7.7671 39.0651 7.85754 39.5197C7.94797 39.9744 8.17119 40.392 8.49897 40.7198C8.82675 41.0476 9.24436 41.2708 9.69901 41.3612C10.1536 41.4517 10.6249 41.4052 11.0532 41.2278C11.4814 41.0505 11.8475 40.7501 12.105 40.3646C12.3625 39.9792 12.5 39.5261 12.5 39.0625C12.4993 38.4411 12.2521 37.8454 11.8128 37.406C11.3734 36.9666 10.7776 36.7194 10.1562 36.7188ZM10.1562 39.8438C10.0017 39.8438 9.85069 39.7979 9.72221 39.7121C9.59373 39.6262 9.4936 39.5042 9.43447 39.3615C9.37534 39.2187 9.35987 39.0616 9.39001 38.9101C9.42016 38.7585 9.49456 38.6193 9.60382 38.5101C9.71308 38.4008 9.85229 38.3264 10.0038 38.2963C10.1554 38.2661 10.3125 38.2816 10.4552 38.3407C10.598 38.3999 10.72 38.5 10.8058 38.6285C10.8917 38.7569 10.9375 38.908 10.9375 39.0625C10.9373 39.2696 10.8549 39.4682 10.7084 39.6147C10.562 39.7611 10.3634 39.8435 10.1562 39.8438Z" />
            <path d="M39.8438 36.7188C39.3802 36.7187 38.9271 36.8562 38.5416 37.1137C38.1562 37.3713 37.8558 37.7373 37.6784 38.1656C37.501 38.5939 37.4546 39.0651 37.545 39.5197C37.6355 39.9744 37.8587 40.392 38.1865 40.7198C38.5143 41.0476 38.9319 41.2708 39.3865 41.3612C39.8412 41.4517 40.3124 41.4052 40.7407 41.2278C41.1689 41.0505 41.535 40.7501 41.7925 40.3646C42.05 39.9792 42.1875 39.5261 42.1875 39.0625C42.1868 38.4411 41.9397 37.8454 41.5003 37.406C41.0609 36.9666 40.4651 36.7194 39.8438 36.7188ZM39.8438 39.8438C39.6892 39.8438 39.5382 39.7979 39.4097 39.7121C39.2812 39.6262 39.1811 39.5042 39.122 39.3615C39.0628 39.2187 39.0474 39.0616 39.0775 38.9101C39.1077 38.7585 39.1821 38.6193 39.2913 38.5101C39.4006 38.4008 39.5398 38.3264 39.6913 38.2963C39.8429 38.2661 40 38.2816 40.1427 38.3407C40.2855 38.3999 40.4075 38.5 40.4933 38.6285C40.5792 38.7569 40.625 38.908 40.625 39.0625C40.6248 39.2696 40.5424 39.4682 40.3959 39.6147C40.2495 39.7611 40.0509 39.8435 39.8438 39.8438Z"/>
            <path d="M49.0947 26.1396L42.0635 15.2021C41.9927 15.0922 41.8954 15.0017 41.7806 14.9391C41.6658 14.8765 41.537 14.8437 41.4062 14.8437H32.0312V10.5469C32.0304 9.82192 31.7421 9.12689 31.2295 8.61427C30.7169 8.10164 30.0218 7.8133 29.2969 7.8125H3.51562C2.79067 7.8133 2.09564 8.10164 1.58301 8.61427C1.07039 9.12689 0.782051 9.82192 0.78125 10.5469V39.0625C0.78125 39.2697 0.86356 39.4684 1.01007 39.6149C1.15659 39.7614 1.3553 39.8437 1.5625 39.8437H4.74414C4.93194 41.1452 5.58243 42.3354 6.57642 43.1963C7.5704 44.0571 8.84131 44.531 10.1562 44.531C11.4712 44.531 12.7421 44.0571 13.7361 43.1963C14.7301 42.3354 15.3806 41.1452 15.5684 39.8437H34.4316C34.6194 41.1452 35.2699 42.3354 36.2639 43.1963C37.2579 44.0571 38.5288 44.531 39.8438 44.531C41.1587 44.531 42.4296 44.0571 43.4236 43.1963C44.4176 42.3354 45.0681 41.1452 45.2559 39.8437H48.4375C48.6447 39.8437 48.8434 39.7614 48.9899 39.6149C49.1364 39.4684 49.2188 39.2697 49.2188 39.0625V26.5625C49.2187 26.4126 49.1757 26.2658 49.0947 26.1396ZM10.1562 42.9687C9.38367 42.9687 8.62843 42.7397 7.98605 42.3104C7.34367 41.8812 6.843 41.2711 6.54735 40.5574C6.25169 39.8436 6.17433 39.0582 6.32506 38.3004C6.47578 37.5427 6.84782 36.8467 7.39411 36.3004C7.94041 35.7541 8.63644 35.382 9.39418 35.2313C10.1519 35.0806 10.9373 35.1579 11.6511 35.4536C12.3649 35.7492 12.975 36.2499 13.4042 36.8923C13.8334 37.5347 14.0625 38.2899 14.0625 39.0625C14.0615 40.0982 13.6496 41.0912 12.9172 41.8235C12.1849 42.5558 11.1919 42.9677 10.1562 42.9687ZM30.4688 38.2812H15.5684C15.3806 36.9798 14.7301 35.7896 13.7361 34.9287C12.7421 34.0679 11.4712 33.594 10.1562 33.594C8.84131 33.594 7.5704 34.0679 6.57642 34.9287C5.58243 35.7896 4.93194 36.9798 4.74414 38.2812H2.34375V30.4687H30.4688V38.2812ZM30.4688 28.9062H2.34375V10.5469C2.34401 10.2362 2.46756 9.93823 2.68727 9.71852C2.90698 9.49881 3.2049 9.37526 3.51562 9.375H29.2969C29.6076 9.37526 29.9055 9.49881 30.1252 9.71852C30.3449 9.93823 30.4685 10.2362 30.4688 10.5469V28.9062ZM42.4863 18.75L47.0068 25.7812H35.9375V18.75H42.4863ZM39.8438 42.9687C39.0712 42.9687 38.3159 42.7397 37.6736 42.3104C37.0312 41.8812 36.5305 41.2711 36.2348 40.5574C35.9392 39.8436 35.8618 39.0582 36.0126 38.3004C36.1633 37.5427 36.5353 36.8467 37.0816 36.3004C37.6279 35.7541 38.3239 35.382 39.0817 35.2313C39.8394 35.0806 40.6248 35.1579 41.3386 35.4536C42.0524 35.7492 42.6625 36.2499 43.0917 36.8923C43.5209 37.5347 43.75 38.2899 43.75 39.0625C43.749 40.0982 43.3371 41.0912 42.6047 41.8235C41.8724 42.5558 40.8794 42.9677 39.8438 42.9687ZM47.6562 32.0312H46.0938C45.8866 32.0312 45.6878 31.9489 45.5413 31.8024C45.3948 31.6559 45.3125 31.4572 45.3125 31.25C45.3125 31.0428 45.3948 30.8441 45.5413 30.6976C45.6878 30.5511 45.8866 30.4687 46.0938 30.4687H47.6562V32.0312ZM47.6562 28.9062H46.0938C45.4721 28.9062 44.876 29.1532 44.4365 29.5927C43.9969 30.0323 43.75 30.6284 43.75 31.25C43.75 31.8716 43.9969 32.4677 44.4365 32.9073C44.876 33.3468 45.4721 33.5937 46.0938 33.5937H47.6562V38.2812H45.2559C45.0681 36.9798 44.4176 35.7896 43.4236 34.9287C42.4296 34.0679 41.1587 33.594 39.8438 33.594C38.5288 33.594 37.2579 34.0679 36.2639 34.9287C35.2699 35.7896 34.6194 36.9798 34.4316 38.2812H32.0312V16.4062H40.9795L41.4824 17.1875H35.1562C34.9491 17.1875 34.7503 17.2698 34.6038 17.4163C34.4573 17.5628 34.375 17.7615 34.375 17.9687V26.5625C34.375 26.7697 34.4573 26.9684 34.6038 27.1149C34.7503 27.2614 34.9491 27.3437 35.1562 27.3437H47.6562V28.9062Z"/>
            <path d="M37.5 28.9062H35.1562C34.949 28.9062 34.7503 28.9886 34.6038 29.1351C34.4573 29.2816 34.375 29.4803 34.375 29.6875C34.375 29.8947 34.4573 30.0934 34.6038 30.2399C34.7503 30.3864 34.949 30.4688 35.1562 30.4688H37.5C37.7072 30.4688 37.9059 30.3864 38.0524 30.2399C38.1989 30.0934 38.2812 29.8947 38.2812 29.6875C38.2812 29.4803 38.1989 29.2816 38.0524 29.1351C37.9059 28.9886 37.7072 28.9062 37.5 28.9062Z"/>
            <path d="M21.0938 33.5938H27.3438C27.551 33.5938 27.7497 33.5114 27.8962 33.3649C28.0427 33.2184 28.125 33.0197 28.125 32.8125C28.125 32.6053 28.0427 32.4066 27.8962 32.2601C27.7497 32.1136 27.551 32.0312 27.3438 32.0312H21.0938C20.8865 32.0312 20.6878 32.1136 20.5413 32.2601C20.3948 32.4066 20.3125 32.6053 20.3125 32.8125C20.3125 33.0197 20.3948 33.2184 20.5413 33.3649C20.6878 33.5114 20.8865 33.5938 21.0938 33.5938Z"/>
            <path d="M27.3438 34.375H25C24.7928 34.375 24.5941 34.4573 24.4476 34.6038C24.3011 34.7503 24.2188 34.949 24.2188 35.1562C24.2188 35.3635 24.3011 35.5622 24.4476 35.7087C24.5941 35.8552 24.7928 35.9375 25 35.9375H27.3438C27.551 35.9375 27.7497 35.8552 27.8962 35.7087C28.0427 35.5622 28.125 35.3635 28.125 35.1562C28.125 34.949 28.0427 34.7503 27.8962 34.6038C27.7497 34.4573 27.551 34.375 27.3438 34.375Z"/>
        </g>
    </symbol>

    <symbol id="box_about_us" viewBox="0 0 50 50">
        <g>
            <path d="M15.2343 36.1331C14.6952 36.1331 14.2577 36.5706 14.2577 37.1096C14.2577 37.6487 14.6952 38.0862 15.2343 38.0862C15.7733 38.0862 16.2108 37.6487 16.2108 37.1096C16.2108 36.5706 15.7733 36.1331 15.2343 36.1331Z"/>
            <path d="M43.9593 18.5548L49.714 12.8C49.9561 12.558 50.0537 12.2068 49.9714 11.8746C49.889 11.5422 49.6386 11.2774 49.3115 11.1764L35.2978 6.85122C34.0346 2.79058 30.2799 0.000244141 25.9764 0.000244141C21.9761 0.000244141 18.3983 2.43823 16.9176 6.11597L0.68574 11.1773C0.359471 11.2791 0.110057 11.5441 0.028319 11.876C-0.0534192 12.2079 0.044237 12.5584 0.285936 12.8001L6.19209 18.7063L2.46709 24.9148C2.31465 25.1688 2.28584 25.4783 2.38857 25.7561C2.49131 26.0339 2.71465 26.25 2.9957 26.3437L8.39833 28.1445V43.1642C8.39833 43.5712 8.65087 43.9356 9.03203 44.0786C12.3354 45.3172 24.6094 49.9206 24.6753 49.9439C24.869 50.0122 25.0873 50.0214 25.3001 49.9526C25.3029 49.9516 25.3058 49.951 25.3087 49.95L42.8868 44.0907C43.2855 43.9578 43.5546 43.5845 43.5546 43.1642V27.7423L49.3161 25.9318C49.6419 25.8294 49.8905 25.5644 49.9718 25.2328C50.0531 24.9011 49.9553 24.5511 49.7139 24.3096L43.9593 18.5548ZM35.7421 9.76587C35.7421 9.51772 35.7316 9.27017 35.713 9.02339L47.187 12.5649L42.3142 17.4375L34.3525 14.7839C35.2541 13.277 35.7421 11.5381 35.7421 9.76587ZM18.5865 7.22407C19.6706 4.07153 22.6404 1.95337 25.9764 1.95337C29.5703 1.95337 32.6873 4.38423 33.5563 7.8647C33.7107 8.48315 33.7889 9.1228 33.7889 9.76587C33.7889 11.5797 33.187 13.2798 32.0479 14.6831C30.556 16.5231 28.3431 17.5784 25.9764 17.5784C23.4182 17.5784 21.0187 16.3227 19.5572 14.2186C18.6458 12.9094 18.164 11.3696 18.164 9.76587C18.164 8.8937 18.306 8.03853 18.5865 7.22407ZM2.80898 12.5611L16.3148 8.34976C16.2471 8.81636 16.2108 9.28901 16.2108 9.76577C16.2108 11.3381 16.5833 12.8611 17.2933 14.2352L7.68554 17.4375L2.80898 12.5611ZM4.76826 24.8757L7.85615 19.7291L23.5361 24.9557L20.4483 30.1024C18.774 29.5443 6.55595 25.4715 4.76826 24.8757ZM24.0233 47.6145L10.3515 42.4875V28.7956C21.1083 32.3622 20.583 32.2533 20.8825 32.2533C21.2183 32.2533 21.5397 32.0795 21.7201 31.7791L24.0233 27.9401V47.6145ZM24.9999 23.3849L10.5101 18.555L18.4001 15.9251C20.2468 18.1954 23.0267 19.5315 25.9764 19.5315C28.7052 19.5315 31.2697 18.4085 33.1143 16.43L39.4897 18.5549L24.9999 23.3849ZM41.6014 42.4604L25.9764 47.6687V27.198L29.4385 31.5251C29.6903 31.8399 30.1096 31.9674 30.4938 31.8467L41.6014 28.3562V42.4604ZM30.546 29.7832L26.6374 24.8978L42.3142 19.6722L47.1935 24.5515L30.546 29.7832Z"/>
            <path d="M21.4366 38.3006L19.2648 37.4861C18.7598 37.2968 18.1969 37.5526 18.0074 38.0576C17.8181 38.5627 18.0739 39.1256 18.5789 39.3149L20.7508 40.1294C21.2568 40.319 21.819 40.062 22.0081 39.5579C22.1975 39.0529 21.9416 38.4899 21.4366 38.3006Z"/>
            <path d="M21.4365 42.4725L15.5772 40.2752C15.0722 40.0858 14.5093 40.3417 14.3198 40.8467C14.1304 41.3517 14.3863 41.9147 14.8913 42.104L20.7507 44.3013C20.8637 44.3437 20.9795 44.3638 21.0935 44.3638C21.4889 44.3638 21.8609 44.1219 22.008 43.7298C22.1975 43.2247 21.9416 42.6618 21.4365 42.4725Z" fill="#89909F"/>
            <path d="M31.5499 6.14554C31.1686 5.7641 30.5502 5.7642 30.1688 6.14554L24.9999 11.3145L23.7373 10.0519C23.356 9.67054 22.7376 9.67054 22.3561 10.0519C21.9747 10.4332 21.9748 11.0516 22.3561 11.433L24.3094 13.3861C24.6907 13.7674 25.3091 13.7674 25.6905 13.3861L31.5499 7.5267C31.9313 7.14535 31.9313 6.52699 31.5499 6.14554Z"/>
        </g>
    </symbol>

    <symbol id="faq_arrow" viewBox="0 0 20 20">
        <g>
            <path d="M10 14.3075C9.4528 14.3085 8.9108 14.2014 8.40512 13.9923C7.89944 13.7832 7.44005 13.4763 7.05333 13.0892L0.244167 6.27918C0.0923687 6.12201 0.00837337 5.91151 0.0102721 5.69301C0.0121707 5.47451 0.0998115 5.2655 0.254318 5.11099C0.408825 4.95649 0.617836 4.86885 0.836333 4.86695C1.05483 4.86505 1.26533 4.94904 1.4225 5.10084L8.23167 11.9108C8.7011 12.379 9.33702 12.6419 10 12.6419C10.663 12.6419 11.2989 12.379 11.7683 11.9108L18.5775 5.10084C18.6544 5.02125 18.7463 4.95777 18.848 4.91409C18.9497 4.87042 19.059 4.84743 19.1697 4.84647C19.2803 4.84551 19.39 4.86659 19.4925 4.90849C19.5949 4.95039 19.6879 5.01227 19.7662 5.09051C19.8444 5.16876 19.9063 5.2618 19.9482 5.36421C19.9901 5.46663 20.0112 5.57636 20.0102 5.68701C20.0092 5.79766 19.9863 5.90701 19.9426 6.00868C19.8989 6.11035 19.8354 6.2023 19.7558 6.27918L12.9467 13.0892C12.56 13.4763 12.1006 13.7832 11.5949 13.9923C11.0892 14.2014 10.5472 14.3085 10 14.3075Z"/>
        </g>
    </symbol>

</svg>
