<svg width="50" height="50" viewBox="0 0 50 50" fill="none" xmlns="http://www.w3.org/2000/svg">
<path d="M10.1562 36.7188C9.6927 36.7187 9.23956 36.8562 8.85413 37.1137C8.46871 37.3713 8.1683 37.7373 7.99091 38.1656C7.81352 38.5939 7.7671 39.0651 7.85754 39.5197C7.94797 39.9744 8.17119 40.392 8.49897 40.7198C8.82675 41.0476 9.24436 41.2708 9.69901 41.3612C10.1536 41.4517 10.6249 41.4052 11.0532 41.2278C11.4814 41.0505 11.8475 40.7501 12.105 40.3646C12.3625 39.9792 12.5 39.5261 12.5 39.0625C12.4993 38.4411 12.2521 37.8454 11.8128 37.406C11.3734 36.9666 10.7776 36.7194 10.1562 36.7188ZM10.1562 39.8438C10.0017 39.8438 9.85069 39.7979 9.72221 39.7121C9.59373 39.6262 9.4936 39.5042 9.43447 39.3615C9.37534 39.2187 9.35987 39.0616 9.39001 38.9101C9.42016 38.7585 9.49456 38.6193 9.60382 38.5101C9.71308 38.4008 9.85229 38.3264 10.0038 38.2963C10.1554 38.2661 10.3125 38.2816 10.4552 38.3407C10.598 38.3999 10.72 38.5 10.8058 38.6285C10.8917 38.7569 10.9375 38.908 10.9375 39.0625C10.9373 39.2696 10.8549 39.4682 10.7084 39.6147C10.562 39.7611 10.3634 39.8435 10.1562 39.8438Z" fill="#89909F"/>
<path d="M39.8438 36.7188C39.3802 36.7187 38.9271 36.8562 38.5416 37.1137C38.1562 37.3713 37.8558 37.7373 37.6784 38.1656C37.501 38.5939 37.4546 39.0651 37.545 39.5197C37.6355 39.9744 37.8587 40.392 38.1865 40.7198C38.5143 41.0476 38.9319 41.2708 39.3865 41.3612C39.8412 41.4517 40.3124 41.4052 40.7407 41.2278C41.1689 41.0505 41.535 40.7501 41.7925 40.3646C42.05 39.9792 42.1875 39.5261 42.1875 39.0625C42.1868 38.4411 41.9397 37.8454 41.5003 37.406C41.0609 36.9666 40.4651 36.7194 39.8438 36.7188ZM39.8438 39.8438C39.6892 39.8438 39.5382 39.7979 39.4097 39.7121C39.2812 39.6262 39.1811 39.5042 39.122 39.3615C39.0628 39.2187 39.0474 39.0616 39.0775 38.9101C39.1077 38.7585 39.1821 38.6193 39.2913 38.5101C39.4006 38.4008 39.5398 38.3264 39.6913 38.2963C39.8429 38.2661 40 38.2816 40.1427 38.3407C40.2855 38.3999 40.4075 38.5 40.4933 38.6285C40.5792 38.7569 40.625 38.908 40.625 39.0625C40.6248 39.2696 40.5424 39.4682 40.3959 39.6147C40.2495 39.7611 40.0509 39.8435 39.8438 39.8438Z" fill="#89909F"/>
<path d="M49.0947 26.1396L42.0635 15.2021C41.9927 15.0922 41.8954 15.0017 41.7806 14.9391C41.6658 14.8765 41.537 14.8437 41.4062 14.8437H32.0312V10.5469C32.0304 9.82192 31.7421 9.12689 31.2295 8.61427C30.7169 8.10164 30.0218 7.8133 29.2969 7.8125H3.51562C2.79067 7.8133 2.09564 8.10164 1.58301 8.61427C1.07039 9.12689 0.782051 9.82192 0.78125 10.5469V39.0625C0.78125 39.2697 0.86356 39.4684 1.01007 39.6149C1.15659 39.7614 1.3553 39.8437 1.5625 39.8437H4.74414C4.93194 41.1452 5.58243 42.3354 6.57642 43.1963C7.5704 44.0571 8.84131 44.531 10.1562 44.531C11.4712 44.531 12.7421 44.0571 13.7361 43.1963C14.7301 42.3354 15.3806 41.1452 15.5684 39.8437H34.4316C34.6194 41.1452 35.2699 42.3354 36.2639 43.1963C37.2579 44.0571 38.5288 44.531 39.8438 44.531C41.1587 44.531 42.4296 44.0571 43.4236 43.1963C44.4176 42.3354 45.0681 41.1452 45.2559 39.8437H48.4375C48.6447 39.8437 48.8434 39.7614 48.9899 39.6149C49.1364 39.4684 49.2188 39.2697 49.2188 39.0625V26.5625C49.2187 26.4126 49.1757 26.2658 49.0947 26.1396ZM10.1562 42.9687C9.38367 42.9687 8.62843 42.7397 7.98605 42.3104C7.34367 41.8812 6.843 41.2711 6.54735 40.5574C6.25169 39.8436 6.17433 39.0582 6.32506 38.3004C6.47578 37.5427 6.84782 36.8467 7.39411 36.3004C7.94041 35.7541 8.63644 35.382 9.39418 35.2313C10.1519 35.0806 10.9373 35.1579 11.6511 35.4536C12.3649 35.7492 12.975 36.2499 13.4042 36.8923C13.8334 37.5347 14.0625 38.2899 14.0625 39.0625C14.0615 40.0982 13.6496 41.0912 12.9172 41.8235C12.1849 42.5558 11.1919 42.9677 10.1562 42.9687ZM30.4688 38.2812H15.5684C15.3806 36.9798 14.7301 35.7896 13.7361 34.9287C12.7421 34.0679 11.4712 33.594 10.1562 33.594C8.84131 33.594 7.5704 34.0679 6.57642 34.9287C5.58243 35.7896 4.93194 36.9798 4.74414 38.2812H2.34375V30.4687H30.4688V38.2812ZM30.4688 28.9062H2.34375V10.5469C2.34401 10.2362 2.46756 9.93823 2.68727 9.71852C2.90698 9.49881 3.2049 9.37526 3.51562 9.375H29.2969C29.6076 9.37526 29.9055 9.49881 30.1252 9.71852C30.3449 9.93823 30.4685 10.2362 30.4688 10.5469V28.9062ZM42.4863 18.75L47.0068 25.7812H35.9375V18.75H42.4863ZM39.8438 42.9687C39.0712 42.9687 38.3159 42.7397 37.6736 42.3104C37.0312 41.8812 36.5305 41.2711 36.2348 40.5574C35.9392 39.8436 35.8618 39.0582 36.0126 38.3004C36.1633 37.5427 36.5353 36.8467 37.0816 36.3004C37.6279 35.7541 38.3239 35.382 39.0817 35.2313C39.8394 35.0806 40.6248 35.1579 41.3386 35.4536C42.0524 35.7492 42.6625 36.2499 43.0917 36.8923C43.5209 37.5347 43.75 38.2899 43.75 39.0625C43.749 40.0982 43.3371 41.0912 42.6047 41.8235C41.8724 42.5558 40.8794 42.9677 39.8438 42.9687ZM47.6562 32.0312H46.0938C45.8866 32.0312 45.6878 31.9489 45.5413 31.8024C45.3948 31.6559 45.3125 31.4572 45.3125 31.25C45.3125 31.0428 45.3948 30.8441 45.5413 30.6976C45.6878 30.5511 45.8866 30.4687 46.0938 30.4687H47.6562V32.0312ZM47.6562 28.9062H46.0938C45.4721 28.9062 44.876 29.1532 44.4365 29.5927C43.9969 30.0323 43.75 30.6284 43.75 31.25C43.75 31.8716 43.9969 32.4677 44.4365 32.9073C44.876 33.3468 45.4721 33.5937 46.0938 33.5937H47.6562V38.2812H45.2559C45.0681 36.9798 44.4176 35.7896 43.4236 34.9287C42.4296 34.0679 41.1587 33.594 39.8438 33.594C38.5288 33.594 37.2579 34.0679 36.2639 34.9287C35.2699 35.7896 34.6194 36.9798 34.4316 38.2812H32.0312V16.4062H40.9795L41.4824 17.1875H35.1562C34.9491 17.1875 34.7503 17.2698 34.6038 17.4163C34.4573 17.5628 34.375 17.7615 34.375 17.9687V26.5625C34.375 26.7697 34.4573 26.9684 34.6038 27.1149C34.7503 27.2614 34.9491 27.3437 35.1562 27.3437H47.6562V28.9062Z" fill="#89909F"/>
<path d="M37.5 28.9062H35.1562C34.949 28.9062 34.7503 28.9886 34.6038 29.1351C34.4573 29.2816 34.375 29.4803 34.375 29.6875C34.375 29.8947 34.4573 30.0934 34.6038 30.2399C34.7503 30.3864 34.949 30.4688 35.1562 30.4688H37.5C37.7072 30.4688 37.9059 30.3864 38.0524 30.2399C38.1989 30.0934 38.2812 29.8947 38.2812 29.6875C38.2812 29.4803 38.1989 29.2816 38.0524 29.1351C37.9059 28.9886 37.7072 28.9062 37.5 28.9062Z" fill="#89909F"/>
<path d="M21.0938 33.5938H27.3438C27.551 33.5938 27.7497 33.5114 27.8962 33.3649C28.0427 33.2184 28.125 33.0197 28.125 32.8125C28.125 32.6053 28.0427 32.4066 27.8962 32.2601C27.7497 32.1136 27.551 32.0312 27.3438 32.0312H21.0938C20.8865 32.0312 20.6878 32.1136 20.5413 32.2601C20.3948 32.4066 20.3125 32.6053 20.3125 32.8125C20.3125 33.0197 20.3948 33.2184 20.5413 33.3649C20.6878 33.5114 20.8865 33.5938 21.0938 33.5938Z" fill="#89909F"/>
<path d="M27.3438 34.375H25C24.7928 34.375 24.5941 34.4573 24.4476 34.6038C24.3011 34.7503 24.2188 34.949 24.2188 35.1562C24.2188 35.3635 24.3011 35.5622 24.4476 35.7087C24.5941 35.8552 24.7928 35.9375 25 35.9375H27.3438C27.551 35.9375 27.7497 35.8552 27.8962 35.7087C28.0427 35.5622 28.125 35.3635 28.125 35.1562C28.125 34.949 28.0427 34.7503 27.8962 34.6038C27.7497 34.4573 27.551 34.375 27.3438 34.375Z" fill="#89909F"/>
</svg>
